<svg width="137" height="35" viewBox="0 0 137 35" fill="none" xmlns="http://www.w3.org/2000/svg">
<path d="M34.4624 29.1928V15.1165H40.8711C41.5341 15.1165 42.1234 15.2608 42.7127 15.5496C43.302 15.8383 43.744 16.1993 44.186 16.6324C44.6279 17.0655 44.9226 17.5708 45.1436 18.1483C45.3646 18.7258 45.5119 19.3033 45.5119 19.8808C45.5119 20.4583 45.4382 21.0357 45.2172 21.6132C44.9962 22.1907 44.7016 22.6238 44.3333 23.057C43.965 23.4901 43.4493 23.7788 42.9337 23.9954L46.2485 29.3372H43.1547L40.2081 24.5729H37.4089V29.3372H34.4624V29.1928ZM37.2616 22.0464H40.7974C41.1658 22.0464 41.4604 21.9742 41.7551 21.7576C42.0497 21.541 42.2707 21.2523 42.418 20.9636C42.5654 20.6026 42.639 20.2417 42.639 19.8086C42.639 19.3755 42.5654 19.0145 42.3444 18.6536C42.1234 18.2927 41.9024 18.0039 41.6077 17.8595C41.3131 17.643 41.0184 17.4986 40.6501 17.4986H37.2616V22.0464Z" fill="#7F54B3"/>
<path d="M46.7637 26.161C46.7637 25.5113 46.9847 24.9338 47.353 24.4285C47.7213 23.9232 48.2369 23.5622 48.9736 23.2735C49.6365 22.9848 50.4468 22.8404 51.3308 22.8404C51.7728 22.8404 52.2148 22.8404 52.6567 22.9126C53.0987 22.9848 53.5407 23.0569 53.8353 23.2013V22.6238C53.8353 21.9741 53.6144 21.4688 53.246 21.1079C52.8777 20.747 52.2884 20.6026 51.4781 20.6026C50.8888 20.6026 50.2995 20.6748 49.7839 20.8913C49.2682 21.1079 48.6789 21.3966 48.0896 21.7576L47.2057 20.0251C47.8686 19.592 48.6053 19.2311 49.3419 19.0145C50.0785 18.7979 50.8888 18.6536 51.6991 18.6536C53.246 18.6536 54.4246 19.0145 55.2349 19.7364C56.0452 20.4582 56.4872 21.541 56.4872 22.9126V26.161C56.4872 26.4497 56.5609 26.6663 56.6345 26.7384C56.7082 26.8828 56.9292 26.955 57.1502 26.955V29.1206C56.9292 29.1928 56.7082 29.1928 56.4872 29.1928C56.2662 29.1928 56.1189 29.1928 55.9716 29.1928C55.4559 29.1928 55.014 29.0484 54.7193 28.8319C54.4246 28.6153 54.2773 28.3265 54.2037 27.9656L54.351 27.6047C53.909 28.1822 53.3197 28.6153 52.5831 28.9762C51.9201 29.265 51.1835 29.4815 50.4468 29.4815C49.7102 29.4815 49.1209 29.3372 48.5316 29.0484C47.9423 28.7597 47.5003 28.3987 47.2057 27.8934C46.911 27.3159 46.7637 26.8106 46.7637 26.161ZM53.3934 26.6663C53.5407 26.5219 53.688 26.3775 53.7617 26.2331C53.8353 26.0888 53.909 25.9444 53.909 25.8V24.7894C53.6144 24.645 53.246 24.5729 52.8777 24.5007C52.5094 24.4285 52.1411 24.4285 51.7728 24.4285C51.0361 24.4285 50.5205 24.5729 50.0049 24.8616C49.5629 25.1503 49.3419 25.5113 49.3419 26.0166C49.3419 26.3053 49.4155 26.5219 49.5629 26.7384C49.7102 26.955 49.9312 27.1716 50.2258 27.3159C50.5205 27.4603 50.8151 27.5325 51.2571 27.5325C51.6991 27.5325 52.0674 27.4603 52.4357 27.3159C52.8041 27.0994 53.1724 26.8828 53.3934 26.6663Z" fill="#7F54B3"/>
<path d="M65.5474 29.4092C64.7371 29.4092 64.0005 29.1926 63.3375 28.8317C62.6745 28.4708 62.2325 27.9654 61.8642 27.388V33.4516H59.1387V18.87H61.4959V20.6746C61.9379 20.0971 62.3799 19.5918 63.0428 19.2309C63.6321 18.87 64.3688 18.7256 65.1791 18.7256C65.9157 18.7256 66.5787 18.87 67.168 19.1587C67.7573 19.4474 68.2729 19.8084 68.7149 20.3137C69.1569 20.819 69.5252 21.3965 69.7462 22.0462C69.9672 22.6958 70.1145 23.3455 70.1145 24.0674C70.1145 25.078 69.8935 25.9442 69.5252 26.8105C69.1569 27.6045 68.5676 28.2542 67.9046 28.7595C67.2416 29.1926 66.4313 29.4092 65.5474 29.4092ZM64.5898 27.1714C65.0317 27.1714 65.4001 27.0992 65.6947 26.8827C66.063 26.7383 66.3577 26.5217 66.5787 26.233C66.7997 25.9442 67.0206 25.5833 67.168 25.2224C67.3153 24.8614 67.389 24.4283 67.389 24.0674C67.389 23.6343 67.3153 23.2733 67.168 22.9124C67.0206 22.5515 66.7997 22.1905 66.5787 21.974C66.284 21.6852 65.9894 21.4687 65.621 21.3243C65.2527 21.1799 64.8844 21.1077 64.4424 21.1077C64.2214 21.1077 63.9268 21.1799 63.7058 21.2521C63.4111 21.3243 63.1902 21.4687 62.9692 21.613C62.7482 21.7574 62.5272 21.974 62.3062 22.1183C62.1589 22.3349 62.0115 22.5515 61.8642 22.8402V25.2946C62.0115 25.6555 62.2325 26.0164 62.5272 26.3052C62.8218 26.5939 63.1165 26.8827 63.4848 27.027C63.8531 27.0992 64.2214 27.1714 64.5898 27.1714Z" fill="#7F54B3"/>
<path d="M72.0293 17.3541V14.7554H74.7548V17.3541H72.0293ZM72.0293 29.1927V18.7978H74.7548V29.1927H72.0293Z" fill="#7F54B3"/>
<path d="M76.5229 24.0676C76.5229 23.057 76.7439 22.1907 77.1123 21.3967C77.5542 20.6026 78.0699 19.953 78.8065 19.4477C79.5431 18.9424 80.3534 18.7258 81.2374 18.7258C81.974 18.7258 82.7107 18.9424 83.3736 19.3033C84.0366 19.6642 84.4786 20.1695 84.8469 20.747V14.6833H87.5724V26.2332C87.5724 26.5219 87.6461 26.7385 87.7198 26.8107C87.7934 26.955 87.9407 27.0272 88.2354 27.0272V29.1928C87.7198 29.265 87.3514 29.3372 87.0568 29.3372C86.5411 29.3372 86.1728 29.265 85.8782 28.9763C85.5835 28.7597 85.3625 28.3988 85.3625 28.0378L85.2889 27.3882C84.9206 28.0378 84.3313 28.5431 83.6683 28.9041C83.0053 29.265 82.2687 29.4094 81.532 29.4094C80.7954 29.4094 80.1324 29.265 79.5431 28.9763C78.9538 28.6875 78.3645 28.3266 77.9225 27.8213C77.4806 27.316 77.1123 26.7385 76.8913 26.0888C76.6703 25.5113 76.5229 24.7895 76.5229 24.0676ZM84.8469 25.4391V23.057C84.6996 22.696 84.4786 22.3351 84.1839 22.0464C83.8893 21.7576 83.521 21.5411 83.2263 21.3245C82.858 21.1801 82.4897 21.0358 82.1214 21.0358C81.6794 21.0358 81.3111 21.1079 81.0164 21.3245C80.6481 21.4689 80.3534 21.6854 80.1324 21.9742C79.9115 22.2629 79.6905 22.6239 79.5431 22.9848C79.3958 23.3457 79.3221 23.7788 79.3221 24.1398C79.3221 24.5729 79.3958 24.9338 79.5431 25.3669C79.6905 25.7279 79.9115 26.0888 80.1324 26.3776C80.3534 26.6663 80.7218 26.8829 81.0901 27.0272C81.4584 27.1716 81.8267 27.2438 82.2687 27.2438C82.5633 27.2438 82.7843 27.1716 83.079 27.0994C83.3 27.0272 83.5946 26.8829 83.8156 26.7385C84.0366 26.5941 84.2576 26.3776 84.4786 26.161C84.6259 25.9444 84.7732 25.6557 84.8469 25.4391Z" fill="#7F54B3"/>
<path d="M90.52 29.1928V15.1165H93.3192V26.8107H100.686V29.1928H90.52V29.1928Z" fill="white"/>
<path d="M106.872 29.4093C105.988 29.4093 105.252 29.265 104.515 28.9762C103.852 28.6875 103.263 28.3265 102.747 27.8212C102.232 27.3159 101.863 26.7384 101.642 26.0888C101.421 25.4391 101.274 24.7894 101.274 24.0675C101.274 23.3457 101.421 22.6238 101.642 21.9741C101.863 21.3245 102.232 20.747 102.747 20.2417C103.263 19.7364 103.778 19.3754 104.515 19.0867C105.178 18.7979 105.988 18.6536 106.799 18.6536C107.683 18.6536 108.493 18.7979 109.156 19.0867C109.819 19.3754 110.408 19.7364 110.924 20.2417C111.439 20.747 111.808 21.3245 112.029 21.9741C112.25 22.6238 112.397 23.2735 112.397 24.0675C112.397 24.7894 112.25 25.4391 112.029 26.0888C111.808 26.7384 111.366 27.3159 110.924 27.8212C110.408 28.3265 109.819 28.6875 109.156 28.9762C108.567 29.265 107.756 29.4093 106.872 29.4093ZM104.147 24.0675C104.147 24.645 104.294 25.1503 104.515 25.6557C104.736 26.0888 105.104 26.5219 105.546 26.7384C105.988 27.0272 106.43 27.0994 106.946 27.0994C107.462 27.0994 107.904 26.955 108.346 26.6663C108.788 26.3775 109.082 26.0166 109.377 25.5835C109.598 25.1503 109.745 24.5729 109.745 23.9954C109.745 23.4179 109.598 22.9126 109.377 22.4073C109.156 21.9741 108.788 21.6132 108.346 21.3245C107.904 21.0357 107.462 20.8913 106.946 20.8913C106.43 20.8913 105.988 21.0357 105.546 21.3245C105.104 21.6132 104.81 21.9741 104.589 22.4073C104.22 22.9848 104.147 23.4901 104.147 24.0675Z" fill="white"/>
<path d="M113.575 26.161C113.575 25.5113 113.796 24.9338 114.164 24.4285C114.533 23.9232 115.048 23.5622 115.785 23.2735C116.448 22.9848 117.258 22.8404 118.142 22.8404C118.584 22.8404 119.026 22.8404 119.468 22.9126C119.91 22.9848 120.352 23.0569 120.647 23.2013V22.6238C120.647 21.9741 120.426 21.4688 120.058 21.1079C119.689 20.747 119.1 20.6026 118.29 20.6026C117.7 20.6026 117.111 20.6748 116.595 20.8913C116.08 21.1079 115.49 21.3966 114.901 21.7576L114.017 20.0251C114.68 19.592 115.417 19.2311 116.153 19.0145C116.89 18.7979 117.7 18.6536 118.511 18.6536C120.058 18.6536 121.236 19.0145 122.046 19.7364C122.857 20.4582 123.299 21.541 123.299 22.9126V26.161C123.299 26.4497 123.372 26.6663 123.446 26.7384C123.52 26.8828 123.741 26.955 123.962 26.955V29.1206C123.741 29.1928 123.52 29.1928 123.299 29.1928C123.078 29.1928 122.93 29.1928 122.783 29.1928C122.267 29.1928 121.825 29.0484 121.531 28.8319C121.236 28.6153 121.089 28.3265 121.015 27.9656L120.942 27.4603C120.5 28.0378 119.91 28.4709 119.174 28.8319C118.511 29.1206 117.774 29.3372 117.037 29.3372C116.301 29.3372 115.711 29.1928 115.122 28.904C114.533 28.6153 114.091 28.2544 113.796 27.7491C113.723 27.3159 113.575 26.8106 113.575 26.161ZM120.131 26.6663C120.279 26.5219 120.426 26.3775 120.5 26.2331C120.573 26.0888 120.647 25.9444 120.647 25.8V24.7894C120.352 24.645 119.984 24.5729 119.616 24.5007C119.247 24.4285 118.879 24.4285 118.511 24.4285C117.774 24.4285 117.258 24.5729 116.743 24.8616C116.301 25.1503 116.08 25.5113 116.08 26.0166C116.08 26.3053 116.153 26.5219 116.301 26.7384C116.448 26.955 116.669 27.1716 116.964 27.3159C117.258 27.4603 117.553 27.5325 117.995 27.5325C118.437 27.5325 118.805 27.4603 119.174 27.3159C119.542 27.1716 119.91 26.8828 120.131 26.6663Z" fill="white"/>
<path d="M125.287 24.0676C125.287 23.057 125.508 22.1907 125.876 21.3967C126.318 20.6026 126.834 19.953 127.571 19.4477C128.307 18.9424 129.118 18.7258 130.002 18.7258C130.738 18.7258 131.475 18.9424 132.138 19.3033C132.801 19.6642 133.243 20.1695 133.611 20.747V14.6833H136.337V26.2332C136.337 26.5219 136.41 26.7385 136.484 26.8107C136.558 26.955 136.705 27.0272 137 27.0272V29.1928C136.484 29.265 136.116 29.3372 135.821 29.3372C135.305 29.3372 134.937 29.265 134.642 28.9763C134.348 28.7597 134.127 28.3988 134.127 28.0378L134.053 27.3882C133.685 28.0378 133.095 28.5431 132.432 28.9041C131.769 29.265 131.033 29.4094 130.296 29.4094C129.56 29.4094 128.897 29.265 128.307 28.9763C127.718 28.6875 127.129 28.3266 126.687 27.8213C126.245 27.316 125.876 26.7385 125.655 26.0888C125.434 25.5113 125.287 24.7895 125.287 24.0676ZM133.611 25.4391V23.057C133.464 22.696 133.243 22.3351 132.948 22.0464C132.653 21.7576 132.285 21.5411 131.99 21.3245C131.622 21.1801 131.254 21.0358 130.886 21.0358C130.444 21.0358 130.075 21.1079 129.781 21.3245C129.412 21.4689 129.118 21.6854 128.897 21.9742C128.676 22.2629 128.455 22.6239 128.307 22.9848C128.16 23.3457 128.086 23.7788 128.086 24.1398C128.086 24.5729 128.16 24.9338 128.307 25.3669C128.455 25.7279 128.676 26.0888 128.897 26.3776C129.118 26.6663 129.486 26.8829 129.854 27.0272C130.223 27.1716 130.591 27.2438 131.033 27.2438C131.327 27.2438 131.548 27.1716 131.843 27.0994C132.064 27.0272 132.359 26.8829 132.58 26.7385C132.801 26.5941 133.022 26.3776 133.243 26.161C133.39 25.9444 133.537 25.6557 133.611 25.4391Z" fill="white"/>
<path fill-rule="evenodd" clip-rule="evenodd" d="M14.7397 34.823C22.4744 34.3899 28.4411 27.8931 27.9991 20.3135C27.9255 19.0863 27.7045 17.9314 27.3362 16.7764L27.1152 16.9207C27.4835 18.0757 27.7045 19.3029 27.7045 20.5301C27.7045 27.1712 22.1797 32.513 15.4027 32.513C15.1817 32.513 14.9607 32.513 14.7397 32.513V34.823V34.823Z" fill="#B59CD3"/>
<path fill-rule="evenodd" clip-rule="evenodd" d="M2.43701 28.8318C4.94156 32.4412 9.06671 34.6789 13.4865 34.8233V32.369C10.0243 31.7915 7.0778 30.2756 5.16255 27.3159L2.43701 28.8318Z" fill="#A080C6"/>
<path fill-rule="evenodd" clip-rule="evenodd" d="M1.18516 14.8997C-0.582758 19.0865 -0.361768 23.7786 1.77447 27.7488L4.57367 26.1607C3.17407 23.2011 3.24773 19.8083 4.79466 16.9209L1.18516 14.8997Z" fill="#9572C0"/>
<path fill-rule="evenodd" clip-rule="evenodd" d="M13.4868 5.87671C8.4777 6.4542 4.05791 9.41385 1.70068 13.745L5.38385 15.8384C7.22543 13.1675 10.172 11.5073 13.4131 11.2907V5.87671H13.4868Z" fill="#8B64B9"/>
<path fill-rule="evenodd" clip-rule="evenodd" d="M27.4084 11.6515C24.3882 7.82558 19.6738 5.5878 14.812 5.73217V11.2183C17.4639 11.3627 19.8948 12.3733 21.81 14.178L27.4084 11.6515Z" fill="#7F54B3"/>
<path fill-rule="evenodd" clip-rule="evenodd" d="M14.1505 18.9419C15.5501 18.9419 16.7287 20.0247 16.7287 21.4684C16.7287 22.84 15.6237 23.9949 14.1505 23.9949C12.7509 23.9949 11.5723 22.9121 11.5723 21.4684C11.5723 20.0969 12.7509 18.9419 14.1505 18.9419Z" fill="#E4E0E8"/>
<path fill-rule="evenodd" clip-rule="evenodd" d="M30.3559 12.373L22.6949 17.4983L15.0339 22.5513L14.371 21.3964L13.708 20.2414L22.032 16.3433L30.3559 12.373Z" fill="#E4E0E8"/>
<path fill-rule="evenodd" clip-rule="evenodd" d="M32.9336 11.0014L30.7974 13.167H30.7237L30.6501 13.0948C30.5764 12.8061 30.5027 12.5173 30.3554 12.3007C30.2081 12.0842 30.0608 11.8676 29.8398 11.6511C29.7661 11.6511 29.7661 11.5789 29.7661 11.5067C29.7661 11.5067 29.7661 11.5067 29.8398 11.4345L32.86 10.7126C32.9336 10.7126 32.9336 10.7126 32.9336 10.7848C33.0073 10.9292 33.0073 11.0014 32.9336 11.0014Z" fill="#7F54B3"/>
<rect x="35" width="26" height="12" rx="6" fill="#E4E0E8"/>
<path d="M39.5639 9.5V3.74H40.4119L43.2479 8.02V3.74H44.0959V9.5H43.2479L40.4119 5.216V9.5H39.5639ZM45.2123 9.5V3.74H48.8923V4.528H46.0483V6.144H48.4123V6.932H46.0483V8.712H48.8923V9.5H45.2123ZM51.073 9.5L49.401 3.74H50.277L51.489 8.096L52.701 3.744L53.581 3.74L54.793 8.096L56.005 3.74H56.885L55.209 9.5H54.377L53.141 5.192L51.905 9.5H51.073Z" fill="#282828"/>
</svg>
