<svg width="33" height="30" viewBox="0 0 33 30" fill="none" xmlns="http://www.w3.org/2000/svg">
<path fill-rule="evenodd" clip-rule="evenodd" d="M14.7402 29.0975C22.4749 28.6644 28.4416 22.1676 27.9996 14.588C27.926 13.3609 27.705 12.2059 27.3367 11.0509L27.1157 11.1953C27.484 12.3503 27.705 13.5774 27.705 14.8046C27.705 21.4458 22.1802 26.7875 15.4032 26.7875C15.1822 26.7875 14.9612 26.7875 14.7402 26.7875V29.0975Z" fill="#B59CD3"/>
<path fill-rule="evenodd" clip-rule="evenodd" d="M2.4375 23.1064C4.94205 26.7157 9.06719 28.9535 13.487 29.0978V26.6435C10.0248 26.066 7.07829 24.5501 5.16304 21.5905L2.4375 23.1064Z" fill="#A080C6"/>
<path fill-rule="evenodd" clip-rule="evenodd" d="M1.18516 9.17419C-0.582758 13.361 -0.361768 18.0531 1.77447 22.0234L4.57367 20.4353C3.17407 17.4756 3.24773 14.0829 4.79466 11.1954L1.18516 9.17419Z" fill="#9572C0"/>
<path fill-rule="evenodd" clip-rule="evenodd" d="M13.4873 0.151245C8.47819 0.728737 4.0584 3.68838 1.70117 8.01957L5.38433 10.113C7.22592 7.44208 10.1724 5.78179 13.4136 5.56523V0.151245H13.4873Z" fill="#8B64B9"/>
<path fill-rule="evenodd" clip-rule="evenodd" d="M27.4089 5.92587C24.3887 2.09999 19.6743 -0.137788 14.8125 0.00658467V5.49276C17.4644 5.63713 19.8953 6.64774 21.8105 8.4524L27.4089 5.92587Z" fill="#7F54B3"/>
<path fill-rule="evenodd" clip-rule="evenodd" d="M14.1505 13.2164C15.5501 13.2164 16.7287 14.2992 16.7287 15.743C16.7287 17.1145 15.6237 18.2695 14.1505 18.2695C12.7509 18.2695 11.5723 17.1867 11.5723 15.743C11.5723 14.3714 12.7509 13.2164 14.1505 13.2164Z" fill="#190028"/>
<path fill-rule="evenodd" clip-rule="evenodd" d="M30.3559 6.64758L22.6949 11.7728L15.0339 16.8259L14.371 15.6709L13.708 14.5159L22.032 10.6178L30.3559 6.64758Z" fill="#190028"/>
<path fill-rule="evenodd" clip-rule="evenodd" d="M32.9331 5.27593L30.7969 7.44152H30.7232L30.6496 7.36933C30.5759 7.08059 30.5023 6.79184 30.3549 6.57528C30.2076 6.35872 30.0603 6.14217 29.8393 5.92561C29.7656 5.92561 29.7656 5.85342 29.7656 5.78123C29.7656 5.78123 29.7656 5.78123 29.8393 5.70905L32.8595 4.98718C32.9331 4.98718 32.9331 4.98718 32.9331 5.05937C33.0068 5.20374 33.0068 5.27593 32.9331 5.27593Z" fill="#7F54B3"/>
</svg>
