<svg width="158" height="32" viewBox="0 0 158 32" fill="none" xmlns="http://www.w3.org/2000/svg">
<path fill-rule="evenodd" clip-rule="evenodd" d="M28.5621 11.7902C28.9469 13.0217 29.1778 14.2532 29.2548 15.5616C29.7166 23.6433 23.4822 30.5705 15.4005 31.0323C14.9926 31.0631 14.092 31.0323 14.092 31.0323C9.47394 30.8783 5.16372 28.4923 2.5468 24.6439L1.85408 23.4894C-0.377999 19.2561 -0.608904 14.2532 1.23833 9.78903C1.23833 9.78903 1.49233 9.07322 1.77711 8.55753L1.79251 8.53444C4.25549 3.92404 8.78893 0.783735 14.0151 0.160291C14.0151 0.160291 14.8309 0.00635463 15.4775 0.00635463C20.5574 -0.139885 25.4834 2.24613 28.6314 6.31776L22.7818 9.01165C20.7806 7.08744 18.2406 6.00988 15.4698 5.85595C15.2466 5.84825 15.0157 5.84825 14.7694 5.86364C14.0766 5.87134 12.6681 6.10994 12.6681 6.10994C9.89727 6.63333 7.45737 8.19578 5.78716 10.5356C5.73328 10.6203 5.40232 11.1898 5.40232 11.1898L5.00208 11.9441C3.38575 15.0229 3.30878 18.6404 4.77118 21.7961C4.77118 21.7961 5.22529 22.7813 5.38693 23.0276C7.3881 26.1833 10.4668 27.7996 14.0843 28.4154C14.7232 28.5154 15.2235 28.5539 15.2235 28.5539C15.262 28.5539 15.5006 28.5693 15.5006 28.5693H16.0932C23.1743 28.5693 28.9469 22.8736 28.9469 15.7926C28.9469 14.4841 28.716 13.1756 28.3312 11.9441L28.5621 11.7902ZM17.4782 16.7928L17.478 16.7559L23.713 12.5593L31.7177 7.09451L23.0203 11.3278L16.2826 14.5475C15.8513 14.2621 15.3341 14.0989 14.7843 14.0989C13.3219 14.0989 12.0904 15.3304 12.0904 16.7928C12.0904 18.3321 13.245 19.4867 14.7843 19.4867C16.3237 19.4867 17.4782 18.3321 17.4782 16.7928ZM32.1774 7.94157L34.4095 5.63252C34.4095 5.63252 34.4672 5.57221 34.4672 5.57732C34.4681 5.53885 34.4489 5.48028 34.4095 5.40162C34.4042 5.39095 34.3999 5.38157 34.3962 5.37338C34.3802 5.33792 34.3742 5.32465 34.3326 5.32465L31.1768 6.09433L31.0999 6.1713C31.0999 6.24827 31.0999 6.32523 31.1768 6.32523C31.4078 6.55614 31.5617 6.78704 31.7156 7.01795C31.8696 7.24885 31.9465 7.55673 32.0235 7.8646L32.1005 7.94157H32.1774Z" fill="url(#paint0_linear_1841_3419)"/>
<path d="M36.6909 24.8868V8.24707H44.2668C45.0505 8.24707 45.7471 8.41773 46.4438 8.75906C47.1404 9.10039 47.6629 9.52705 48.1854 10.039C48.7078 10.551 49.0562 11.1484 49.3174 11.831C49.5786 12.5137 49.7528 13.1963 49.7528 13.879C49.7528 14.5616 49.6657 15.2443 49.4045 15.9269C49.1432 16.6096 48.7949 17.1216 48.3595 17.6336C47.9241 18.1456 47.3146 18.4869 46.705 18.7429L50.6236 25.0575H46.9663L43.4831 19.4256H40.1741V25.0575H36.6909V24.8868ZM39.9999 16.4389H44.1797C44.6151 16.4389 44.9634 16.3536 45.3118 16.0976C45.6601 15.8416 45.9213 15.5003 46.0955 15.159C46.2696 14.7323 46.3567 14.3056 46.3567 13.7936C46.3567 13.2817 46.2696 12.855 46.0084 12.4283C45.7471 12.0017 45.4859 11.6603 45.1376 11.4897C44.7893 11.2337 44.441 11.063 44.0056 11.063H39.9999V16.4389Z" fill="#7F54B3"/>
<path d="M51.2334 21.3023C51.2334 20.5343 51.4946 19.8516 51.93 19.2543C52.3654 18.657 52.975 18.2303 53.8458 17.889C54.6295 17.5477 55.5874 17.377 56.6323 17.377C57.1548 17.377 57.6773 17.377 58.1997 17.4623C58.7222 17.5477 59.2447 17.633 59.593 17.8036V17.121C59.593 16.353 59.3318 15.7557 58.8964 15.329C58.461 14.9024 57.7643 14.7317 56.8065 14.7317C56.1098 14.7317 55.4132 14.817 54.8036 15.073C54.1941 15.329 53.4975 15.6703 52.8008 16.097L51.7559 14.049C52.5396 13.537 53.4104 13.1104 54.2812 12.8544C55.152 12.5984 56.1098 12.4277 57.0677 12.4277C58.8964 12.4277 60.2896 12.8544 61.2475 13.7077C62.2054 14.561 62.7278 15.841 62.7278 17.4623V21.3023C62.7278 21.6436 62.8149 21.8996 62.902 21.9849C62.9891 22.1556 63.2503 22.2409 63.5116 22.2409V24.8009C63.2503 24.8862 62.9891 24.8862 62.7278 24.8862C62.4666 24.8862 62.2924 24.8862 62.1183 24.8862C61.5087 24.8862 60.9863 24.7155 60.6379 24.4595C60.2896 24.2035 60.1155 23.8622 60.0284 23.4356L60.2025 23.0089C59.6801 23.6916 58.9834 24.2035 58.1127 24.6302C57.3289 24.9715 56.4581 25.2275 55.5874 25.2275C54.7166 25.2275 54.0199 25.0569 53.3233 24.7155C52.6267 24.3742 52.1042 23.9476 51.7559 23.3502C51.4076 22.6676 51.2334 22.0702 51.2334 21.3023ZM59.0705 21.8996C59.2447 21.7289 59.4188 21.5583 59.5059 21.3876C59.593 21.2169 59.6801 21.0463 59.6801 20.8756V19.681C59.3318 19.5103 58.8964 19.425 58.461 19.3396C58.0256 19.2543 57.5902 19.2543 57.1548 19.2543C56.284 19.2543 55.6744 19.425 55.0649 19.7663C54.5424 20.1076 54.2812 20.5343 54.2812 21.1316C54.2812 21.4729 54.3682 21.7289 54.5424 21.9849C54.7166 22.2409 54.9778 22.4969 55.3261 22.6676C55.6744 22.8382 56.0227 22.9236 56.5452 22.9236C57.0677 22.9236 57.5031 22.8382 57.9385 22.6676C58.3739 22.4116 58.8093 22.1556 59.0705 21.8996Z" fill="#7F54B3"/>
<path d="M73.4382 25.1418C72.4803 25.1418 71.6095 24.8858 70.8258 24.4592C70.0421 24.0325 69.5196 23.4352 69.0842 22.7525V29.9204H65.8623V12.6834H68.6488V14.8167C69.1713 14.134 69.6938 13.5367 70.4775 13.11C71.1741 12.6834 72.0449 12.5127 73.0028 12.5127C73.8736 12.5127 74.6573 12.6834 75.3539 13.0247C76.0506 13.366 76.6601 13.7927 77.1826 14.39C77.7051 14.9873 78.1405 15.67 78.4017 16.438C78.6629 17.206 78.8371 17.9739 78.8371 18.8273C78.8371 20.0219 78.5759 21.0459 78.1405 22.0699C77.7051 23.0085 77.0084 23.7765 76.2247 24.3738C75.441 24.8858 74.4831 25.1418 73.4382 25.1418ZM72.3062 22.4965C72.8286 22.4965 73.264 22.4112 73.6124 22.1552C74.0477 21.9845 74.3961 21.7285 74.6573 21.3872C74.9185 21.0459 75.1798 20.6192 75.3539 20.1926C75.5281 19.7659 75.6152 19.2539 75.6152 18.8273C75.6152 18.3153 75.5281 17.8886 75.3539 17.4619C75.1798 17.0353 74.9185 16.6086 74.6573 16.3526C74.309 16.0113 73.9607 15.7553 73.5253 15.5846C73.0899 15.414 72.6545 15.3286 72.132 15.3286C71.8708 15.3286 71.5225 15.414 71.2612 15.4993C70.9129 15.5846 70.6517 15.7553 70.3904 15.926C70.1292 16.0966 69.8679 16.3526 69.6067 16.5233C69.4326 16.7793 69.2584 17.0353 69.0842 17.3766V20.2779C69.2584 20.7046 69.5196 21.1312 69.868 21.4726C70.2163 21.8139 70.5646 22.1552 71 22.3259C71.4354 22.4112 71.8708 22.4965 72.3062 22.4965Z" fill="#7F54B3"/>
<path d="M81.1016 10.8913V7.81934H84.3235V10.8913H81.1016ZM81.1016 24.8857V12.5979H84.3235V24.8857H81.1016Z" fill="#7F54B3"/>
<path d="M86.4131 18.8275C86.4131 17.6329 86.6743 16.6089 87.1097 15.6702C87.6322 14.7316 88.2417 13.9636 89.1125 13.3663C89.9833 12.769 90.9412 12.513 91.9861 12.513C92.8569 12.513 93.7277 12.769 94.5114 13.1956C95.2952 13.6223 95.8176 14.2196 96.253 14.9023V7.73438H99.475V21.3875C99.475 21.7288 99.562 21.9848 99.6491 22.0701C99.7362 22.2408 99.9103 22.3261 100.259 22.3261V24.8861C99.6491 24.9714 99.2137 25.0568 98.8654 25.0568C98.2558 25.0568 97.8205 24.9714 97.4721 24.6301C97.1238 24.3741 96.8626 23.9475 96.8626 23.5208L96.7755 22.7528C96.3401 23.5208 95.6435 24.1181 94.8598 24.5448C94.076 24.9714 93.2053 25.1421 92.3345 25.1421C91.4637 25.1421 90.68 24.9714 89.9833 24.6301C89.2867 24.2888 88.5901 23.8621 88.0676 23.2648C87.5451 22.6675 87.1097 21.9848 86.8485 21.2168C86.5872 20.5342 86.4131 19.6809 86.4131 18.8275ZM96.253 20.4488V17.6329C96.0789 17.2062 95.8176 16.7796 95.4693 16.4382C95.121 16.0969 94.6856 15.8409 94.3373 15.5849C93.9019 15.4143 93.4665 15.2436 93.0311 15.2436C92.5086 15.2436 92.0732 15.3289 91.7249 15.5849C91.2895 15.7556 90.9412 16.0116 90.68 16.3529C90.4187 16.6942 90.1575 17.1209 89.9833 17.5476C89.8092 17.9742 89.7221 18.4862 89.7221 18.9129C89.7221 19.4249 89.8092 19.8515 89.9833 20.3635C90.1575 20.7902 90.4187 21.2168 90.68 21.5582C90.9412 21.8995 91.3766 22.1555 91.812 22.3261C92.2474 22.4968 92.6828 22.5821 93.2053 22.5821C93.5536 22.5821 93.8148 22.4968 94.1631 22.4115C94.4244 22.3261 94.7727 22.1555 95.0339 21.9848C95.2952 21.8142 95.5564 21.5582 95.8176 21.3022C95.9918 21.0462 96.1659 20.7048 96.253 20.4488Z" fill="#7F54B3"/>
<path d="M102.958 24.8868V8.24707H106.267V22.0708H114.975V24.8868H102.958Z" fill="black"/>
<path d="M122.29 25.1422C121.245 25.1422 120.374 24.9715 119.503 24.6302C118.719 24.2889 118.023 23.8622 117.413 23.2649C116.804 22.6676 116.368 21.9849 116.107 21.2169C115.846 20.4489 115.672 19.681 115.672 18.8276C115.672 17.9743 115.846 17.121 116.107 16.353C116.368 15.585 116.804 14.9024 117.413 14.305C118.023 13.7077 118.632 13.2811 119.503 12.9397C120.287 12.5984 121.245 12.4277 122.203 12.4277C123.248 12.4277 124.205 12.5984 124.989 12.9397C125.773 13.2811 126.469 13.7077 127.079 14.305C127.689 14.9024 128.124 15.585 128.385 16.353C128.646 17.121 128.821 17.889 128.821 18.8276C128.821 19.681 128.646 20.4489 128.385 21.2169C128.124 21.9849 127.601 22.6676 127.079 23.2649C126.469 23.8622 125.773 24.2889 124.989 24.6302C124.292 24.9715 123.335 25.1422 122.29 25.1422ZM119.068 18.8276C119.068 19.5103 119.242 20.1076 119.503 20.7049C119.764 21.2169 120.2 21.7289 120.722 21.9849C121.245 22.3262 121.767 22.4116 122.377 22.4116C122.986 22.4116 123.509 22.2409 124.031 21.8996C124.554 21.5583 124.902 21.1316 125.25 20.6196C125.512 20.1076 125.686 19.425 125.686 18.7423C125.686 18.0596 125.512 17.4623 125.25 16.865C124.989 16.353 124.554 15.9263 124.031 15.585C123.509 15.2437 122.986 15.073 122.377 15.073C121.767 15.073 121.245 15.2437 120.722 15.585C120.2 15.9263 119.851 16.353 119.59 16.865C119.155 17.5477 119.068 18.145 119.068 18.8276Z" fill="black"/>
<path d="M130.214 21.3023C130.214 20.5343 130.475 19.8516 130.911 19.2543C131.346 18.657 131.956 18.2303 132.826 17.889C133.61 17.5477 134.568 17.377 135.613 17.377C136.135 17.377 136.658 17.377 137.18 17.4623C137.703 17.5477 138.225 17.633 138.574 17.8036V17.121C138.574 16.353 138.312 15.7557 137.877 15.329C137.442 14.9024 136.745 14.7317 135.787 14.7317C135.091 14.7317 134.394 14.817 133.784 15.073C133.175 15.329 132.478 15.6703 131.782 16.097L130.737 14.049C131.52 13.537 132.391 13.1104 133.262 12.8544C134.133 12.5984 135.091 12.4277 136.048 12.4277C137.877 12.4277 139.27 12.8544 140.228 13.7077C141.186 14.561 141.709 15.841 141.709 17.4623V21.3023C141.709 21.6436 141.796 21.8996 141.883 21.9849C141.97 22.1556 142.231 22.2409 142.492 22.2409V24.8009C142.231 24.8862 141.97 24.8862 141.709 24.8862C141.447 24.8862 141.273 24.8862 141.099 24.8862C140.489 24.8862 139.967 24.7155 139.619 24.4595C139.27 24.2035 139.096 23.8622 139.009 23.4356L138.922 22.8382C138.4 23.5209 137.703 24.0329 136.832 24.4595C136.048 24.8009 135.178 25.0569 134.307 25.0569C133.436 25.0569 132.739 24.8862 132.043 24.5449C131.346 24.2035 130.87 23.7472 130.642 23.3002C130.414 22.8532 130.214 22.0702 130.214 21.3023ZM137.964 21.8996C138.138 21.7289 138.312 21.5583 138.4 21.3876C138.487 21.2169 138.574 21.0463 138.574 20.8756V19.681C138.225 19.5103 137.79 19.425 137.355 19.3396C136.919 19.2543 136.484 19.2543 136.048 19.2543C135.178 19.2543 134.568 19.425 133.959 19.7663C133.436 20.1076 133.175 20.5343 133.175 21.1316C133.175 21.4729 133.262 21.7289 133.436 21.9849C133.61 22.2409 133.871 22.4969 134.22 22.6676C134.568 22.8382 134.916 22.9236 135.439 22.9236C135.961 22.9236 136.397 22.8382 136.832 22.6676C137.268 22.4969 137.703 22.1556 137.964 21.8996Z" fill="black"/>
<path d="M144.06 18.8275C144.06 17.6329 144.321 16.6089 144.756 15.6702C145.279 14.7316 145.888 13.9636 146.759 13.3663C147.63 12.769 148.588 12.513 149.633 12.513C150.504 12.513 151.374 12.769 152.158 13.1956C152.942 13.6223 153.464 14.2196 153.9 14.9023V7.73438H157.122V21.3875C157.122 21.7288 157.209 21.9848 157.296 22.0701C157.383 22.2408 157.557 22.3261 157.905 22.3261V24.8861C157.296 24.9714 156.86 25.0568 156.512 25.0568C155.903 25.0568 155.467 24.9714 155.119 24.6301C154.771 24.3741 154.509 23.9475 154.509 23.5208L154.422 22.7528C153.987 23.5208 153.29 24.1181 152.506 24.5448C151.723 24.9714 150.852 25.1421 149.981 25.1421C149.11 25.1421 148.327 24.9714 147.63 24.6301C146.933 24.2888 146.237 23.8621 145.714 23.2648C145.192 22.6675 144.756 21.9848 144.495 21.2168C144.234 20.5342 144.06 19.6809 144.06 18.8275ZM153.9 20.4488V17.6329C153.726 17.2062 153.464 16.7796 153.116 16.4382C152.768 16.0969 152.332 15.8409 151.984 15.5849C151.549 15.4143 151.113 15.2436 150.678 15.2436C150.155 15.2436 149.72 15.3289 149.372 15.5849C148.936 15.7556 148.588 16.0116 148.327 16.3529C148.065 16.6942 147.804 17.1209 147.63 17.5476C147.456 17.9742 147.369 18.4862 147.369 18.9129C147.369 19.4249 147.456 19.8515 147.63 20.3635C147.804 20.7902 148.065 21.2168 148.327 21.5582C148.588 21.8995 149.023 22.1555 149.459 22.3261C149.894 22.4968 150.33 22.5821 150.852 22.5821C151.2 22.5821 151.462 22.4968 151.81 22.4115C152.071 22.3261 152.419 22.1555 152.681 21.9848C152.942 21.8142 153.203 21.5582 153.464 21.3022C153.639 21.0462 153.813 20.7048 153.9 20.4488Z" fill="black"/>
<defs>
<linearGradient id="paint0_linear_1841_3419" x1="17.2336" y1="-3.91642e-07" x2="5.39673" y2="31.046" gradientUnits="userSpaceOnUse">
<stop stop-color="#7F54B3"/>
<stop offset="1" stop-color="#A080C6"/>
</linearGradient>
</defs>
</svg>
