<?xml version="1.0" encoding="utf-8"?>
<!-- Generator: Adobe Illustrator 24.0.0, SVG Export Plug-In . SVG Version: 6.00 Build 0)  -->
<svg version="1.1" id="Layer_2_1_" xmlns="http://www.w3.org/2000/svg" xmlns:xlink="http://www.w3.org/1999/xlink" x="0px" y="0px"
	 viewBox="0 0 400 300" style="enable-background:new 0 0 400 300;" xml:space="preserve">
<style type="text/css">
	.st0{fill:#80D2D0;}
	.st1{fill:#EFEEEC;}
	.st2{fill:#CC9272;}
	.st3{fill:#42210B;}
	.st4{fill:#E05E00;}
	.st5{fill:#1C5028;}
	.st6{fill:#EB773A;}
	.st7{fill:#FFAE46;}
	.st8{fill:#FAD374;}
	.st9{fill:#7F54B3;}
	.st10{opacity:0.61;fill:#363636;enable-background:new    ;}
	.st11{opacity:0.29;fill:#363636;enable-background:new    ;}
	.st12{opacity:0.61;fill:#606060;enable-background:new    ;}
	.st13{fill:#666666;}
	.st14{fill:#A5A5A5;}
	.st15{fill:#FFB92C;}
	.st16{fill:#E0E0E0;}
	.st17{fill:#FFFFFF;}
	.st18{fill:#CCCCCC;}
	.st19{fill-rule:evenodd;clip-rule:evenodd;fill:#7F54B3;}
	.st20{fill-rule:evenodd;clip-rule:evenodd;fill:#51555F;}
</style>
<ellipse class="st0" cx="196.5" cy="225.1" rx="140.1" ry="54.1"/>
<path class="st1" d="M125.5,201.2c0,0-11.2-14.8-21.2-10.4s-8.5,14.7-8.5,14.7c-6-1.4-12.2,1.3-15.3,6.6c-5.9,9.2,0,16.4,0,16.4
	h53.7"/>
<path class="st2" d="M250.9,164.3c-1.3,0.3-2.5,0.7-3.7,1.2c-1.2,0.6-6.6,0.6-7.1,0.5s-2.4-0.9-2.9-0.5c-0.4,0.6-0.7,1.3-0.9,2
	c0,0-2.9,0.2-3.5,1.9c0,0-0.4,1.8,3.1,4.7c0,0.1,0,0.1,0,0.2c0.5,0.5,1,1,1.5,1.5c1.2,0.2,2.4,0.1,3.6-0.4c1.5-0.6,5.4-1.2,7-2.4
	c1.9-1.5,3.4-3.4,4.5-5.5c0.3-0.8,0.2-1.8-0.4-2.4C251.8,164.7,251.4,164.4,250.9,164.3z"/>
<path class="st3" d="M236.5,167.1c0,0-3,0.5-3.6,2.3s2.6,4.3,2.6,4.3c1.4,0.9,3.2,1,4.6,0.2c2.9-1.3,3.5-0.1,6.7-2.2
	s5.1-5.6,4.7-6.9s-2.6-0.1-2.8-0.1s-3.9,1.2-5.2,1.1s-3.5-0.2-4.4-0.4s-1.7-0.6-2.2,0.2C236.7,166.1,236.5,166.6,236.5,167.1z"/>
<path class="st4" d="M245.3,165.6L245.3,165.6c-0.4,0.3-0.8,0.6-1.1,1l-0.5-0.8h-0.5l0,0c-0.3,0.2-0.5,0.5-0.8,0.8l-0.2-0.6
	c0,0-0.1,0-0.1,0c-0.1,0-0.2,0-0.2,0c0,0-0.1,0-0.1,0.1c-0.3,0.3-0.7,0.5-1,0.8c-0.1-0.2-0.1-0.5-0.2-0.7c-0.1-0.3-0.6-0.1-0.5,0.2
	c0.1,0.3,0.2,0.6,0.3,0.9c-0.5,0.5-1,1.1-1.4,1.8c-0.1,0.3,0.3,0.5,0.5,0.2c0.3-0.6,0.7-1.1,1.1-1.5c0.2,0.4,0.4,0.8,0.6,1.2
	c0,0.3,0.4,0.4,0.5,0.1c0.1-0.5,0.3-0.9,0.6-1.3l0.3,0.7c0,0.1,0.1,0.2,0.1,0.3c0,0,0,0.1,0,0.1l0,0c0,0.1,0,0.3,0.1,0.3
	s0.3,0,0.3-0.1c0.3-0.5,0.6-1,0.9-1.5c0.2,0.4,0.4,0.8,0.6,1.1c0.1,0.1,0.3,0.1,0.4,0c0,0,0.1-0.1,0.1-0.1c0.1-0.9,0.3-1.8,0.5-2.6
	h0.1c0.1-0.1,0.1-0.3,0-0.4c0,0,0,0,0,0L245.3,165.6z M241.4,168.3c-0.2-0.3-0.3-0.7-0.5-1c0.3-0.3,0.6-0.5,0.9-0.8l0.2,0.6
	C241.8,167.5,241.5,167.9,241.4,168.3L241.4,168.3z M243,168.2c-0.1-0.2-0.2-0.4-0.3-0.5l-0.2-0.5c0.2-0.3,0.5-0.6,0.8-0.9l0.4,0.7
	C243.5,167.4,243.2,167.8,243,168.2L243,168.2z M244.8,167.7l-0.4-0.6c0.2-0.2,0.4-0.4,0.6-0.6C245,166.9,244.9,167.3,244.8,167.7
	L244.8,167.7z"/>
<path class="st5" d="M189.1,150.5c0,0,1.4,6.5,6.3,9c4.6,2.4,18.1-2.2,19.8-2.1s17,13.8,17,13.8c4.4-1.1,6.2-6.1,6.2-6.1
	s-13.3-18.7-18.3-20.2s-27-3.8-28.3-4.3"/>
<path class="st6" d="M142.7,187.7c0,0-30.6,15.7-38.4,54.1c0,0,29.4,6.7,69.4-25.3"/>
<path class="st7" d="M142.2,192.6c0,0-13.1,11.4-16.9,19.5s-8.7,20-8.7,20s22.7,2.3,44.3-10.5S162.6,184.1,142.2,192.6z"/>
<path class="st8" d="M155.1,188.7c-0.8,1.3-14.2,8.6-16.9,19.4l4.4-3.2c0,0-7.6,10.2-10.8,16.1c0,0,18.1-6.9,17.6-6.4l-5.1,3.8
	c0,0,13.7-0.1,23.1-8.2s-3.1-22.9-3.1-22.9L155.1,188.7z"/>
<path class="st9" d="M195.3,189.3c0,0-2.6,15.2-7.7,18.9S166,224,166,224l-2.6-3.6c0,0,11.6-19.9,13.7-28.7S195.3,189.3,195.3,189.3
	z"/>
<path class="st10" d="M195.3,189.3c0,0-2.6,15.2-7.7,18.9S166,224,166,224l-2.6-3.6c0,0,11.6-19.9,13.7-28.7
	S195.3,189.3,195.3,189.3z"/>
<path class="st9" d="M179.4,167.6c0,0-15.3-2.1-20.4,1.6S137.4,185,137.4,185l2.6,3.6c0,0,22.5-5,31.5-4.4S179.4,167.6,179.4,167.6z
	"/>
<path class="st10" d="M179.4,167.6c0,0-15.3-2.1-20.4,1.6S137.4,185,137.4,185l2.6,3.6c0,0,22.5-5,31.5-4.4S179.4,167.6,179.4,167.6
	z"/>
<path class="st9" d="M253.4,143.2c4.2-6.3,7.5-13,10.1-20.1c0,0-8.9,0-22.3,3.7C242.1,133.6,247.5,139.1,253.4,143.2z"/>
<ellipse transform="matrix(0.8071 -0.5905 0.5905 0.8071 -54.5612 155.5869)" class="st9" cx="210.8" cy="161.3" rx="9.6" ry="10.9"/>
<path class="st9" d="M294.9,99.7c0,0-84.1,19.4-127.8,80.4c0,0-10.2,10.5-5.4,16.5s20.9,1.6,20.9,1.6S235.8,184.1,294.9,99.7z"/>
<path class="st9" d="M167.2,180.1c0,0-10.5-1.5-14,1.1s-14.9,10.9-14.9,10.9l1.8,2.5c0,0,15.5-3.5,21.7-3S167.2,180.1,167.2,180.1z"
	/>
<path class="st9" d="M179.6,197.1c0,0-1.8,10.5-5.3,13S159.4,221,159.4,221l-1.8-2.5c0,0,8-13.7,9.5-19.8S179.6,197.1,179.6,197.1z"
	/>
<path class="st11" d="M167.2,180.1c0,0-10.5-1.5-14,1.1s-14.9,10.9-14.9,10.9l1.8,2.5c0,0,15.5-3.5,21.7-3S167.2,180.1,167.2,180.1z
	"/>
<path class="st11" d="M179.6,197.1c0,0-1.8,10.5-5.3,13S159.4,221,159.4,221l-1.8-2.5c0,0,8-13.7,9.5-19.8S179.6,197.1,179.6,197.1z
	"/>
<path class="st9" d="M254,114.1c0,0-0.5,14.2,14.4,19.7l-8.9,9.7c0,0-18.7-10.9-15.5-24.8L254,114.1z"/>
<path class="st9" d="M199.6,146c0,0-0.2,24,22,31.2l-16.8,11.1c0,0-23.9-8.7-19-30L199.6,146z"/>
<circle class="st9" cx="238.1" cy="140.5" r="3.4"/>
<circle class="st9" cx="222.1" cy="152.2" r="8.8"/>
<path class="st12" d="M254,114.1c0,0-0.5,14.2,14.4,19.7l-8.9,9.7c0,0-18.7-10.9-15.5-24.8L254,114.1z"/>
<path class="st12" d="M199.6,146c0,0-0.2,24,22,31.2l-16.8,11.1c0,0-23.9-8.7-19-30L199.6,146z"/>
<circle class="st12" cx="238.1" cy="140.5" r="3.4"/>
<circle class="st12" cx="222.1" cy="152.2" r="8.8"/>
<path class="st5" d="M199.1,116.8c0,0,17.7,17.2,17.1,17.6s-7.7,6.1-7.7,6.1l-12.5-11.9"/>
<path class="st2" d="M241.1,181.2c-1.3,0-2.7,0.1-4,0.4c-1.3,0.3-6.8-0.9-7.2-1s-2.2-1.4-2.8-1.1s-1.3,1.8-1.3,1.8s-2.9-0.4-3.9,1.2
	c0,0-0.8,1.7,2.1,5.4c0,0.1,0,0.1-0.1,0.2c0.4,0.6,0.8,1.3,1.2,1.9c1.2,0.5,2.4,0.6,3.7,0.4c1.6-0.3,5.7,0,7.6-0.8
	c2.2-1.1,4.2-2.7,5.7-4.6c0.5-0.8,0.5-1.7,0.1-2.5C242,181.8,241.6,181.4,241.1,181.2z"/>
<path class="st3" d="M226.1,180.8c0,0-3.1-0.1-4.1,1.6s1.7,4.9,1.7,4.9c1.2,1.2,3,1.7,4.6,1.3c3.1-0.6,3.5,0.6,7.3-0.7
	s6.4-4.5,6.3-5.9s-2.6-0.7-2.8-0.7s-4.2,0.4-5.4,0s-3.4-1-4.4-1.4s-1.6-0.9-2.2-0.3C226.5,179.8,226.2,180.3,226.1,180.8z"/>
<path class="st4" d="M235.2,181.2L235.2,181.2c-0.5,0.2-0.9,0.5-1.3,0.8l-0.3-0.9c-0.2,0-0.4-0.1-0.5-0.1l0,0
	c-0.4,0.2-0.7,0.4-1,0.6c0-0.2-0.1-0.4-0.1-0.7c0-0.1,0-0.1-0.1-0.1c-0.1-0.1-0.1-0.1-0.2-0.1c0,0-0.1,0-0.1,0.1
	c-0.4,0.2-0.8,0.4-1.2,0.6c0-0.3,0-0.5,0-0.8c0-0.3-0.5-0.3-0.5,0.1c0,0.3,0,0.7,0.1,1c-0.7,0.4-1.3,0.9-1.8,1.5
	c-0.2,0.3,0.2,0.6,0.4,0.3c0.4-0.5,0.9-0.9,1.4-1.3c0.1,0.5,0.2,0.9,0.4,1.4c-0.1,0.3,0.3,0.4,0.5,0.2c0.2-0.4,0.5-0.8,0.9-1.2
	c0,0.3,0.1,0.5,0.1,0.8c0,0.1,0,0.2,0.1,0.4c0,0,0,0.1,0,0.1l0,0c-0.1,0.1,0,0.3,0.1,0.4c0.1,0.1,0.3,0,0.3-0.1
	c0.4-0.5,0.8-0.9,1.2-1.3c0.1,0.4,0.3,0.8,0.4,1.3c0.1,0.1,0.2,0.2,0.3,0.1c0.1,0,0.1-0.1,0.1-0.1c0.3-0.9,0.7-1.7,1.1-2.5h0.1
	c0.1-0.1,0.2-0.2,0.1-0.3c0,0,0,0,0,0L235.2,181.2z M230.7,183.1c-0.1-0.4-0.2-0.7-0.3-1.1c0.3-0.2,0.7-0.4,1.1-0.6
	c0,0.2,0,0.4,0.1,0.6C231.3,182.3,231,182.7,230.7,183.1L230.7,183.1z M232.4,183.3c-0.1-0.2-0.1-0.4-0.1-0.6s-0.1-0.4-0.1-0.6
	c0.3-0.3,0.6-0.5,1-0.7l0.3,0.8C233.1,182.6,232.7,183,232.4,183.3L232.4,183.3z M234.3,183.2l-0.2-0.7c0.2-0.2,0.5-0.3,0.7-0.5
	C234.6,182.4,234.5,182.8,234.3,183.2L234.3,183.2z"/>
<path class="st13" d="M181.6,152.5c0,0,0,7,4.4,10.7c4.2,3.5,19.1,1.8,20.8,2.3s14.4,18,14.4,18c4.7-0.1,7.8-4.8,7.8-4.8
	s-9.4-22.2-14.2-25s-26.9-10.1-28.1-10.8"/>
<path class="st5" d="M192,151.9c2-0.4,3.9-1,5.8-1.7c0.4-0.2,2.9-1,3-1.4c0-0.3,0-4.6,0.1-5c0.5-5.6,0-11.1,0.2-16.7
	c0.1-2.9,0.7-8.2-1.8-10.3c-1.9-1.5-6.2-0.8-7.9-0.1c-1,0.4-2,1-2.8,1.6c-3.1,2.2-4.6,6.4-5.6,10c-1.4,5.8-0.8,18.2-1.2,24.1
	c0,0.4,2.7,0.5,3,0.4C187.1,152.7,189.6,152.4,192,151.9z"/>
<path class="st14" d="M184.2,168.2c-0.5-2.2-2.4-3.9-4.6-4c-4-0.2-1.9,5.8-1.9,5.8l-2-0.1c0,0-3.2-6.1,3.2-7.7s7.8,5.9,7.8,5.9
	L184.2,168.2z"/>
<path class="st15" d="M176.4,160.9v-0.2c0-0.1-0.1-0.1-0.1-0.2l-1-5.6c0-0.2,0-0.3,0.2-0.4c-0.1-0.3-0.1-0.7-0.2-1
	c0.3-0.6,0.9-0.9,1.5-0.8c0.2-0.4,0.7-0.6,1-0.1s0.6,1.1,0.8,1.7l0,0v-0.2c0-0.1,0-0.3,0.1-0.4c0-0.5-0.1-1-0.1-1.4
	c-0.1-0.7,1-0.8,1.1-0.1c0,0.2,0,0.5,0.1,0.7c0.3-0.2,0.9-0.1,0.9,0.4c-0.1,1.8,0.1,3.5,0.5,5.3c0.6,0.9,1.1,1.9,1.6,2.9
	c0.3,0.6,0.7,1.4,0,1.9c-0.3,0.2-0.6,0.1-0.8-0.1c-0.4-0.7-0.7-1.3-1.1-2c0,0.3,0,0.6,0,0.9c0,0.6,0,1.2,0,1.8
	c0,0.3-0.1,0.6-0.5,0.8c-0.2,0.1-0.4,0.1-0.6-0.1c0,0.3-0.3,0.6-0.7,0.6c-0.5,0-0.8-0.4-0.9-0.9C176.6,164,176.6,162.1,176.4,160.9z
	"/>
<path class="st16" d="M169.3,170.2c5.1-1,18.7-4,23.9-5.2c1.1-0.2,2.2,0.5,2.5,1.6l3.3,15c0.3,1.1-0.5,2.2-1.6,2.5c0,0-0.1,0-0.1,0
	l-25.4,4.6c-1.1,0.2-2.2-0.5-2.4-1.7c0,0,0-0.1,0-0.1l-1.9-14.4C167.5,171.5,168.2,170.4,169.3,170.2z"/>
<path class="st5" d="M191.2,116.7c0,0-10.1,0.6-13.1,7.1s-9.2,13-7.9,21.2c0.6,4.6,2,9.1,3.9,13.4l7.8-2.5c0,0-3.5-12.8-2.7-14.5
	S186,131,186,131"/>
<path class="st17" d="M182.5,119.3c0,0,3.2,4.5,8.7,4.3s6-3.7,5.5-5.1c-0.5-1-1.2-1.9-2.1-2.7C194.6,115.9,187.4,115.9,182.5,119.3z
	"/>
<path class="st5" d="M188.9,108.1l-0.6,0.1c-0.2,0-0.4,0.2-0.3,0.4c0,0.2,0.2,0.4,0.4,0.3l0.6-0.1c0.2,0,0.4-0.2,0.3-0.4
	C189.3,108.2,189.1,108.1,188.9,108.1L188.9,108.1z"/>
<path class="st5" d="M194.9,110.7c-1.4,1.7-3.7,2.5-5.9,2.1c-0.5-0.1-0.6,0.7-0.1,0.8c2.5,0.5,5-0.4,6.6-2.4
	C195.8,110.8,195.2,110.3,194.9,110.7z"/>
<path class="st15" d="M196.9,105.3c0,0,0.6,9.7-1.7,10.5c-2.1,0.7-4.5,0.2-6.2-1.2c-1-1.1-3.6-6.9-2.9-8.1S195.4,103.7,196.9,105.3z
	"/>
<path class="st15" d="M188.3,113.3l0.3,4.8c0,0,1.6,1,5.6-1l0.2-2.8"/>
<path d="M198.1,101.7c-0.6-0.1-1.2-0.1-1.7,0c-0.3-0.8-0.9-1.5-1.6-1.9c-1.3-0.7-2.9-0.6-4.2,0.2c-0.2,0.2-0.4,0.3-0.6,0.5
	c-0.8-0.6-1.9-0.8-2.9-0.5c-1.1,0.3-2,1.2-2.3,2.3c-0.1,0.3-0.1,0.6,0,0.9c-1.2,0.2-2.1,1.2-2.3,2.3c-0.2,0.9,0.1,1.8,0.7,2.4
	c-0.6,0.8-0.7,1.8-0.2,2.7c0.5,0.9,1.4,1.4,2.5,1.4c-0.1,0.5-0.1,1,0.1,1.4c0.7,1.1,2.1,1.3,3.4,1.5c0-0.6-0.1-1.2-0.1-1.8
	c0-0.1,0-0.1,0-0.2c-0.5-0.3-0.9-0.7-1.3-1.2c-0.5-0.6-0.9-1.5-0.3-2.2c0.5-0.6,1.4-0.6,2-0.1c0.1,0.1,0.1,0.2,0.2,0.2
	c0.1-0.3,0.2-0.7,0.4-1l0,0c0.4-1.6,2-2,3.5-2.2c2.4,0.9,5.9,1.3,6.4-1.7C200.2,103.5,199.4,102.1,198.1,101.7z"/>
<path d="M190,108.9c0,0,0,2.9,0.7,3.3c1.1,0.4,2.3,0.5,3.5,0.2c1.2-0.2,2.3-0.3,2.7-0.4c0,0-0.4,3.1-1.2,4s-3.5,0.4-4.2,0.1
	s-2-2.9-2-2.9l-0.5-4.2L190,108.9z"/>
<path class="st18" d="M188.4,115.4l-1.2,1.4c-0.4,0.4-0.8,0.7-1.2,1c0,0,3.4,4,5.5,4.3l0.9-2.7l2.5,1.5c0.3-1.5,0.1-3-0.7-4.4
	c0,0-0.1,0.9-2,1.2S188.4,115.4,188.4,115.4z"/>
<path class="st1" d="M218.4,227.2c0,0.1,0,0.1,0,0.2h79.2c-0.1-0.7-0.2-1.3-0.4-1.9c-1.2-4-4.7-6.9-8.9-7.3
	c-0.1-5.1-1.4-10.1-5.5-12.5c-3.3-1.8-7.3-1.6-10.5,0.4l-0.1,0.1c-0.6-2.6-1.5-5.2-2.7-7.6c-1.4-2.9-5.5-3.6-8.1-2.1
	c-3.2,1.9-5.6,4.9-6.8,8.4c-1.7-4.8-4.9-9.6-10.3-10c-6.9-0.5-10.7,5.7-11.5,11.8c-0.3,2.7-0.3,5.4,0.2,8.1c-2.5-0.9-5.3-1-7.9-0.2
	c-5.3,1.3-8.4,6.7-7.1,12c0,0.1,0.1,0.2,0.1,0.3C218.2,226.8,218.3,227,218.4,227.2z"/>
<path class="st1" d="M142.3,256.6c0,0,0,0.1,0,0.2h79.2c-0.1-0.7-0.2-1.3-0.4-1.9c-1.2-4-4.7-6.9-8.9-7.3
	c-0.1-5.1-1.4-10.1-5.5-12.5c-3.3-1.8-7.3-1.6-10.5,0.4l-0.1,0.1c-0.6-2.6-1.5-5.2-2.7-7.6c-1.4-2.9-5.5-3.6-8.1-2.1
	c-3.2,1.9-5.6,4.9-6.8,8.4c-1.7-4.8-4.9-9.6-10.3-10c-6.9-0.5-10.7,5.7-11.5,11.8c-0.3,2.7-0.3,5.4,0.2,8.1c-2.5-0.9-5.3-1-7.9-0.2
	c-5.3,1.3-8.4,6.7-7.1,12c0,0.1,0.1,0.2,0.1,0.3C142.1,256.2,142.2,256.4,142.3,256.6z"/>
<path class="st1" d="M133.9,175.4c-0.5-2.4-2.5-4.1-4.9-4.2c0-0.2,0-0.5,0-0.7c0-1.6-1-3-2.5-3.7c-1.5-0.6-3.2-0.3-4.4,0.8
	c-0.9,0.7-1.6,1.7-2.1,2.7c-2.4-0.6-4.8,0.4-6.1,2.4c-1.1,1.9-0.5,4.4,1.4,5.5c0.5,0.3,1,0.5,1.5,0.8c-1.1,3.3-0.7,7,3,8
	c4.2,1.2,6.2-2.1,7.6-5.6c0.8,0,1.5-0.2,2.2-0.4C132.2,180.2,134.2,178.2,133.9,175.4z"/>
<path class="st1" d="M128.2,243c-0.3-0.1-0.7-0.2-1.1-0.3c0.3-1.4,0.3-2.8,0.1-4.2c-0.2-1.4-1.9-2.4-3.3-2.6c-1.6-0.2-3.1,0.5-4,1.7
	v0.1c-1.9-1.1-4.2-1.2-6.1-0.2c-2.2,1-3.2,3.6-2.2,5.9c0.1,0.2,0.2,0.5,0.4,0.7h-0.1c-1.3,0.7-2.1,2.1-1.9,3.6
	c0.3,1.5,1.4,2.7,2.9,3c0.7,0.2,1.5,0.3,2.3,0.4c0.6,2.5,2.2,4.7,5.2,4.7c3.3,0,4.5-2.2,4.7-4.8c1.9,0.1,3.7-0.6,5-1.9
	C132.1,246.9,131.1,244,128.2,243z"/>
<path class="st19" d="M171.6,179.6l-0.3-1.7l-0.6,0.1l0.3,1.7c0.1,0.8,0.7,1.2,1.5,1s1.2-0.7,1.1-1.5l-0.3-1.7l-0.6,0.1l0.3,1.7
	c0.1,0.5-0.1,0.8-0.6,0.9c-0.4,0.1-0.8-0.1-0.9-0.5C171.6,179.7,171.6,179.6,171.6,179.6z M175.4,177.9c-0.3,0-0.6,0.3-0.7,0.6
	l-0.1-0.4l-0.5,0.1l0.4,2.2l0.5-0.1l-0.2-1.1c-0.1-0.4,0.1-0.7,0.5-0.7c0.3-0.1,0.5,0.1,0.6,0.3c0,0,0,0.1,0,0.1l0.2,1.2l0.5-0.1
	l-0.3-1.4C176.3,178,176,177.8,175.4,177.9L175.4,177.9z M178.4,177.3l0.2,1.1c0.1,0.4-0.1,0.7-0.4,0.7c-0.2,0.1-0.5-0.1-0.6-0.3
	c0,0,0-0.1,0-0.1l-0.2-1.2l-0.6,0.1l0.3,1.4c0.1,0.5,0.5,0.8,1,0.7c0.3,0,0.6-0.3,0.7-0.6l0.1,0.4l0.5-0.1l-0.4-2.2L178.4,177.3z
	 M181.1,177.5l0.1-0.4c-0.3-0.1-0.6-0.1-0.9-0.1c-0.5,0.1-0.8,0.4-0.7,0.8c0.1,0.8,1.3,0.4,1.3,0.8c0,0.1-0.1,0.2-0.3,0.3
	c-0.3,0-0.6,0-0.8-0.1l-0.1,0.4c0.3,0.2,0.6,0.2,1,0.2c0.5-0.1,0.8-0.4,0.8-0.8c-0.1-0.8-1.3-0.4-1.4-0.8c0-0.1,0.1-0.2,0.3-0.2
	C180.6,177.4,180.8,177.4,181.1,177.5z M182.6,176.6c-0.6,0.1-1,0.6-1,1.2c0,0,0,0.1,0,0.1c0.1,0.7,0.7,1,1.4,0.9
	c0.4-0.1,0.7-0.3,0.9-0.6l-0.3-0.2c-0.1,0.2-0.3,0.3-0.6,0.4c-0.3,0.1-0.6-0.1-0.7-0.4l1.7-0.3C183.8,176.9,183.4,176.5,182.6,176.6
	L182.6,176.6z M182.1,177.6c0-0.3,0.2-0.6,0.5-0.6c0.3-0.1,0.6,0.1,0.7,0.4c0,0,0,0,0,0.1L182.1,177.6z M185.6,175.2l0.2,1.2
	c-0.2-0.2-0.5-0.3-0.8-0.2c-0.6,0.1-1,0.6-0.8,1.3c0.1,0.7,0.6,1.1,1.3,1c0.3,0,0.6-0.2,0.7-0.5l0.1,0.4l0.5-0.1l-0.6-3.1
	L185.6,175.2z M185.4,178c-0.4,0.1-0.7-0.2-0.8-0.6c-0.1-0.3,0.1-0.7,0.5-0.8c0,0,0,0,0,0c0.4-0.1,0.7,0.2,0.7,0.5c0,0,0,0,0,0
	C186,177.5,185.8,177.9,185.4,178C185.4,177.9,185.4,178,185.4,178L185.4,178z"/>
<path class="st20" d="M189.1,175.6l0.3-0.5c-0.4-0.2-0.8-0.3-1.2-0.3c-0.9,0.2-1.4,0.9-1.3,1.7c0.1,0.8,0.9,1.4,1.7,1.2c0,0,0,0,0,0
	c0.4-0.1,0.8-0.3,1.1-0.7l-0.4-0.3c-0.2,0.2-0.4,0.4-0.7,0.5c-0.5,0.1-1.1-0.2-1.2-0.8c-0.1-0.5,0.2-1.1,0.8-1.2c0,0,0.1,0,0.1,0
	C188.6,175.3,188.9,175.4,189.1,175.6L189.1,175.6z M191.7,175l0.1-0.5c-0.4-0.1-0.7-0.2-1.1-0.1c-0.7,0.1-1,0.5-0.9,1
	c0.2,1,1.7,0.4,1.8,1c0,0.2-0.1,0.4-0.4,0.4c-0.4,0-0.8,0-1.1-0.2l-0.1,0.5c0.4,0.2,0.9,0.3,1.3,0.2c0.6-0.1,1.1-0.5,1-1.1
	c-0.2-1-1.7-0.4-1.8-1c0-0.2,0.1-0.3,0.4-0.4C191.1,174.9,191.4,174.9,191.7,175L191.7,175z M194.4,174.6l0.1-0.5
	c-0.4-0.1-0.7-0.2-1.1-0.1c-0.7,0.1-1,0.5-0.9,1c0.2,1,1.7,0.4,1.8,1c0,0.2-0.1,0.4-0.4,0.4c-0.4,0-0.8,0-1.1-0.2l-0.1,0.5
	c0.4,0.2,0.9,0.3,1.3,0.2c0.6-0.1,1.1-0.5,1-1.1c-0.2-1-1.7-0.4-1.8-1c0-0.2,0.1-0.3,0.4-0.4C193.7,174.4,194.1,174.5,194.4,174.6
	L194.4,174.6z"/>
</svg>
