<?xml version="1.0" encoding="utf-8"?>
<!-- Generator: Adobe Illustrator 24.0.0, SVG Export Plug-In . SVG Version: 6.00 Build 0)  -->
<svg version="1.1" id="Layer_1" xmlns="http://www.w3.org/2000/svg" xmlns:xlink="http://www.w3.org/1999/xlink" x="0px" y="0px"
	 viewBox="0 0 400 300" style="enable-background:new 0 0 400 300;" xml:space="preserve">
<style type="text/css">
	.st0{opacity:0.3;fill:#E6E6E6;enable-background:new    ;}
	.st1{fill:#F4A28C;}
	.st2{opacity:0.45;fill:#E6E6E6;enable-background:new    ;}
	.st3{fill:#009688;}
	.st4{opacity:0.39;fill:#FFFFFF;enable-background:new    ;}
	.st5{opacity:0.31;fill:#CE8172;enable-background:new    ;}
	.st6{fill:#32234F;}
	.st7{opacity:8.000000e-02;enable-background:new    ;}
	.st8{fill:#FFD200;}
	.st9{fill:#E6E6E6;}
	.st10{fill:#A5A5A5;}
	.st11{fill:#7F54B3;}
	.st12{fill-rule:evenodd;clip-rule:evenodd;fill:#FBFAFF;}
</style>
<path class="st0" d="M97.4,53.8c-34.8,11.9-60.6,42-65.7,78.3c-4.3,30.7,6,64.6,66.2,74.2c117.3,18.8,227.1,24.1,255.2-26.5
	S372.5,42.3,313,36.7C265.7,32.2,165.3,30.6,97.4,53.8z"/>
<path class="st1" d="M128.7,87.3c1,2.5,1.6,5.1,1.9,7.8c0,1.3-1,2.5-2.3,2.5c-2.1,0.2-4.1-0.8-5.2-2.7l-2.6-3.6
	c-0.9-1.6-0.7-3.6,0.5-5C123.1,83.7,127.8,84.5,128.7,87.3z"/>
<ellipse class="st2" cx="203.5" cy="257.5" rx="148" ry="11.6"/>
<path class="st3" d="M99.3,251.3c0,0-1.3,3.6-4.5,3.8s-4.1,3.4-1.2,4.2s10.3-2.9,10.3-2.9l-0.2-4.6L99.3,251.3z"/>
<path class="st3" d="M143.6,251.3c0,0,1.3,3.6,4.5,3.8s4.1,3.4,1.2,4.2s-10.4-2.9-10.4-2.9l0.2-4.6L143.6,251.3z"/>
<path class="st3" d="M147.7,108.6c0,0,23,4.6,21.1,26.1s19,33.2,6.2,45.6s-29.9,5.4-29.9,5.4L147.7,108.6z"/>
<path class="st4" d="M147.7,108.6c0,0,23,4.6,21.1,26.1s19,33.2,6.2,45.6s-29.9,5.4-29.9,5.4L147.7,108.6z"/>
<polygon class="st1" points="121.7,92.2 121.9,108 130.6,107.3 127,96.1 "/>
<path class="st1" d="M129.7,90.2l1.8,1.4c0.3,0.3,0.4,0.7,0.1,1.1c-0.1,0.1-0.2,0.2-0.3,0.2l-1.7,0.8L129.7,90.2z"/>
<path class="st5" d="M127.4,97.6c-1.2-0.1-2.5-0.5-3.5-1.1c0,0,0.5,3.1,4.6,4.4L127.4,97.6z"/>
<path class="st3" d="M138.3,106.5c-14.3,0.3-28.5,3.3-41.7,8.9c-8.2,3.5-12,12.9-8.6,21.1c0.1,0.3,0.3,0.6,0.4,0.9l22.7,45.3
	l42.1-2.5c0,0,7.7-25.4,6.1-54.2C158.8,114.9,149.5,106.3,138.3,106.5z"/>
<path class="st6" d="M111.2,182.7l-12.6,69.2h6.3l15.8-37.6c5.6-13.3,15.4-24.4,28-31.5l4.6-2.6L111.2,182.7z"/>
<path class="st7" d="M107.7,121.4c0,0,9.9,7.3,8,20.5s-3.9,23.3,8.2,20.2s18.6-31.1,18.6-31.1l14.1,0.4l-2.4,31.4l-8.2,0.6
	c-4,0.3-7.3,3.2-8.1,7.1l-2.2,10.9l-24.6,1.4l-3.5-5.2l-15.3-16.7l-1.9-26.5L107.7,121.4z"/>
	<rect x="120.6" y="126.9" transform="matrix(6.784037e-02 -0.9977 0.9977 6.784037e-02 -10.3798 270.0355)" class="st8"
		  width="37.4" height="27.3"/>
<path class="st6" d="M153.3,180.2l-6.5,71.7h-8.4c0,0,1.9-54-13.1-65.5L153.3,180.2z"/>
<path class="st3" d="M108.7,125.5c-0.2-5.7-4.9-10.1-10.6-10c-3.1,0.1-5.9,1.5-7.8,4c-4.8,6.2-9.3,16.4-8.9,33.3
	c0.8,36,21.9,45.7,54.6,6.3l-6.4-5c0,0-12.9,10.9-24.6,11.1C96.2,165.3,109.3,142.7,108.7,125.5z"/>
<path class="st4" d="M108.7,125.5c-0.2-5.7-4.9-10.1-10.6-10c-3.1,0.1-5.9,1.5-7.8,4c-4.8,6.2-9.3,16.4-8.9,33.3
	c0.8,36,21.9,45.7,54.6,6.3l-6.4-5c0,0-12.9,10.9-24.6,11.1C96.2,165.3,109.3,142.7,108.7,125.5z"/>
<path class="st7" d="M153,139.9c0,0-9.4,17.3-28.2,12.4l-0.4,6l27.3,1.9L153,139.9z"/>
<path class="st1" d="M130.8,155c0,0,3.8-6.8,8.5-5s-3.3,9.1-3.3,9.1L130.8,155z"/>
<path class="st6" d="M123.5,92.1c0.3,0.8,1.2,1.3,2,1.1c1.8-0.5,3.6-0.3,5.2,0.6c2.8,1.8,0.3,5.9-2.9,5.1s-7.9-6-7.9-6
	s-3.2-4.4-2.5-7.2s7.8-7.1,11-2.3c2.1,3.1-1,4.7-3.4,5.4C123.7,89.2,123,90.6,123.5,92.1C123.4,92,123.4,92.1,123.5,92.1L123.5,92.1
	z"/>
<path class="st1" d="M125,91.4c0,0-0.6-1.8-1.9-1.2s-0.5,3.1,1.4,2.8L125,91.4z"/>
<rect x="215.2" y="187.9" class="st9" width="81.1" height="69.5"/>
<polygon class="st3" points="263.8,102.6 304.7,69.3 281.9,116.6 "/>
<polygon class="st4" points="263.8,102.6 304.7,69.3 281.9,116.6 "/>
<rect x="207.2" y="171.6" class="st10" width="96" height="16.3"/>
<path class="st6" d="M253.3,142.9c25.8,17.5,59.1,13.5,74.3-8.9c0.7-1,1.3-2.1,2-3.2l-93.1-63.3c-0.8,1-1.5,1.9-2.2,3
	C219,93,227.5,125.4,253.3,142.9z"/>
<path class="st3" d="M236.4,171.6l18.3-37.9c1.8-3.7,6.3-5.3,10-3.5c2.4,1.2,4,3.5,4.2,6.2l2.7,35.2H236.4z"/>
<ellipse class="st7" cx="260.3" cy="140.9" rx="4.6" ry="4.6"/>
<circle class="st3" cx="305.8" cy="69.8" r="7.2"/>
	<rect x="47.3" y="47" class="st11" width="38.6" height="38.6"/>
	<g>
	<path class="st12" d="M76.6,63.3l-0.2,0.1c0.3,1,0.5,2,0.5,3c0,5.5-4.5,10-10,10c0,0,0,0,0,0c-0.2,0-0.4,0-0.5,0v1.9
		c6.3-0.4,11.2-5.8,10.8-12.1C77.1,65.2,76.9,64.3,76.6,63.3z"/>
		<path class="st12" d="M58.4,72.1l-2.2,1.3c2.1,3,5.4,4.8,9,5v-2.1C62.4,75.8,60,74.6,58.4,72.1z"/>
		<path class="st12" d="M58.1,63.5l-2.9-1.7c-1.5,3.5-1.3,7.4,0.5,10.7l2.3-1.3C56.8,68.7,56.9,65.9,58.1,63.5z"/>
		<path class="st12" d="M65.2,58.8v-4.5c-4.1,0.5-7.7,2.9-9.6,6.6l3,1.7C60.2,60.3,62.6,58.9,65.2,58.8z"/>
		<path class="st12" d="M76.6,59c-2.4-3.2-6.3-5-10.3-4.9v4.6c2.1,0.1,4.2,1,5.7,2.5L76.6,59z"/>
		<path class="st12" d="M67.9,67.3C67.9,67.2,67.9,67.2,67.9,67.3l4.9-3.3l6.2-4.2l-6.8,3.3l-5.3,2.6c-0.3-0.2-0.7-0.3-1.1-0.3v0
		c0,0,0,0,0,0c-1.1,0-2.1,0.9-2.1,2.1c0,0,0,0,0,0c0,1.2,0.9,2.1,2.1,2.1C66.9,69.3,67.9,68.4,67.9,67.3z"/>
</g>
</svg>
