<?xml version="1.0" encoding="utf-8"?>
<!-- Generator: Adobe Illustrator 24.0.0, SVG Export Plug-In . SVG Version: 6.00 Build 0)  -->
<svg version="1.1" id="Layer_1" xmlns="http://www.w3.org/2000/svg" xmlns:xlink="http://www.w3.org/1999/xlink" x="0px" y="0px"
	 viewBox="0 0 400 300" style="enable-background:new 0 0 400 300;" xml:space="preserve">
<style type="text/css">
	.st0{fill:#009688;}
	.st1{opacity:0.2;fill:#FFFFFF;enable-background:new    ;}
	.st2{opacity:0.27;fill:#C9C9C9;enable-background:new    ;}
	.st3{fill:#C9C9C9;}
	.st4{opacity:0.45;fill:#E6E6E6;enable-background:new    ;}
	.st5{fill:#E6E6E6;}
	.st6{fill:#A5A5A5;}
	.st7{opacity:0.4;fill:#A5A5A5;enable-background:new    ;}
	.st8{fill:#32234F;}
	.st9{fill:#FFD200;}
	.st10{opacity:8.000000e-02;enable-background:new    ;}
	.st11{fill:#F4A28C;}
	.st12{fill:#24285B;}
	.st13{opacity:0.31;fill:#CE8172;enable-background:new    ;}
	
		.st14{opacity:0.12;fill:none;stroke:#000000;stroke-width:2;stroke-linecap:round;stroke-linejoin:round;stroke-dasharray:2,10;enable-background:new    ;}
	.st15{opacity:0.58;fill:#009688;enable-background:new    ;}
	.st16{opacity:0.73;fill:#009688;enable-background:new    ;}
	.st17{fill:none;stroke:#FFFFFF;stroke-width:5;stroke-linecap:round;stroke-linejoin:round;}
	.st18{fill:#0A3851;}
	.st19{fill:#77C116;}
</style>
<title>#139_authentication_twocolour</title>
<path class="st0" d="M85.6,131.2c0,0-10.3,9.4-5.9,26.4c3,11.6,12.2,42.1-20.8,41.3l0.8,7.5c0,0,33.1,4.3,38.3-23.8
	C104,150.7,85.6,131.2,85.6,131.2z"/>
<path class="st1" d="M85.6,131.2c0,0-10.3,9.4-5.9,26.4c3,11.6,12.2,42.1-20.8,41.3l0.8,7.5c0,0,33.1,4.3,38.3-23.8
	C104,150.7,85.6,131.2,85.6,131.2z"/>
<rect x="101.4" y="69.6" class="st2" width="213.1" height="138.4"/>
<polygon class="st3" points="191.8,192.2 183.7,243.6 237.7,243.6 225.3,192.2 "/>
<ellipse class="st4" cx="209.4" cy="254.1" rx="136.9" ry="8"/>
<rect x="101.4" y="176.4" class="st5" width="213.1" height="31.6"/>
<circle class="st6" cx="209.1" cy="190.3" r="8.6"/>
<rect x="171.4" y="234.6" class="st5" width="75.9" height="16.5"/>
<path class="st7" d="M101.4,102c0,0,8.6-5.1,10.9,4.1s4.1,19.5,12.2,21.9s-20.4-7.7-20.4-7.7L101.4,102z"/>
<circle class="st8" cx="118.7" cy="83.4" r="3.7"/>
<circle class="st0" cx="129.8" cy="83.4" r="3.7"/>
<circle class="st9" cx="140.3" cy="83.4" r="3.7"/>
<path class="st0" d="M90.6,247.7c0,0-1.9,2.7-4.6,2.2s-4.2,1.9-1.9,3.3s9.3-0.1,9.3-0.1l0.9-3.9L90.6,247.7z"/>
<path class="st7" d="M139.1,131.2c0,0,10.1,0.1,13.2,20.8s6.9,55.1-27.8,55.5l0,0v-24.6L139.1,131.2z"/>
<path class="st0" d="M109.6,120.4c0,0,28.4,0,31.7,15.7S126.5,199,126.5,199l-32-1.4c0,0,1.3-17.5-3.5-31.7S68.2,126.3,109.6,120.4z
	"/>
<path class="st10" d="M124.6,138.1c0,0-9,9.1-4.5,23.4s-26.7,14-26.7,14c0.5,3,0.8,6,1,9.1c0,0,13.6,10.2,34.6,7.6l1.3-3.6l5.4-13.2
	L124.6,138.1z"/>
<path class="st11" d="M90.3,104.7c0,0,1.9,5.8,4.4,9.1c1,1.3,2.9,1.6,4.3,0.6c0,0,0,0,0,0c2.2-1.5,3.3-4.1,2.9-6.7l-0.4-5.6
	c-0.4-2.3-2.2-4-4.5-4.4C92.8,96.7,89,101.2,90.3,104.7z"/>
<polygon class="st11" points="102.6,105.1 109.6,120.4 100.6,127.1 98.8,112.7 "/>
<path class="st12" d="M91.8,104.3c1.8-0.7,3.4-1.5,5-2.6c-0.4,2,0.5,4,2.2,5.1c1.6,1.1,3.8,0.9,5.2-0.4l-3.2-7.1
	c-0.8-2.1-2.8-3.6-5-3.8c-1-0.1-1.9-0.2-2.9-0.2c-2.4,0-4.9,2.7-7.3,2.1c-0.8-0.2-1.6,0.3-1.8,1c-0.1,0.2-0.1,0.5,0,0.8
	c0.6,2.3,2.5,5.6,5.9,5.5C90.6,104.7,91.2,104.6,91.8,104.3z"/>
<path class="st11" d="M98.3,107c0,0-0.9-2.2,0.8-2.7s3,2.6,0.9,3.8L98.3,107z"/>
<path class="st11" d="M91.7,108.3l-0.7,2.8c-0.1,0.5,0.3,1.1,0.8,1.2c0.1,0,0.2,0,0.3,0l2.3-0.5L91.7,108.3z"/>
<path class="st13" d="M99,114.3c0,0,2.1-2.8,2.1-4.7c1.6,3.3,1,7.2-1.4,9.9L99,114.3z"/>
<path class="st0" d="M127.2,133.2c3-3.4,8.1-3.7,11.4-0.7c0.9,0.8,1.6,1.8,2.1,2.9c3.8,9,8.2,25,1.7,42.4
	c-10,26.6-49.6-2.8-49.6-2.8l6-6.5c0,0,20.8,9.9,29.1,4.7C134.7,169,116.9,145.1,127.2,133.2z"/>
<path class="st1" d="M127.2,133.2c3-3.4,8.1-3.7,11.4-0.7c0.9,0.8,1.6,1.8,2.1,2.9c3.8,9,8.2,25,1.7,42.4
	c-10,26.6-49.6-2.8-49.6-2.8l6-6.5c0,0,20.8,9.9,29.1,4.7C134.7,169,116.9,145.1,127.2,133.2z"/>
<path class="st11" d="M93.6,174.1c0,0-6.9-1.4-7.5-6.9s7.6,2.6,9.1,0s4.2-2.7,3.5,1.3L93.6,174.1z"/>
<path class="st0" d="M118.8,236.3c0,0,2.4,2.2,1.6,4.9s1.4,4.4,3,2.3s1.1-9.2,1.1-9.2l-3.8-1.4L118.8,236.3z"/>
<path class="st8" d="M94.2,249.1l-5.4-1.5l15.3-42.9l-6.2-7.1l28.5,1.3c-0.3,5.2-2.8,10.1-6.9,13.3c-2.7,2.1-5,4.4-7.1,7.1
	C105.4,228.6,99.3,238.6,94.2,249.1z"/>
<path class="st8" d="M94.5,197.6l-0.8,20.9c-0.2,4,2,7.6,5.6,9.3l20,9.6l2-4.8l-11.6-8.4c-3.1-2.2-4.4-6.2-3.2-9.8l5.3-16
	L94.5,197.6z"/>
<path class="st11" d="M59.5,204.8c0,0-10,0.3-9.5-5.9s8.8-0.1,8.8-0.1L59.5,204.8z"/>
<rect x="47.8" y="184.3" transform="matrix(0.537 -0.8436 0.8436 0.537 -138.8492 134.7274)" class="st9" width="11.1" height="19.1"/>
<rect x="282.7" y="108" class="st7" width="31.7" height="17.2"/>
<path class="st14" d="M50,172.7c0,0-28.4-108.2,34-139.2c14.1-7,103.2-25,187.4,18.2"/>
<path class="st15" d="M322.3,241.5c0,0-8.5-2.3-10.4-10.3c0,0,13.2-2.7,13.6,11L322.3,241.5z"/>
<path class="st16" d="M323.4,240.7c0,0-6-9.4-0.7-18.2c0,0,10,6.4,5.6,18.2L323.4,240.7z"/>
<path class="st0" d="M324.9,240.7c0,0,3.1-9.9,12.6-11.8c0,0,1.8,6.4-6.1,11.8L324.9,240.7z"/>
<polygon class="st8" points="318.7,240.4 320.5,252.2 331.3,252.3 332.9,240.5 "/>
<rect x="275" y="56.4" class="st8" width="53.2" height="53.2"/>
<polyline class="st17" points="291.2,82.5 297.4,92.8 312.2,73.2 "/>
<g>
	<path class="st18" d="M247.3,132.7c0,8.2-2.7,15.8-7.2,21.9h-9.8c6-5.4,9.7-13.2,9.7-21.9c0-16.4-13.3-29.6-29.6-29.6
		c-16.4,0-29.6,13.3-29.6,29.6c0,8.7,3.7,16.5,9.7,21.9h-9.8c-4.5-6.1-7.2-13.7-7.2-21.9c0-20.4,16.5-37,37-37
		C230.8,95.7,247.3,112.3,247.3,132.7z"/>
	<path class="st19" d="M231.8,114.8l-20.5,21.7c-1.2,1.2-3.1,1.2-4.3,0c-1.2-1.2-1.2-3.1,0-4.3l0.9-0.6L231.8,114.8z"/>
	<path class="st19" d="M207.9,131.6l-0.9,0.6C207.3,131.9,207.6,131.7,207.9,131.6z"/>
	<rect x="208.7" y="104.9" class="st19" width="3.3" height="5.5"/>
	
		<rect x="233.3" y="125.1" transform="matrix(6.929379e-02 0.9976 -0.9976 6.929379e-02 345.923 -115.0978)" class="st19" width="2.6" height="5.5"/>
	
		<rect x="184.3" y="125.1" transform="matrix(0.1082 -0.9941 0.9941 0.1082 38.4018 298.4956)" class="st19" width="2.6" height="5.5"/>
	
		<rect x="187.7" y="142.8" transform="matrix(0.6697 0.7426 -0.7426 0.6697 170.483 -92.313)" class="st19" width="2.6" height="5.5"/>
	
		<rect x="230.9" y="142.3" transform="matrix(-0.6697 0.7426 -0.7426 -0.6697 495.4594 69.7312)" class="st19" width="2.6" height="5.5"/>
	
		<rect x="192.8" y="110.8" transform="matrix(0.6697 -0.7426 0.7426 0.6697 -20.2159 181.6424)" class="st19" width="2.6" height="5.5"/>
	
		<rect x="224.6" y="110.8" transform="matrix(-0.6697 -0.7426 0.7426 -0.6697 292.9366 357.381)" class="st19" width="2.6" height="5.5"/>
</g>
</svg>
