<svg id="Layer_1" data-name="Layer 1" xmlns="http://www.w3.org/2000/svg" xmlns:xlink="http://www.w3.org/1999/xlink" viewBox="0 0 400 300"><defs><style>.cls-1{fill:#75d3b4;}.cls-2{fill:url(#linear-gradient);}.cls-3{fill:url(#linear-gradient-2);}.cls-4{fill:#adcee1;}.cls-5{fill:#88d3d8;}.cls-6{fill:#f2f2f2;}.cls-7{fill:#7f54b3;}.cls-8{fill:#fff;}.cls-9{fill:#053855;opacity:0.1;isolation:isolate;}.cls-10{fill:none;}.cls-11{fill:#f8997c;}.cls-12{fill:#dd654a;}.cls-13{fill:#297600;}.cls-14{fill:#5fad00;}.cls-15{fill:#71b815;}.cls-16{fill:#0a354d;}.cls-17{fill:#ddd;}.cls-18{fill:#6caf14;}</style><linearGradient id="linear-gradient" x1="237.46" y1="165.25" x2="219.77" y2="139.2" gradientTransform="matrix(1, 0, 0, -1, 0, 297.86)" gradientUnits="userSpaceOnUse"><stop offset="0" stop-color="#78b46a"/><stop offset="1" stop-color="#fff"/></linearGradient><linearGradient id="linear-gradient-2" x1="146.36" y1="79.77" x2="123.34" y2="45.85" xlink:href="#linear-gradient"/></defs><title>macbook_isometic</title><path class="cls-1" d="M200.42,286.63,367,193.12a8,8,0,0,0,.3-13.71L205.81,79.35a8,8,0,0,0-8.19-.12L21.39,181.51a8,8,0,0,0,0,13.77l157.14,91.18A22.06,22.06,0,0,0,200.42,286.63Z"/><path class="cls-2" d="M204.53,153.09c-.21-.17-1.42-1-1.59-1.11l33.65-20.74,17.26,8.69-35.68,21.49C208.59,155,214,159.74,204.53,153.09Z"/><path class="cls-3" d="M69.91,222a6,6,0,0,0-.57-.42L102,200.14l97.77,49.25L157,274C147.5,267.58,79.37,228.64,69.91,222Z"/><polyline class="cls-4" points="288.91 188.83 288.91 192.25 287.18 194.37"/><path class="cls-5" d="M217.23,150.22,287,188.57a4.14,4.14,0,0,1,1.32,5.7,4,4,0,0,1-1.46,1.41L182.57,260a9.26,9.26,0,0,1-9.26-.08l-66.42-43c-4.83-4-4.47-11.43,0-11.74l100.66-55A9.42,9.42,0,0,1,217.23,150.22Z"/><path class="cls-6" d="M217.23,147.37,287,185.72a4.14,4.14,0,0,1,1.32,5.7,4,4,0,0,1-1.46,1.41L182.57,257.11a9.26,9.26,0,0,1-9.26-.08l-66.42-43a5.14,5.14,0,0,1,0-8.9l100.66-57.88A9.42,9.42,0,0,1,217.23,147.37Z"/><path class="cls-7" d="M214.51,141.72S187.67,52.9,187.86,52.9s-.86-4-5.82-1.73L73.62,107.55s-5.16,2.09-4.15,6.89,28.29,93.11,28.29,93.11a4.49,4.49,0,0,0,5,1.73C106,208.28,212,146.71,212,146.71A4.06,4.06,0,0,0,214.51,141.72Z"/><polygon class="cls-8" points="186.07 59.4 75.12 116.67 99.2 199.1 209.2 136.51 186.07 59.4"/><path class="cls-7" d="M219.33,156.85l25.4,14.2a2.94,2.94,0,0,1,1,4,2.9,2.9,0,0,1-1.05,1L159.07,228a8.6,8.6,0,0,1-8.61,0c-5.63-3.28-17.32-10.19-23.25-13.83a3.58,3.58,0,0,1-1.19-4.92,3.62,3.62,0,0,1,1.26-1.23c17.71-10.3,74.48-43.9,87.13-51.24A4.78,4.78,0,0,1,219.33,156.85Z"/><path class="cls-7" d="M219,198.1l-29.59,17.2a3.07,3.07,0,0,0-1.12,4.18,3,3,0,0,0,1.12,1.12l18,10.53a4,4,0,0,0,4.06,0l30.3-18.85a2.56,2.56,0,0,0,.95-3.49,2.62,2.62,0,0,0-.95-.95L223,198.12A4,4,0,0,0,219,198.1Z"/><path class="cls-9" d="M219.33,156.85l25.4,14.2a2.94,2.94,0,0,1,1,4,2.9,2.9,0,0,1-1.05,1L159.07,228a8.6,8.6,0,0,1-8.61,0c-5.63-3.28-17.32-10.19-23.25-13.83a3.58,3.58,0,0,1-1.19-4.92,3.62,3.62,0,0,1,1.26-1.23c17.71-10.3,74.48-43.9,87.13-51.24A4.78,4.78,0,0,1,219.33,156.85Z"/><path class="cls-9" d="M219,198.1l-29.59,17.2a3.07,3.07,0,0,0-1.12,4.18,3,3,0,0,0,1.12,1.12l18,10.53a4,4,0,0,0,4.06,0l30.3-18.85a2.56,2.56,0,0,0,.95-3.49,2.62,2.62,0,0,0-.95-.95L223,198.12A4,4,0,0,0,219,198.1Z"/><line class="cls-10" x1="135.96" y1="149.9" x2="162.47" y2="134.72"/><polyline class="cls-11" points="232.39 123.68 232.39 137.41 254.6 137.41 254.6 123.68"/><ellipse class="cls-12" cx="243.49" cy="123.68" rx="11.11" ry="5.46"/><ellipse class="cls-11" cx="243.49" cy="137.94" rx="11.11" ry="5.46"/><path class="cls-13" d="M255.93,91.76c-2.34-1-5.59-4.15-8.43-4.05a33.25,33.25,0,0,0-1.72,8.43,76,76,0,0,0-.32,14.07c.07,1.05.15,2.09.26,3.13a2.47,2.47,0,0,0,.25.88v10.87a.35.35,0,0,0,.4.29.36.36,0,0,0,.29-.29V114.64a15.55,15.55,0,0,0,3.18-1.47,10.81,10.81,0,0,0,4.47-5.62c1.79-5,.66-10.56,2.36-15.5Z"/><path class="cls-14" d="M251.13,83.58A8.69,8.69,0,0,0,248,86.82a5.49,5.49,0,0,0-.5,1l-.1.21h0a14.85,14.85,0,0,0-.53,1.72,2.18,2.18,0,0,1,1.18-.93,2.94,2.94,0,0,1,1.85-.17,8,8,0,0,1,1.7.91c.79.48,1.55,1,2.34,1.51,3.68,2.34,8.58,2.58,11.42-.83a2.22,2.22,0,0,1,.1-.41C265.83,87.47,259.27,78.85,251.13,83.58Z"/><path class="cls-13" d="M263.69,91.66l.46-.3a.31.31,0,0,0-.09-.26c-2.22-2.28-4.61-4.52-7.65-5.65a13,13,0,0,0-6.83-.67c-.25.29-.47.59-.69.89a11.82,11.82,0,0,1,7.86.65,22,22,0,0,1,6.84,5.26A.39.39,0,0,0,263.69,91.66Z"/><path class="cls-13" d="M226.41,96.63a9.27,9.27,0,0,0-5,8.9c.26,6.55,11.06.16,13.93-5.37s3.32,2.36,3.32,2.36"/><path class="cls-14" d="M236.12,94.34a19.34,19.34,0,0,0-6,.83,14.4,14.4,0,0,0-3.73,1.46,11.77,11.77,0,0,0,2.16,1.15,6.58,6.58,0,0,1,3.49,2.5,4.61,4.61,0,0,1,.42,1c.66,2.16.09,4.77,1,6.94a6.34,6.34,0,0,0,5.25,4.24c3,.19,4.44-2.74,5-5.27s1.42-6,.46-8.58C243.07,95.57,239,94.48,236.12,94.34Z"/><path class="cls-13" d="M240.13,104.57c-1.28-4.14-4-8-7.95-9.88H232l-.19.06-.72.19c4.61,1.71,7.51,6.26,8.7,10.91,1.51,6,1,12.39,1,18.47a.32.32,0,0,0,.64,0C241.47,117.83,242.07,110.86,240.13,104.57Z"/><path class="cls-15" d="M152.39,108.39,146.2,132a2.35,2.35,0,0,1-1.08,1.42,1.78,1.78,0,0,1-1.61.07,2.83,2.83,0,0,1-1.29-3.3l.35-.76Z"/><polygon class="cls-15" points="159.25 115.32 160.15 117.26 156.86 119.43 155.96 117.49 159.25 115.32"/><polygon class="cls-15" points="125.49 133.93 129.05 132.51 129.66 134.6 126.1 136.03 125.49 133.93"/><polygon class="cls-15" points="134.89 144.01 136.57 144.88 135.14 149.09 133.46 148.21 134.89 144.01"/><polygon class="cls-15" points="127.02 118.69 130.65 120.08 130.14 122.18 126.51 120.79 127.02 118.69"/><path class="cls-16" d="M133.33,101.22c12.68-7,27.92-.1,34,15.47a37,37,0,0,1,2.09,19.2l-6.1,3.39a29.57,29.57,0,0,0-.56-20.06c-4.91-12.48-17.12-18-27.28-12.4s-14.42,20.31-9.51,32.79c2.61,6.62,7.28,11.3,12.61,13.38l-6.11,3.39a30.27,30.27,0,0,1-11.06-14.24C115.34,126.57,120.65,108.25,133.33,101.22Z"/><path class="cls-15" d="M142.57,129.42l-.35.76A2.65,2.65,0,0,1,142.57,129.42Z"/><polygon class="cls-15" points="137.09 107.66 138.73 111.83 136.71 112.96 135.07 108.78 137.09 107.66"/><polygon class="cls-15" points="160.15 129.58 163.78 130.97 163.27 133.07 159.64 131.68 160.15 129.58"/><polygon class="cls-15" points="148.23 106.93 149.91 107.82 148.48 112.01 146.8 111.13 148.23 106.93"/><path class="cls-17" d="M173.43,141a2.52,2.52,0,0,1,3.35.8,2.26,2.26,0,0,1-.91,3.16L161.3,153a2.26,2.26,0,0,0,.9-3.16,2.52,2.52,0,0,0-3.35-.8Z"/><path class="cls-18" d="M158.85,149a2.52,2.52,0,0,1,3.35.8,2.26,2.26,0,0,1-.9,3.16l-27.39,15.18a2.54,2.54,0,0,1-3.36-.8,2.26,2.26,0,0,1,.91-3.16Z"/></svg>