<svg xmlns="http://www.w3.org/2000/svg" xmlns:xlink="http://www.w3.org/1999/xlink" viewBox="0 0 400 300"><defs><linearGradient id="linear-gradient" x1="237.46" y1="132.61" x2="219.77" y2="158.66" gradientUnits="userSpaceOnUse"><stop offset="0" stop-color="#78b46a"/><stop offset="1" stop-color="#fff"/></linearGradient><linearGradient id="linear-gradient-2" x1="144.78" y1="217.49" x2="121.95" y2="251.12" xlink:href="#linear-gradient"/></defs><title>A</title><g style="isolation:isolate"><g id="Layer_2" data-name="Layer 2"><path d="M200.42,286.63,367,193.12a8,8,0,0,0,.3-13.71L205.81,79.35a8,8,0,0,0-8.19-.12L21.39,181.51a8,8,0,0,0,0,13.77l157.14,91.18A22.07,22.07,0,0,0,200.42,286.63Z" fill="#75d3b4"/><path d="M204.53,153.09c-.21-.17-1.42-1-1.59-1.11l33.65-20.74,17.26,8.69-35.68,21.49C208.59,155,214,159.74,204.53,153.09Z" fill="url(#linear-gradient)" style="mix-blend-mode:multiply"/><path d="M69.91,222a6.77,6.77,0,0,0-.57-.42L102,200.14,196.8,247.9,155,272.83C145.46,266.42,79.37,228.64,69.91,222Z" fill="url(#linear-gradient-2)" style="mix-blend-mode:multiply"/><polyline points="285.91 191.83 285.91 195.25 284.18 197.37" fill="#adcee1"/><path d="M217.23,150.22,284,191.57a4.14,4.14,0,0,1-.14,7.11L182.57,256a9.27,9.27,0,0,1-9.26-.08l-66.42-39c-4.83-4-4.47-11.43,0-11.74l100.66-55A9.41,9.41,0,0,1,217.23,150.22Z" fill="#88d3d8"/><path d="M217.23,147.37,284,188.72a4.14,4.14,0,0,1-.14,7.11L182.57,253.11a9.27,9.27,0,0,1-9.26-.08l-66.42-39a5.14,5.14,0,0,1,0-8.9l100.66-57.88A9.41,9.41,0,0,1,217.23,147.37Z" fill="#fff"/><path d="M214.51,141.72S186.81,52.3,187,52.3s-.86-4-5.82-1.73L74.83,113.16s-5.16,2.09-4.15,6.89,27.08,87.5,27.08,87.5a4.49,4.49,0,0,0,5,1.73C106,208.28,212,146.71,212,146.71A4.07,4.07,0,0,0,214.51,141.72Z" fill="#7f54b3"/><polygon points="185.21 58.8 76.33 122.28 98.91 198.1 209.2 136.51 185.21 58.8" fill="#193a42"/><path d="M221.33,156.85l24.4,15.2a2.94,2.94,0,0,1-.1,5.06L158.07,227a8.61,8.61,0,0,1-8.61,0c-5.63-3.28-15.32-9.19-21.25-12.83a3.58,3.58,0,0,1,.07-6.15c17.71-10.3,75.48-43.9,88.13-51.24A4.77,4.77,0,0,1,221.33,156.85Z" fill="#7f54b3"/><path d="M220,198.1l-30.59,17.2a3.06,3.06,0,0,0,0,5.3l18,10.53a4.06,4.06,0,0,0,4.06,0l31.3-17.85a2.56,2.56,0,0,0,0-4.44L224,198.12A4.06,4.06,0,0,0,220,198.1Z" fill="#7f54b3"/><path d="M221.33,156.85l24.4,15.2a2.94,2.94,0,0,1-.1,5.06L158.07,227a8.61,8.61,0,0,1-8.61,0c-5.63-3.28-15.32-9.19-21.25-12.83a3.58,3.58,0,0,1,.07-6.15c17.71-10.3,75.48-43.9,88.13-51.24A4.77,4.77,0,0,1,221.33,156.85Z" fill="#053855" opacity="0.1"/><path d="M220,198.1l-30.59,17.2a3.06,3.06,0,0,0,0,5.3l18,10.53a4.06,4.06,0,0,0,4.06,0l31.3-17.85a2.56,2.56,0,0,0,0-4.44L224,198.12A4.06,4.06,0,0,0,220,198.1Z" fill="#053855" opacity="0.1"/><path d="M143.79,112a5,5,0,0,1,.17,2.23,6.33,6.33,0,0,1-1.62,3.63,5,5,0,0,1-.69.5l0,0c-.1.05-.16,0-.19-.16a5.82,5.82,0,0,1,.1-3,5.71,5.71,0,0,1,2.13-3.2Z" fill="#fff"/><path d="M144.6,116.88a3.78,3.78,0,0,1,1.33-.39,2.9,2.9,0,0,1,2.33.78,5.89,5.89,0,0,0-.86,5,3.38,3.38,0,0,0,3.07,2.74,16.84,16.84,0,0,1-1.2,5.57,3.45,3.45,0,0,1-.76,1.21c-.17.16-.36.29-.54.44a5.22,5.22,0,0,1-1.8.27,2.88,2.88,0,0,0-1.14.31,4.07,4.07,0,0,0-1,.76l-1.35,1.34-.47.24a2.09,2.09,0,0,1-1.66-.39,10.51,10.51,0,0,1-4-5.11c-.14-.35-.26-.72-.39-1.09l-.28-1.26,0-.24a8.55,8.55,0,0,1,.35-4,5.79,5.79,0,0,1,2.59-3.28,3,3,0,0,1,1.27-.33c.46,0,.92-.07,1.39-.1a.83.83,0,0,0,.31-.09,1.05,1.05,0,0,0,.29-.22c.3-.32.62-.61.91-.93A5.74,5.74,0,0,1,144.6,116.88Z" fill="#fff"/><line x1="135.96" y1="149.9" x2="162.47" y2="134.72" fill="#fff"/><path d="M136.72,151.19,163.23,136a1.5,1.5,0,0,0-1.51-2.59L135.2,148.6a1.5,1.5,0,0,0,1.51,2.59Z" fill="#f2f2f2"/><polyline points="232.39 123.68 232.39 137.41 254.6 137.41 254.6 123.68" fill="#f8997c"/><ellipse cx="243.49" cy="123.68" rx="11.11" ry="5.46" fill="#dd654a"/><ellipse cx="243.49" cy="137.94" rx="11.11" ry="5.46" fill="#f8997c"/><path d="M255.93,91.76c-2.34-1-5.59-4.15-8.43-4.05a33.19,33.19,0,0,0-1.72,8.43,76.47,76.47,0,0,0-.32,14.07q.1,1.57.26,3.13a2.49,2.49,0,0,0,.25.88q0,5.43,0,10.87a.35.35,0,0,0,.69,0q0-5.23,0-10.45a15.41,15.41,0,0,0,3.18-1.47,10.82,10.82,0,0,0,4.47-5.62c1.79-5,.66-10.56,2.36-15.5C256.42,91.95,256.18,91.86,255.93,91.76Z" fill="#297600"/><path d="M251.13,83.58A8.7,8.7,0,0,0,248,86.82a5.44,5.44,0,0,0-.5,1l-.1.21h0a14.52,14.52,0,0,0-.53,1.72,2.15,2.15,0,0,1,1.18-.93,2.94,2.94,0,0,1,1.85-.17,7.77,7.77,0,0,1,1.7.91c.79.48,1.55,1,2.34,1.51,3.68,2.34,8.58,2.58,11.42-.83,0-.13.07-.27.1-.41C265.83,87.47,259.27,78.85,251.13,83.58Z" fill="#5fad00"/><path d="M263.69,91.66l.46-.3a.31.31,0,0,0-.09-.26c-2.22-2.28-4.61-4.52-7.65-5.65a13.11,13.11,0,0,0-6.83-.67c-.25.29-.47.59-.69.89a11.87,11.87,0,0,1,7.86.65,22,22,0,0,1,6.84,5.26A.33.33,0,0,0,263.69,91.66Z" fill="#297600"/><path d="M226.41,96.63a9.27,9.27,0,0,0-5,8.9c.26,6.55,11.06.16,13.93-5.37s3.32,2.36,3.32,2.36" fill="#297600"/><path d="M236.12,94.34a19.55,19.55,0,0,0-6,.83,14.54,14.54,0,0,0-3.73,1.46,12,12,0,0,0,2.16,1.15,6.56,6.56,0,0,1,3.49,2.5,5,5,0,0,1,.42,1c.66,2.16.09,4.77,1,6.94s2.7,4.08,5.25,4.24c3,.19,4.44-2.74,5-5.27s1.42-6,.46-8.58C243.07,95.57,239,94.48,236.12,94.34Z" fill="#5fad00"/><path d="M240.13,104.57c-1.28-4.14-4-8-7.95-9.88H232l-.19.06-.72.19c4.61,1.71,7.51,6.26,8.7,10.91,1.51,5.95,1,12.39,1,18.47a.32.32,0,0,0,.64,0C241.47,117.83,242.07,110.86,240.13,104.57Z" fill="#297600"/></g></g></svg>