<?xml version="1.0" encoding="utf-8"?>
<!-- Generator: Adobe Illustrator 24.0.0, SVG Export Plug-In . SVG Version: 6.00 Build 0)  -->
<svg version="1.1" id="Layer_1" xmlns="http://www.w3.org/2000/svg" xmlns:xlink="http://www.w3.org/1999/xlink" x="0px" y="0px"
	 viewBox="0 0 400 300" style="enable-background:new 0 0 400 300;" xml:space="preserve">
<style type="text/css">
	.st0{fill:#E6E6E6;}
	.st1{opacity:0.44;fill:#CCCCCC;enable-background:new    ;}
	.st2{opacity:8.000000e-02;enable-background:new    ;}
	.st3{opacity:0.45;fill:#E6E6E6;enable-background:new    ;}
	.st4{fill:#24285B;}
	.st5{fill:#009688;}
	.st6{fill:#FFD200;}
	.st7{fill:#FFFFFF;}
	.st8{opacity:0.39;fill:#FFFFFF;enable-background:new    ;}
	.st9{fill:#F4A28C;}
	.st10{opacity:0.31;fill:#CE8172;enable-background:new    ;}
	.st11{opacity:0.58;fill:#009688;enable-background:new    ;}
	.st12{opacity:0.73;fill:#009688;enable-background:new    ;}
	.st13{fill:#B71C1C;}
</style>
<rect x="92.2" y="55.7" class="st0" width="227.8" height="157.1"/>
<rect x="92.2" y="88.4" class="st1" width="227.8" height="124.4"/>
<polygon class="st2" points="311.2,179.7 293.9,204.4 310.2,204.4 310.2,212.8 319.9,212.8 319.3,182.7 "/>
<path class="st2" d="M95,101.7c0,0,4.7-3.2,6.9,8.5s-4.3,21.6,11.2,24s25.7-4.2,29.3,14.5s23.7,27.1,16.9,43.9s-12.6,20.1-12.6,20.1
	H92.2C92.2,212.8,91.8,108.4,95,101.7z"/>
<ellipse class="st3" cx="100.5" cy="272.6" rx="73.8" ry="4.8"/>
<ellipse class="st3" cx="318.5" cy="272" rx="36.9" ry="3.7"/>
<circle class="st4" cx="110.5" cy="70.1" r="4.4"/>
<circle class="st5" cx="123.6" cy="70.1" r="4.4"/>
<circle class="st6" cx="135.8" cy="70.1" r="4.4"/>
<path class="st5" d="M67.1,264.4c0,0-1.2,3.4-4.3,3.7s-3.9,3.3-1.1,4.1s9.9-2.8,9.9-2.8l-0.2-4.5L67.1,264.4z"/>
<path class="st5" d="M109.5,264.4c0,0,1.2,3.4,4.3,3.7s3.9,3.3,1.1,4.1s-9.9-2.8-9.9-2.8l0.2-4.5L109.5,264.4z"/>
<path class="st7" d="M154.1,137c-1-1-1-2.6,0-3.5c0,0,0,0,0,0l14.9-14.9c1-0.9,2.6-0.8,3.5,0.2c0.8,0.9,0.8,2.4,0,3.3L157.7,137
	C156.7,138,155.1,138,154.1,137z"/>
<path class="st7" d="M169.3,137.2l-14.9-14.9c-1-1-1-2.5-0.1-3.5c1-1,2.5-1,3.5-0.1c0,0,0,0,0.1,0.1l14.9,14.9c1,1,1,2.5,0.1,3.5
	C171.9,138.2,170.3,138.3,169.3,137.2C169.3,137.3,169.3,137.3,169.3,137.2L169.3,137.2z"/>
<g>
	<path class="st7" d="M236.8,137c-1-1-1-2.6,0-3.5c0,0,0,0,0,0l14.9-14.9c0.9-1,2.5-1.1,3.5-0.2s1.1,2.5,0.2,3.5
		c-0.1,0.1-0.1,0.1-0.2,0.2L240.4,137C239.4,138,237.8,138,236.8,137z"/>
	<path class="st7" d="M252,137.2l-14.9-14.9c-1-1-1-2.5-0.1-3.5c1-1,2.5-1,3.5-0.1c0,0,0,0,0.1,0.1l14.9,14.9c1,1,1,2.5,0.1,3.5
		C254.6,138.2,253.1,138.3,252,137.2C252,137.3,252,137.3,252,137.2L252,137.2z"/>
</g>
<path class="st7" d="M184.9,179.7c-1.3,0-2.4-1-2.5-2.3c-0.7-8.5,2.5-25.3,19.7-27.7c5.4-0.8,9.9,0.5,13.3,3.7
	c8.2,7.5,7.4,23.3,7.3,24c-0.1,1.4-1.3,2.4-2.6,2.4s-2.4-1.3-2.4-2.6l0,0c0-0.1,0.7-14.1-5.7-20c-2.4-2.2-5.4-2.9-9.2-2.4
	c-16.9,2.3-15.5,21.5-15.4,22.3c0.1,1.4-0.9,2.6-2.3,2.7H184.9z"/>
<path class="st5" d="M113.4,127.8c0,0,22,4.5,20.2,25s18.2,31.8,5.9,43.6s-28.6,5.2-28.6,5.2L113.4,127.8z"/>
<path class="st8" d="M113.4,127.8c0,0,22,4.5,20.2,25s18.2,31.8,5.9,43.6s-28.6,5.2-28.6,5.2L113.4,127.8z"/>
<path class="st9" d="M95.2,107.4c0.9,2.4,1.5,4.9,1.8,7.5c0,1.3-1,2.4-2.2,2.4c0,0,0,0,0,0c-2,0.2-3.9-0.8-4.9-2.6l-2.5-3.5
	c-0.9-1.5-0.7-3.4,0.5-4.8C89.8,104,94.3,104.8,95.2,107.4z"/>
<polygon class="st9" points="88.5,112.2 88.7,127.3 97,126.6 93.5,115.8 "/>
<path class="st4" d="M87.8,114.9L87.8,114.9c0.1,0.2,0.2,0.3,0.4,0.3c1.4,0,2.6-1,2.9-2.3c0.4-1.5,0-3-1.2-4
	c1.4-0.1,2.8-0.4,4.2-0.9c0.5-0.2,0.9-0.4,1.3-0.7l0.2-3.7c0,0,0.8-3.9-1.3-4s-2.4,2.4-4.5,1.2s-2.6-1.7-4-0.3s0.8,2.1-1.8,2.9
	s-2.4,1.9-2.1,3.1c0.2,0.4,0.5,0.8,0.8,1C85.1,109.4,86.9,112,87.8,114.9z"/>
<path class="st9" d="M91.6,112.6c0,0-0.5-1.7-1.8-1.2s-0.5,3,1.3,2.7L91.6,112.6z"/>
<path class="st9" d="M96.1,110.2l1.7,1.3c0.3,0.3,0.4,0.7,0.1,1c-0.1,0.1-0.1,0.2-0.2,0.2l-1.6,0.8L96.1,110.2z"/>
<path class="st10" d="M94,117.3c-1.2-0.1-2.3-0.4-3.4-1.1c0,0,0.5,3,4.4,4.2L94,117.3z"/>
<path class="st5" d="M104.4,125.8c-13.7,0.2-27.3,3.1-39.9,8.5c-7.8,3.3-11.5,12.3-8.2,20.2c0.1,0.3,0.3,0.6,0.4,0.9l21.7,43.3
	l40.3-2.4c0,0,7.3-24.4,5.9-51.9C124,133.8,115.1,125.6,104.4,125.8z"/>
<path class="st4" d="M78.4,198.8l-12,66.3h6l15.1-36c5.3-12.7,14.8-23.4,26.8-30.2l4.4-2.5L78.4,198.8z"/>
<path class="st2" d="M75.1,140.1c5.8,4.7,8.7,12.2,7.7,19.6c-1.8,12.6-3.8,22.3,7.8,19.4s17.8-29.8,17.8-29.8l13.5,0.3l-2.3,30
	l-7.8,0.5c-3.8,0.3-7,3-7.7,6.8l-2.1,10.5l-23.5,1.4l-3.3-5l-14.7-15.8l-1.8-25.3L75.1,140.1z"/>
<rect x="87.5" y="144.7" transform="matrix(6.982913e-02 -0.9976 0.9976 6.982913e-02 -59.371 251.973)" class="st6" width="35.9" height="26.2"/>
<path class="st4" d="M118.7,196.4l-6.2,68.7h-8c0,0,1.9-51.7-12.6-62.7L118.7,196.4z"/>
<path class="st5" d="M76,144c-0.1-5.4-4.7-9.7-10.1-9.5c-2.9,0.1-5.7,1.5-7.5,3.8c-4.6,5.9-8.9,15.7-8.5,31.9
	c0.8,34.5,21,43.8,52.2,6l-6.2-4.7c0,0-12.3,10.4-23.6,10.6C64,182.1,76.6,160.5,76,144z"/>
<path class="st8" d="M76,144c-0.1-5.4-4.7-9.7-10.1-9.5c-2.9,0.1-5.7,1.5-7.5,3.8c-4.6,5.9-8.9,15.7-8.5,31.9
	c0.8,34.5,21,43.8,52.2,6l-6.2-4.7c0,0-12.3,10.4-23.6,10.6C64,182.1,76.6,160.5,76,144z"/>
<path class="st2" d="M118.5,157.8c0,0-9,16.5-27,11.9l-0.4,5.8l26.1,1.8L118.5,157.8z"/>
<path class="st9" d="M97.1,172.3c0,0,3.7-6.5,8.2-4.8s-3.2,8.7-3.2,8.7L97.1,172.3z"/>
<path class="st11" d="M137.7,261.5c0,0-8.5-2.3-10.4-10.2c0,0,13.2-2.7,13.6,11L137.7,261.5z"/>
<path class="st12" d="M138.7,260.7c0,0-5.9-9.4-0.7-18.2c0,0,10,6.4,5.6,18.2L138.7,260.7z"/>
<path class="st5" d="M140.2,260.7c0,0,3.1-9.9,12.6-11.8c0,0,1.8,6.4-6.1,11.8L140.2,260.7z"/>
<polygon class="st4" points="134.1,260.5 135.8,272.3 146.7,272.3 148.3,260.5 "/>
<rect x="274.4" y="104" class="st2" width="45.5" height="15.7"/>
<rect x="316.1" y="191.5" class="st0" width="6.5" height="65.1"/>
<polygon class="st6" points="319.9,157.2 293.9,197.1 319.9,197.1 346,197.1 "/>
<rect x="310.2" y="251.1" class="st4" width="18.9" height="21.3"/>
<rect x="317.9" y="172.1" class="st4" width="3.7" height="12"/>
<rect x="317.9" y="186.4" class="st4" width="3.7" height="3.7"/>
<rect x="269.5" y="47.2" class="st13" width="61.5" height="61.5"/>
<g>
	<path class="st7" d="M290.9,87.1c-1-1-1-2.6,0-3.5c0,0,0,0,0,0l14.9-14.9c0.9-1,2.5-1.1,3.5-0.2s1.1,2.5,0.2,3.5
		c-0.1,0.1-0.1,0.1-0.2,0.2l-14.9,14.9C293.5,88,291.9,88,290.9,87.1z"/>
	<path class="st7" d="M306.1,87.3l-14.9-14.9c-1-1-1-2.5-0.1-3.5c1-1,2.5-1,3.5-0.1c0,0,0,0,0.1,0.1l14.9,14.9c1,1,1,2.5,0.1,3.5
		S307.1,88.3,306.1,87.3C306.1,87.3,306.1,87.3,306.1,87.3L306.1,87.3z"/>
</g>
</svg>
