<?xml version="1.0" encoding="utf-8"?>
<!-- Generator: Adobe Illustrator 24.0.0, SVG Export Plug-In . SVG Version: 6.00 Build 0)  -->
<svg version="1.1" id="Layer_1" xmlns="http://www.w3.org/2000/svg" xmlns:xlink="http://www.w3.org/1999/xlink" x="0px" y="0px"
	 viewBox="0 0 400 300" style="enable-background:new 0 0 400 300;" xml:space="preserve">
<style type="text/css">
	.st0{opacity:0.42;fill:#E6E6E6;enable-background:new    ;}
	.st1{fill:#E6E6E6;}
	.st2{opacity:0.3;fill:#E6E6E6;enable-background:new    ;}
	.st3{fill:#FFD200;}
	.st4{opacity:0.22;fill:#FFD200;enable-background:new    ;}
	.st5{fill:#009688;}
	.st6{opacity:8.000000e-02;enable-background:new    ;}
	.st7{opacity:0.32;fill:#FFFFFF;enable-background:new    ;}
	.st8{fill:#32234F;}
	.st9{opacity:0.34;fill:#FFFFFF;enable-background:new    ;}
</style>
<path class="st0" d="M86.2,279.5c0,0-32.3,2.3-45.6-3.2s-3.8-21.1,9.2-24.5s20.8,15.3,26.5-2s20.9-25.9,30.5-14.2s19.5,15.5,29.7,5
	s19.6-1.9,23.8,13.5s52.1-14.2,70.5-8.4s32.3,22.8,43.6,4.4s24.5-23.1,32-12.3s9.9,23.8,23.1,14s31.3-1,26.2,10.6
	c-5.1,11.5-39.3,15.5-39.3,15.5S117.8,268.1,86.2,279.5z"/>
<path class="st1" d="M183.1,221c0,0,7.2,23.9-6.8,31s-22.4-3.9-36.9,5.8s-6.9-24-29.1-22.5s-13.9,19.1-13.9,19.1
	s-19.1-18.7-29.1-2.4s-5.1,31.5,39.6,26.9s77.5,1.7,116.3,0.8s110,6.8,113.8-14.6s-16.1-30.9-36.8-18.9c-20.7,12-17.2-15.7-41.2-3
	s-52.3,27.3-59.5-28.8L183.1,221z"/>
<path class="st2" d="M137.7,17.2C86.4,28.5,52.3,78,61.8,129.6c4.5,24.6,19,49.1,55.4,60.5c87.4,27.4,185.9,13.7,203.2-40.2
	s6.1-88.7-36.2-115.7C256.8,16.7,191.3,5.4,137.7,17.2z"/>
<path class="st1" d="M348.6,102.9c0-4.3-3.5-7.8-7.8-7.8c0,0,0,0,0,0c-0.4,0-0.8,0-1.2,0.1c-1.8-3.4-5.4-5.5-9.2-5.5H330
	c1.7-6.6-2.3-13.4-9-15.1c-6.6-1.7-13.4,2.3-15.1,9c-0.5,2-0.5,4.1,0,6.1h-0.4c-5.8,0-10.5,4.7-10.5,10.5s4.7,10.5,10.5,10.5h36.3
	v-0.1C345.7,110.1,348.6,106.8,348.6,102.9z"/>
<path class="st1" d="M95.8,152.9c0-4.4-3.5-7.9-7.9-7.9c-0.4,0-0.8,0-1.3,0.1c-1.9-3.5-5.5-5.6-9.4-5.6h-0.4c0.3-1,0.4-2,0.4-3.1
	c-0.2-7-6-12.5-13-12.3c-6.7,0.2-12.1,5.6-12.3,12.3c0,1,0.1,2.1,0.4,3.1H52c-5.9,0.2-10.5,5.1-10.3,11c0.2,5.6,4.7,10.1,10.3,10.3
	h36.9v-0.1C92.9,160.2,95.8,156.9,95.8,152.9z"/>
<circle class="st3" cx="124.5" cy="63" r="15.9"/>
<circle class="st4" cx="124.5" cy="63" r="25.7"/>
<path class="st3" d="M164.8,79.6l-0.9,2.2c-1.5,3.6-2.3,7.5-2.3,11.4v108.6H173V93.3c0-3.9-0.8-7.8-2.3-11.4l-0.9-2.2
	c-0.6-1.4-2.1-2.1-3.5-1.5C165.6,78.4,165.1,78.9,164.8,79.6z"/>
<path class="st5" d="M198.2,30.6l-0.1-0.1c-1.3-1.3-3.4-1.3-4.8,0c0,0,0,0,0,0l-0.1,0.1c-9.2,9.3-14.3,21.9-14.4,34.9v139.8
	c0.1,1.7,1.5,3,3.2,2.9h27.4c1.7,0.1,3.1-1.2,3.2-2.9V65.6C212.5,52.5,207.4,39.9,198.2,30.6z"/>
<polygon class="st6" points="199.8,97.1 212.6,103.1 212.6,158.5 189.5,127.8 "/>
<path class="st5" d="M197.4,94L197.4,94c-0.9-1-2.2-1-3.1-0.3c-0.1,0.1-0.1,0.1-0.2,0.2L194,94c-6.2,7-9.7,16.1-9.7,25.5v102.1
	c0,1.2,0.9,2.1,2.1,2.1c0,0,0,0,0,0h18.4c1.2,0,2.1-1,2.1-2.1V119.5C207.1,110.1,203.6,101,197.4,94z"/>
<path class="st7" d="M197.4,94L197.4,94c-0.9-1-2.2-1-3.1-0.3c-0.1,0.1-0.1,0.1-0.2,0.2L194,94c-6.2,7-9.7,16.1-9.7,25.5v102.1
	c0,1.2,0.9,2.1,2.1,2.1c0,0,0,0,0,0h18.4c1.2,0,2.1-1,2.1-2.1V119.5C207.1,110.1,203.6,101,197.4,94z"/>
<path class="st3" d="M226.6,79.6l0.9,2.2c1.5,3.6,2.3,7.5,2.2,11.4v108.6h-11.3V93.3c0-3.9,0.8-7.8,2.2-11.4l0.9-2.2
	c0.6-1.4,2.2-2,3.5-1.5C225.8,78.4,226.4,79,226.6,79.6z"/>
<rect x="212.6" y="103.1" class="st8" width="5.8" height="17.4"/>
<rect x="218.5" y="97.1" class="st6" width="11.3" height="29.4"/>
<path class="st8" d="M184.4,130.7l-7.5,36.7c-1.7,8.2-5.7,15.7-11.7,21.6l-13.8,13.5c-1.4,1.4-2.4,3.1-3,5l-1.4,4.8
	c-0.7,2.5,0.7,5.2,3.2,5.9c0.3,0.1,0.6,0.1,0.9,0.2l33.3,3.2L184.4,130.7z"/>
<path class="st8" d="M207.1,130.7l7.5,36.7c1.7,8.2,5.7,15.7,11.7,21.6l13.8,13.5c1.4,1.4,2.4,3.1,3,5l1.4,4.9
	c0.7,2.5-0.7,5.2-3.2,5.9c-0.3,0.1-0.6,0.1-0.9,0.2l-33.3,3.2L207.1,130.7z"/>
<rect x="173" y="103.1" class="st8" width="5.8" height="17.4"/>
<rect x="161.6" y="97.1" class="st6" width="11.3" height="29.4"/>
<path class="st8" d="M191.2,198.7l-6.4,8.9c-2.4,3.3-3.7,7.3-3.7,11.4v13.1h29.2V219c0-4.1-1.3-8.1-3.7-11.4l-6.4-8.9
	c-1.8-2.5-5.3-3.1-7.8-1.3C192,197.8,191.5,198.2,191.2,198.7z"/>
<rect x="189.6" y="110.8" class="st8" width="11.8" height="4.8"/>
<path class="st9" d="M195.7,50.4L195.7,50.4c4.2,0,7.5,3.4,7.5,7.5v20.7c0,4.2-3.4,7.5-7.5,7.5h0c-4.2,0-7.5-3.4-7.5-7.5V57.9
	C188.2,53.8,191.6,50.4,195.7,50.4z"/>
</svg>
