<svg width="226" height="58" viewBox="0 0 226 58" fill="none" xmlns="http://www.w3.org/2000/svg">
<path d="M56.8499 48.7118V25.4912H67.4217C68.5154 25.4912 69.4875 25.7294 70.4596 26.2057C71.4318 26.682 72.1609 27.2774 72.89 27.9919C73.6191 28.7064 74.1051 29.5399 74.4697 30.4926C74.8342 31.4452 75.0772 32.3978 75.0772 33.3505C75.0772 34.3031 74.9557 35.2558 74.5912 36.2084C74.2266 37.161 73.7406 37.8755 73.133 38.59C72.5254 39.3045 71.6748 39.7808 70.8242 40.138L76.2924 48.9499H71.1887L66.3281 41.0907H61.7105V48.9499H56.8499V48.7118ZM61.4675 36.9229H67.3002C67.9078 36.9229 68.3939 36.8038 68.8799 36.4465C69.366 36.0893 69.7305 35.613 69.9736 35.1367C70.2166 34.5413 70.3381 33.9459 70.3381 33.2314C70.3381 32.5169 70.2166 31.9215 69.8521 31.3261C69.4875 30.7307 69.123 30.2544 68.6369 30.0162C68.1508 29.659 67.6648 29.4208 67.0572 29.4208H61.4675V36.9229Z" fill="#7F54B3"/>
<path d="M77.1431 43.7104C77.1431 42.6387 77.5076 41.686 78.1152 40.8525C78.7228 40.0189 79.5734 39.4235 80.7885 38.9472C81.8822 38.4709 83.2189 38.2327 84.677 38.2327C85.4061 38.2327 86.1352 38.2327 86.8643 38.3518C87.5934 38.4709 88.3225 38.59 88.8086 38.8281V37.8755C88.8086 36.8038 88.444 35.9702 87.8365 35.3748C87.2289 34.7794 86.2568 34.5413 84.9201 34.5413C83.948 34.5413 82.9758 34.6603 82.1252 35.0176C81.2746 35.3748 80.3025 35.8511 79.3303 36.4465L77.8722 33.5886C78.9658 32.8741 80.181 32.2787 81.3961 31.9215C82.6113 31.5643 83.948 31.3261 85.2846 31.3261C87.8365 31.3261 89.7807 31.9215 91.1174 33.1123C92.4541 34.3031 93.1832 36.0893 93.1832 38.3518V43.7104C93.1832 44.1867 93.3047 44.544 93.4262 44.663C93.5477 44.9012 93.9123 45.0203 94.2768 45.0203V48.5927C93.9123 48.7118 93.5477 48.7118 93.1832 48.7118C92.8186 48.7118 92.5756 48.7118 92.3326 48.7118C91.4819 48.7118 90.7528 48.4736 90.2668 48.1164C89.7807 47.7591 89.5377 47.2828 89.4162 46.6874L89.6592 46.092C88.9301 47.0446 87.958 47.7591 86.7428 48.3545C85.6492 48.8308 84.434 49.1881 83.2189 49.1881C82.0037 49.1881 81.0316 48.9499 80.0594 48.4736C79.0873 47.9973 78.3582 47.4019 77.8722 46.5683C77.3861 45.6157 77.1431 44.7821 77.1431 43.7104ZM88.0795 44.544C88.3225 44.3058 88.5656 44.0676 88.6871 43.8295C88.8086 43.5913 88.9301 43.3532 88.9301 43.115V41.4479C88.444 41.2097 87.8365 41.0907 87.2289 40.9716C86.6213 40.8525 86.0137 40.8525 85.4061 40.8525C84.191 40.8525 83.3404 41.0907 82.4898 41.567C81.7607 42.0433 81.3961 42.6387 81.3961 43.4722C81.3961 43.9486 81.5176 44.3058 81.7607 44.663C82.0037 45.0203 82.3682 45.3775 82.8543 45.6157C83.3404 45.8538 83.8264 45.9729 84.5555 45.9729C85.2846 45.9729 85.8922 45.8538 86.4998 45.6157C87.1074 45.2584 87.715 44.9012 88.0795 44.544Z" fill="#7F54B3"/>
<path d="M108.13 49.069C106.793 49.069 105.578 48.7118 104.484 48.1164C103.391 47.521 102.661 46.6874 102.054 45.7348V55.7375H97.5577V31.6833H101.446V34.6603C102.175 33.7077 102.904 32.8741 103.998 32.2787C104.97 31.6833 106.185 31.4452 107.522 31.4452C108.737 31.4452 109.831 31.6833 110.803 32.1597C111.775 32.636 112.626 33.2314 113.355 34.0649C114.084 34.8985 114.691 35.8511 115.056 36.9229C115.421 37.9946 115.664 39.0663 115.664 40.2571C115.664 41.9242 115.299 43.3532 114.691 44.7821C114.084 46.092 113.112 47.1637 112.018 47.9973C110.924 48.7118 109.588 49.069 108.13 49.069ZM106.55 45.3775C107.279 45.3775 107.887 45.2584 108.373 44.9012C108.98 44.663 109.466 44.3058 109.831 43.8295C110.195 43.3532 110.56 42.7578 110.803 42.1624C111.046 41.567 111.168 40.8525 111.168 40.2571C111.168 39.5426 111.046 38.9472 110.803 38.3518C110.56 37.7564 110.195 37.161 109.831 36.8038C109.345 36.3275 108.859 35.9702 108.251 35.7321C107.644 35.4939 107.036 35.3748 106.307 35.3748C105.942 35.3748 105.456 35.4939 105.092 35.613C104.606 35.7321 104.241 35.9702 103.877 36.2084C103.512 36.4465 103.147 36.8038 102.783 37.0419C102.54 37.3992 102.297 37.7564 102.054 38.2327V42.2814C102.297 42.8768 102.661 43.4722 103.147 43.9486C103.634 44.4249 104.12 44.9012 104.727 45.1394C105.335 45.2584 105.942 45.3775 106.55 45.3775Z" fill="#7F54B3"/>
<path d="M118.823 29.1827V24.8958H123.319V29.1827H118.823ZM118.823 48.7118V31.5643H123.319V48.7118H118.823Z" fill="#7F54B3"/>
<path d="M126.235 40.2571C126.235 38.59 126.6 37.161 127.208 35.8512C127.937 34.5413 128.787 33.4696 130.002 32.636C131.218 31.8024 132.554 31.4452 134.012 31.4452C135.228 31.4452 136.443 31.8024 137.536 32.3978C138.63 32.9932 139.359 33.8268 139.967 34.7794V24.7767H144.463V43.8295C144.463 44.3058 144.584 44.6631 144.706 44.7821C144.827 45.0203 145.07 45.1394 145.556 45.1394V48.7118C144.706 48.8308 144.098 48.9499 143.612 48.9499C142.762 48.9499 142.154 48.8308 141.668 48.3545C141.182 47.9973 140.817 47.4019 140.817 46.8065L140.696 45.7348C140.088 46.8065 139.116 47.64 138.023 48.2354C136.929 48.8308 135.714 49.069 134.499 49.069C133.283 49.069 132.19 48.8308 131.218 48.3545C130.245 47.8782 129.273 47.2828 128.544 46.4492C127.815 45.6157 127.208 44.6631 126.843 43.5913C126.479 42.6387 126.235 41.4479 126.235 40.2571ZM139.967 42.5196V38.59C139.724 37.9946 139.359 37.3992 138.873 36.9229C138.387 36.4465 137.779 36.0893 137.293 35.7321C136.686 35.4939 136.078 35.2558 135.471 35.2558C134.742 35.2558 134.134 35.3748 133.648 35.7321C133.04 35.9702 132.554 36.3275 132.19 36.8038C131.825 37.2801 131.461 37.8755 131.218 38.4709C130.975 39.0663 130.853 39.7808 130.853 40.3762C130.853 41.0907 130.975 41.6861 131.218 42.4005C131.461 42.9959 131.825 43.5913 132.19 44.0677C132.554 44.544 133.162 44.9012 133.769 45.1394C134.377 45.3775 134.985 45.4966 135.714 45.4966C136.2 45.4966 136.564 45.3775 137.05 45.2585C137.415 45.1394 137.901 44.9012 138.266 44.6631C138.63 44.4249 138.995 44.0677 139.359 43.7104C139.602 43.3532 139.845 42.8769 139.967 42.5196Z" fill="#7F54B3"/>
<path d="M149.323 48.7118V25.4912H153.941V44.7821H166.093V48.7118H149.323Z" fill="#565A63"/>
<path d="M176.3 49.069C174.842 49.069 173.627 48.8308 172.412 48.3545C171.318 47.8782 170.346 47.2828 169.495 46.4492C168.645 45.6157 168.037 44.663 167.672 43.5913C167.308 42.5196 167.065 41.4479 167.065 40.2571C167.065 39.0663 167.308 37.8755 167.672 36.8038C168.037 35.7321 168.645 34.7794 169.495 33.9459C170.346 33.1123 171.196 32.5169 172.412 32.0406C173.505 31.5643 174.842 31.3261 176.179 31.3261C177.637 31.3261 178.973 31.5643 180.067 32.0406C181.161 32.5169 182.133 33.1123 182.983 33.9459C183.834 34.7794 184.442 35.7321 184.806 36.8038C185.171 37.8755 185.414 38.9472 185.414 40.2571C185.414 41.4479 185.171 42.5196 184.806 43.5913C184.442 44.663 183.713 45.6157 182.983 46.4492C182.133 47.2828 181.161 47.8782 180.067 48.3545C179.095 48.8308 177.758 49.069 176.3 49.069ZM171.804 40.2571C171.804 41.2097 172.047 42.0433 172.412 42.8768C172.776 43.5913 173.384 44.3058 174.113 44.663C174.842 45.1394 175.571 45.2584 176.422 45.2584C177.272 45.2584 178.001 45.0203 178.73 44.544C179.459 44.0676 179.946 43.4722 180.432 42.7578C180.796 42.0433 181.039 41.0907 181.039 40.138C181.039 39.1854 180.796 38.3518 180.432 37.5183C180.067 36.8038 179.459 36.2084 178.73 35.7321C178.001 35.2557 177.272 35.0176 176.422 35.0176C175.571 35.0176 174.842 35.2557 174.113 35.7321C173.384 36.2084 172.898 36.8038 172.533 37.5183C171.925 38.4709 171.804 39.3045 171.804 40.2571Z" fill="#565A63"/>
<path d="M187.358 43.7104C187.358 42.6387 187.723 41.686 188.33 40.8525C188.938 40.0189 189.788 39.4235 191.004 38.9472C192.097 38.4709 193.434 38.2327 194.892 38.2327C195.621 38.2327 196.35 38.2327 197.079 38.3518C197.808 38.4709 198.537 38.59 199.024 38.8281V37.8755C199.024 36.8038 198.659 35.9702 198.051 35.3748C197.444 34.7794 196.472 34.5413 195.135 34.5413C194.163 34.5413 193.191 34.6603 192.34 35.0176C191.49 35.3748 190.517 35.8511 189.545 36.4465L188.087 33.5886C189.181 32.8741 190.396 32.2787 191.611 31.9215C192.826 31.5643 194.163 31.3261 195.5 31.3261C198.051 31.3261 199.996 31.9215 201.332 33.1123C202.669 34.3031 203.398 36.0893 203.398 38.3518V43.7104C203.398 44.1867 203.52 44.544 203.641 44.663C203.763 44.9012 204.127 45.0203 204.492 45.0203V48.5927C204.127 48.7118 203.763 48.7118 203.398 48.7118C203.034 48.7118 202.791 48.7118 202.548 48.7118C201.697 48.7118 200.968 48.4736 200.482 48.1164C199.996 47.7591 199.753 47.2828 199.631 46.6874L199.51 45.8538C198.781 46.8065 197.808 47.521 196.593 48.1164C195.5 48.5927 194.284 48.9499 193.069 48.9499C191.854 48.9499 190.882 48.7118 189.91 48.2354C188.938 47.7591 188.209 47.1637 187.723 46.3302C187.601 45.6157 187.358 44.7821 187.358 43.7104ZM198.173 44.544C198.416 44.3058 198.659 44.0676 198.781 43.8295C198.902 43.5913 199.024 43.3532 199.024 43.115V41.4479C198.537 41.2097 197.93 41.0907 197.322 40.9716C196.715 40.8525 196.107 40.8525 195.5 40.8525C194.284 40.8525 193.434 41.0907 192.583 41.567C191.854 42.0433 191.49 42.6387 191.49 43.4722C191.49 43.9486 191.611 44.3058 191.854 44.663C192.097 45.0203 192.462 45.3775 192.948 45.6157C193.434 45.8538 193.92 45.9729 194.649 45.9729C195.378 45.9729 195.986 45.8538 196.593 45.6157C197.201 45.3775 197.808 44.9012 198.173 44.544Z" fill="#565A63"/>
<path d="M206.679 40.2571C206.679 38.59 207.044 37.161 207.651 35.8512C208.38 34.5413 209.231 33.4696 210.446 32.636C211.661 31.8024 212.998 31.4452 214.456 31.4452C215.671 31.4452 216.886 31.8024 217.98 32.3978C219.074 32.9932 219.803 33.8268 220.41 34.7794V24.7767H224.906V43.8295C224.906 44.3058 225.028 44.6631 225.149 44.7821C225.271 45.0203 225.514 45.1394 226 45.1394V48.7118C225.149 48.8308 224.542 48.9499 224.056 48.9499C223.205 48.9499 222.598 48.8308 222.111 48.3545C221.625 47.9973 221.261 47.4019 221.261 46.8065L221.139 45.7348C220.532 46.8065 219.56 47.64 218.466 48.2354C217.372 48.8308 216.157 49.069 214.942 49.069C213.727 49.069 212.633 48.8308 211.661 48.3545C210.689 47.8782 209.717 47.2828 208.988 46.4492C208.259 45.6157 207.651 44.6631 207.287 43.5913C206.922 42.6387 206.679 41.4479 206.679 40.2571ZM220.41 42.5196V38.59C220.167 37.9946 219.803 37.3992 219.317 36.9229C218.831 36.4465 218.223 36.0893 217.737 35.7321C217.129 35.4939 216.522 35.2558 215.914 35.2558C215.185 35.2558 214.577 35.3748 214.091 35.7321C213.484 35.9702 212.998 36.3275 212.633 36.8038C212.269 37.2801 211.904 37.8755 211.661 38.4709C211.418 39.0663 211.297 39.7808 211.297 40.3762C211.297 41.0907 211.418 41.6861 211.661 42.4005C211.904 42.9959 212.269 43.5913 212.633 44.0677C212.998 44.544 213.605 44.9012 214.213 45.1394C214.821 45.3775 215.428 45.4966 216.157 45.4966C216.643 45.4966 217.008 45.3775 217.494 45.2585C217.858 45.1394 218.344 44.9012 218.709 44.6631C219.074 44.4249 219.438 44.0677 219.803 43.7104C220.046 43.3532 220.289 42.8769 220.41 42.5196Z" fill="#565A63"/>
<path fill-rule="evenodd" clip-rule="evenodd" d="M24.314 58C37.0731 57.2855 46.9159 46.5683 46.1868 34.0649C46.0653 32.0406 45.7008 30.1353 45.0932 28.23L44.7286 28.4682C45.3362 30.3735 45.7008 32.3978 45.7008 34.4222C45.7008 45.3775 36.5871 54.1894 25.4076 54.1894C25.0431 54.1894 24.6785 54.1894 24.314 54.1894V58Z" fill="#B59CD3"/>
<path fill-rule="evenodd" clip-rule="evenodd" d="M4.02087 48.1164C8.15242 54.0704 14.9573 57.7619 22.2483 58V53.9513C16.537 52.9987 11.6764 50.498 8.51696 45.6157L4.02087 48.1164Z" fill="#A080C6"/>
<path fill-rule="evenodd" clip-rule="evenodd" d="M1.95506 25.134C-0.961325 32.0406 -0.596778 39.7808 2.92718 46.3302L7.54479 43.7104C5.23599 38.8282 5.3575 33.2314 7.90934 28.4682L1.95506 25.134Z" fill="#9572C0"/>
<path fill-rule="evenodd" clip-rule="evenodd" d="M22.2483 10.249C13.9853 11.2016 6.6943 16.0839 2.80579 23.2287L8.88158 26.682C11.9195 22.276 16.7801 19.5372 22.1268 19.18V10.249H22.2483Z" fill="#8B64B9"/>
<path fill-rule="evenodd" clip-rule="evenodd" d="M45.2148 19.7754C40.2326 13.4642 32.4556 9.7727 24.4355 10.0109V19.0609C28.8101 19.2991 32.8201 20.9662 35.9796 23.9432L45.2148 19.7754Z" fill="#7F54B3"/>
<path fill-rule="evenodd" clip-rule="evenodd" d="M23.3418 31.8025C25.6506 31.8025 27.5949 33.5887 27.5949 35.9703C27.5949 38.2328 25.7721 40.138 23.3418 40.138C21.033 40.138 19.0887 38.3518 19.0887 35.9703C19.0887 33.7077 21.033 31.8025 23.3418 31.8025Z" fill="#51555F"/>
<path fill-rule="evenodd" clip-rule="evenodd" d="M50.0753 20.9662L37.4376 29.4208L24.8 37.7564L23.7063 35.8512L22.6127 33.9459L36.344 27.5156L50.0753 20.9662Z" fill="#51555F"/>
<path fill-rule="evenodd" clip-rule="evenodd" d="M54.3283 18.7036L50.8044 22.276H50.6829L50.5613 22.157C50.4398 21.6806 50.3183 21.2043 50.0753 20.8471C49.8322 20.4898 49.5892 20.1326 49.2247 19.7754C49.1032 19.7754 49.1031 19.6563 49.1031 19.5372C49.1031 19.5372 49.1032 19.5372 49.2247 19.4181L54.2068 18.2273C54.3283 18.2273 54.3283 18.2273 54.3283 18.3464C54.4498 18.5846 54.4498 18.7036 54.3283 18.7036Z" fill="#7F54B3"/>
<rect x="57" width="47" height="21" rx="10.5" fill="#7F54B3"/>
<path d="M68.176 15V6.6H69.34L74.476 13.476L74.284 13.584C74.252 13.384 74.224 13.168 74.2 12.936C74.176 12.696 74.152 12.444 74.128 12.18C74.112 11.908 74.096 11.624 74.08 11.328C74.072 11.024 74.064 10.708 74.056 10.38C74.048 10.052 74.044 9.712 74.044 9.36V6.6H75.34V15H74.152L69.1 8.376L69.232 8.208C69.272 8.696 69.304 9.112 69.328 9.456C69.36 9.792 69.384 10.08 69.4 10.32C69.424 10.552 69.44 10.744 69.448 10.896C69.456 11.04 69.46 11.16 69.46 11.256C69.468 11.352 69.472 11.436 69.472 11.508V15H68.176ZM77.6916 15V6.6H82.9836V7.848H78.9876V13.752H82.9836V15H77.6916ZM78.2796 11.316V10.068H82.3236V11.316H78.2796ZM86.8507 15L84.1747 6.6H85.5547L87.1747 11.856C87.2227 11.984 87.2667 12.136 87.3067 12.312C87.3467 12.48 87.3827 12.652 87.4147 12.828C87.4467 13.004 87.4747 13.168 87.4987 13.32C87.5307 13.472 87.5587 13.596 87.5827 13.692L87.2347 13.68C87.3547 13.256 87.4467 12.928 87.5107 12.696C87.5827 12.464 87.6387 12.288 87.6787 12.168C87.7187 12.04 87.7547 11.932 87.7867 11.844L89.2987 8.052H90.4627L91.9267 11.844C92.0067 12.036 92.0747 12.228 92.1307 12.42C92.1947 12.604 92.2507 12.792 92.2987 12.984C92.3467 13.168 92.3987 13.364 92.4547 13.572L92.1427 13.656C92.1827 13.44 92.2107 13.272 92.2267 13.152C92.2507 13.024 92.2707 12.92 92.2867 12.84C92.3027 12.76 92.3187 12.684 92.3347 12.612C92.3507 12.532 92.3747 12.432 92.4067 12.312C92.4467 12.192 92.4987 12.028 92.5627 11.82L94.1587 6.6H95.5507L92.8747 15H91.9747L89.7547 9.744L89.8627 9.792L87.7267 15H86.8507Z" fill="white"/>
</svg>
