<svg width="10" height="10" viewBox="0 0 10 10" fill="none" xmlns="http://www.w3.org/2000/svg">
<path d="M10 5C10 7.76204 7.76123 10 5 10C2.23877 10 0 7.76204 0 5C0 2.23958 2.23877 0 5 0C7.76123 0 10 2.23958 10 5ZM5 6.00806C4.4878 6.00806 4.07258 6.42329 4.07258 6.93548C4.07258 7.44768 4.4878 7.8629 5 7.8629C5.5122 7.8629 5.92742 7.44768 5.92742 6.93548C5.92742 6.42329 5.5122 6.00806 5 6.00806ZM4.1195 2.67448L4.26905 5.41641C4.27605 5.54472 4.38214 5.64516 4.51062 5.64516H5.48938C5.61786 5.64516 5.72395 5.54472 5.73095 5.41641L5.8805 2.67448C5.88806 2.53589 5.77772 2.41935 5.63893 2.41935H4.36105C4.22226 2.41935 4.11194 2.53589 4.1195 2.67448Z" fill="#DD3F3F"/>
</svg>
