<?xml version="1.0" encoding="utf-8"?>
<!-- Generator: Adobe Illustrator 24.0.0, SVG Export Plug-In . SVG Version: 6.00 Build 0)  -->
<svg version="1.1" id="Layer_1" xmlns="http://www.w3.org/2000/svg" xmlns:xlink="http://www.w3.org/1999/xlink" x="0px"
	 y="0px"
	 viewBox="0 0 3785.9 701.6" style="enable-background:new 0 0 3785.9 701.6;" xml:space="preserve">
<style type="text/css">
	.st0{fill:#77C116;}
	.st1{fill:#0A3851;}
	.st2{fill-rule:evenodd;clip-rule:evenodd;fill:#7F54B3;}
	.st3{fill-rule:evenodd;clip-rule:evenodd;fill:#51555F;}
	.st4{fill-rule:evenodd;clip-rule:evenodd;fill:#B59CD3;}
	.st5{fill-rule:evenodd;clip-rule:evenodd;fill:#A080C6;}
	.st6{fill-rule:evenodd;clip-rule:evenodd;fill:#9572C0;}
	.st7{fill-rule:evenodd;clip-rule:evenodd;fill:#8B64B9;}
	.st8{opacity:0.75;}
	.st9{fill:#51555F;}
</style>
	<title>autoptimize</title>
	<g>
	<path class="st0" d="M546.2,112.3h-28.7l-4.8,13.8h-15.2l25.9-72.3h16.9l25.9,72.3h-15.2L546.2,112.3z M542.3,100.7l-10.4-30.2
		l-10.4,30.2H542.3z"/>
		<path class="st0" d="M590.9,121.7c-5.7-3.4-10.3-8.3-13.5-14.1c-6.6-12.8-6.6-28,0-40.7c3.1-5.8,7.8-10.7,13.5-14.1
		c11.5-6.8,25.8-6.8,37.3,0c5.6,3.4,10.3,8.3,13.3,14.1c6.5,12.8,6.5,27.9,0,40.7c-3.1,5.8-7.7,10.7-13.4,14.1
		C616.7,128.5,602.4,128.5,590.9,121.7z M621,109.8c3.4-2.2,6.1-5.3,7.8-9c1.9-4.3,2.9-8.9,2.8-13.6c0.1-4.7-0.8-9.3-2.8-13.5
		c-1.7-3.7-4.4-6.8-7.8-8.9c-3.5-2.1-7.4-3.2-11.5-3.1c-4.1-0.1-8.1,1-11.5,3.1c-3.4,2.1-6.1,5.2-7.8,8.9c-1.9,4.2-2.9,8.9-2.8,13.5
		c-0.1,4.7,0.9,9.3,2.8,13.6c5.3,10.8,18.3,15.2,29.1,9.9C619.9,110.5,620.5,110.2,621,109.8z"/>
		<path class="st1" d="M686.9,465c0.1,69.6-22.2,137.4-63.6,193.4h-86.7c54.5-49.5,85.6-119.7,85.5-193.4
		c0-144.3-116.9-261.2-261.2-261.2S99.8,320.8,99.8,465c-0.1,73.6,31,143.9,85.6,193.4H98.6C57.2,602.4,34.9,534.6,35,465
		c0-180,145.9-325.9,326-325.9S686.9,285,686.9,465z"/>
		<path class="st0"
			  d="M550.2,307.4L369.9,498.9c-10.5,10.5-27.6,10.5-38.1,0s-10.5-27.6,0-38.1l7.6-5.4L550.2,307.4z"/>
		<path class="st0" d="M339.4,455.4l-7.6,5.4C334,458.5,336.6,456.7,339.4,455.4z"/>
		<rect x="346.6" y="219.9" class="st0" width="28.8" height="48.3"/>

		<rect x="549.9" y="413" transform="matrix(0.9976 -6.982913e-02 6.982913e-02 0.9976 -28.2474 41.1307)"
			  class="st0" width="48.5" height="23.3"/>

		<rect x="130.8" y="398.3" transform="matrix(0.1082 -0.9941 0.9941 0.1082 -293.0331 518.3301)" class="st0"
			  width="23.2" height="48.3"/>

		<rect x="148.6" y="566.7" transform="matrix(0.7426 -0.6698 0.6698 0.7426 -342.8192 264.6184)" class="st0"
			  width="48.3" height="23.2"/>

		<rect x="542.1" y="549.9" transform="matrix(0.6698 -0.7426 0.7426 0.6698 -243.4587 600.7504)" class="st0"
			  width="23.2" height="48.3"/>

		<rect x="205.9" y="272.3" transform="matrix(0.6698 -0.7426 0.7426 0.6698 -148.3414 259.4419)" class="st0"
			  width="23.2" height="48.3"/>

		<rect x="474.1" y="284.8" transform="matrix(0.7426 -0.6698 0.6698 0.7426 -70.2803 410.0471)" class="st0"
			  width="48.3" height="23.2"/>
</g>
	<path class="st2" d="M1670.6,496.5v-152h-50v152c0,68.6,44.8,111.1,115.9,111.1S1851,565.1,1851,496.5v-152h-50v152
	c0,42.5-24.9,66.5-64.5,66.5c-34,2.4-63.6-23.3-65.9-57.3C1670.4,502.6,1670.4,499.6,1670.6,496.5L1670.6,496.5z M2028.1,404.8
	c-29.5-1.9-57.4,13.3-71.7,39.1v-38H1908v199.5h48.5v-98.1c0-32.9,19.4-56.7,52.3-56.7c22.8-1.7,42.7,15.3,44.4,38.1
	c0.2,2.3,0.2,4.6-0.1,6.9v110.4h48.7V480.9c0-47.3-28.3-76.8-73.7-76.8L2028.1,404.8z M2291.8,406v99.2c0,32-18.6,56.7-49.9,56.7
	c-22.2,1.4-41.3-15.5-42.7-37.6c0,0,0,0,0,0c-0.1-2.3-0.1-4.7,0.2-7V406h-49.3v124.8c0,47,27.5,76.5,72.3,76.5
	c28.9,2.2,56.2-13.1,69.4-38.8v37h48.9V406L2291.8,406z M2518.6,460.1l17.6-35.1c-21.9-13.9-47.2-21.3-73.1-21.3
	c-40.2,0-75.2,19.1-75.2,60.1c0,70.8,103.6,50.7,103.6,87.6c0,13-12.8,18.7-29.5,18.7c-24.6-0.5-48.3-9.2-67.4-24.7l-16.7,33.9
	c23.3,18.8,52.4,28.8,82.3,28.3c42.5,0,78.6-19.8,78.6-60.4c0-71.6-105.6-54.1-105.6-87.7c0-12.2,11.2-17.4,26.9-17.4
	C2480.8,443,2500.9,449.2,2518.6,460.1L2518.6,460.1z M2663.7,404.8c-53.4-2.6-98.8,38.5-101.5,91.9c-0.2,3.3-0.2,6.5,0,9.8
	c0,59.9,40.7,101,102.4,101c31.6,1.1,62.1-11.4,83.9-34.2l-26.1-26.8c-14.1,14.4-33.5,22.5-53.7,22.4c-27.6,1-51.7-18.4-56.7-45.5
	h147.4c4.8-72.4-25.4-118.2-95.4-118.2L2663.7,404.8z M2610.7,489.8c2.2-27.7,25.6-48.8,53.3-48.2c26.1-2,49,17.5,51,43.6
	c0.1,1.5,0.2,3,0.1,4.5L2610.7,489.8z M2945.1,328.4v110.4c-15.2-22.6-41.1-35.5-68.3-34c-55.8,0-94,40.7-94,101
	s38.2,102.5,95.1,102.5c26.9,1.4,52.5-11.7,67.2-34.3v32.2h48.5V328.9L2945.1,328.4z M2888.4,566.6c-33.6,0-56.7-25.1-56.7-60.8
	c-2.3-31.2,21.2-58.4,52.4-60.6c1.4-0.1,2.8-0.2,4.3-0.2c31.3-0.1,56.7,25.2,56.8,56.5c0,0,0,0,0,0c0,1.4,0,2.8-0.1,4.3
	c2.5,31.2-20.8,58.5-52,61c-1.6,0.1-3.1,0.2-4.7,0.2L2888.4,566.6z"/>
	<path class="st3" d="M3246.6,421.3l29-36.6c-26.9-26.4-62.9-41.3-100.6-41.7c-77.9,0-138,56.7-138,131.5
	c-0.3,73.2,58.7,132.8,131.9,133.1c0,0,0.1,0,0.1,0c1.4,0,2.9,0,4.3,0c38.8-0.9,75.7-16.9,102.9-44.6l-29.5-32.9
	c-18.9,18.8-44.2,29.8-70.9,30.6c-47.9,1.5-87.9-36.2-89.3-84.1c-1.4-47.2,35.2-86.9,82.3-89.3c2.3-0.1,4.7-0.1,7,0
	C3203.1,388.4,3228.8,400.7,3246.6,421.3L3246.6,421.3z M3481,413.1l20.1-42.5c-28.1-18.2-60.8-28-94.2-28.3
	c-58.5,0-97.6,29.2-97.6,74.7c0,92.8,140.1,61.8,140.1,116.2c0,18.3-16.9,28.3-44.8,28.3c-33.6-2.1-65.4-15.7-90.1-38.4l-21,42.5
	c30.6,26.7,69.8,41.5,110.4,41.8c57.4,0,99.9-28.3,99.9-77.2c0-93.6-139.8-64.8-139.8-117.8c0-16,15.3-24.7,38.8-24.7
	C3430.6,389.5,3457.5,398.2,3481,413.1z M3715.1,413.1l20.1-42.5c-28.1-18.2-60.8-28-94.2-28.3c-58.5,0-97.6,29.2-97.6,74.7
	c0,92.8,140.1,61.8,140.1,116.2c0,18.3-16.9,28.3-44.8,28.3c-33.6-2.1-65.4-15.7-90.1-38.4l-21,42.5c30.6,26.7,69.8,41.5,110.4,41.8
	c57.4,0,99.9-28.3,99.9-77.2c0-93.5-139.9-64.8-139.9-117.8c0-16,15.3-24.7,38.8-24.7C3664.6,389.6,3691.5,398.3,3715.1,413.1
	L3715.1,413.1z"/>
	<path class="st4" d="M1213.5,681.7c137.4-7.5,242.7-124.9,235.2-262.3c-1.2-21.6-5.2-43-11.9-63.6l-4.2,2.8c6.5,21,9.9,43,9.9,65
	c-0.4,119.8-97.8,216.6-217.6,216.3c-3.8,0-7.6-0.1-11.4-0.3V681.7z"/>
	<path class="st5" d="M995,573.7c44.5,65,117.2,105.1,196,108.1v-44.6c-61.1-9.8-113.4-37.5-147.5-91.5L995,573.7z"/>
	<path class="st6"
		  d="M973,321.8c-31.8,75.1-28,160.6,10.2,232.7l49.4-28.3c-24.6-53.4-23.2-115.2,3.8-167.5L973,321.8z"/>
	<path class="st7"
		  d="M1190.8,158.7c-88.6,10.3-166.4,63.7-208,142.6l65.3,37.7c32.6-47.7,85.1-77.9,142.7-82L1190.8,158.7z"/>
	<path class="st2"
		  d="M1436.5,263.1c-52.8-69.3-135.8-108.8-222.9-106.1v99.2c46.4,2.2,90.4,21.3,123.6,53.8L1436.5,263.1z"/>
	<path class="st3" d="M1202.1,395.8c25-0.1,45.4,20.2,45.5,45.2c0.1,25-20.2,45.4-45.2,45.5c-25,0.1-45.4-20.2-45.5-45.2c0,0,0,0,0,0
	V441C1156.9,416,1177.2,395.8,1202.1,395.8L1202.1,395.8z"/>
	<polygon class="st3" points="1488.9,276.6 1353.8,368.6 1218.7,460.5 1206.7,439.6 1194.6,418.7 1341.7,347.6 "/>
	<path class="st2" d="M1535,251.8l-38.1,39.7c-0.5,0.3-1.2,0.3-1.7,0c-0.6-0.2-1-0.7-1.1-1.3c-0.7-5-2.5-9.8-5.1-14.2
	c-2.4-4.4-5.7-8.3-9.5-11.5c-0.8-0.4-1.1-1.3-0.8-2.1c0.2-0.3,0.4-0.6,0.8-0.8l54-12.8c0.7-0.1,1.4,0.1,1.8,0.7
	C1535.7,250.4,1535.6,251.3,1535,251.8z"/>
	<g class="st8">
	<path class="st9" d="M811.9,493.5c-6.3,0-11.3-5-11-11l0,0v-94c-0.3-6.1,4.3-11.3,10.4-11.7c6.1-0.3,11.3,4.3,11.7,10.4v95.2
		C822.9,488.1,817.9,493.2,811.9,493.5z"/>
		<path class="st9" d="M860.4,446.2h-93.9c-6.1,0.2-11.2-4.6-11.3-10.7c-0.2-6.1,4.6-11.2,10.7-11.3h94.5c6.1-0.1,11.1,4.7,11.4,10.7
		C872.1,440.9,866.8,446.2,860.4,446.2L860.4,446.2z"/>
</g>
</svg>
