<?xml version="1.0" encoding="utf-8"?>
<!-- Generator: Adobe Illustrator 25.0.0, SVG Export Plug-In . SVG Version: 6.00 Build 0)  -->
<svg version="1.1" id="Layer_1" xmlns="http://www.w3.org/2000/svg" x="0px" y="0px"
	 viewBox="0 0 3542.8 701.6" style="enable-background:new 0 0 3542.8 701.6;" xml:space="preserve">
<style type="text/css">
	.st0{fill:#77C116;}
	.st1{fill:#0A3851;}
	.st2{opacity:0.75;}
	.st3{fill:#51555F;}
	.st4{fill:#7F54B3;}
	.st5{fill:#565A63;}
	.st6{fill-rule:evenodd;clip-rule:evenodd;fill:#B59CD3;}
	.st7{fill-rule:evenodd;clip-rule:evenodd;fill:#A080C6;}
	.st8{fill-rule:evenodd;clip-rule:evenodd;fill:#9572C0;}
	.st9{fill-rule:evenodd;clip-rule:evenodd;fill:#8B64B9;}
	.st10{fill-rule:evenodd;clip-rule:evenodd;fill:#7F54B3;}
	.st11{fill-rule:evenodd;clip-rule:evenodd;fill:#51555F;}
</style>
	<g>
	<path class="st0" d="M546.2,112.3h-28.7l-4.8,13.8h-15.2l25.9-72.3h16.9l25.9,72.3H551L546.2,112.3z M542.3,100.7l-10.4-30.2
		l-10.4,30.2H542.3z"/>
		<path class="st0" d="M590.9,121.7c-5.7-3.4-10.3-8.3-13.5-14.1c-6.6-12.8-6.6-28,0-40.7c3.1-5.8,7.8-10.7,13.5-14.1
		c11.5-6.8,25.8-6.8,37.3,0c5.6,3.4,10.3,8.3,13.3,14.1c6.5,12.8,6.5,27.9,0,40.7c-3.1,5.8-7.7,10.7-13.4,14.1
		C616.7,128.5,602.4,128.5,590.9,121.7z M621,109.8c3.4-2.2,6.1-5.3,7.8-9c1.9-4.3,2.9-8.9,2.8-13.6c0.1-4.7-0.8-9.3-2.8-13.5
		c-1.7-3.7-4.4-6.8-7.8-8.9c-3.5-2.1-7.4-3.2-11.5-3.1c-4.1-0.1-8.1,1-11.5,3.1s-6.1,5.2-7.8,8.9c-1.9,4.2-2.9,8.9-2.8,13.5
		c-0.1,4.7,0.9,9.3,2.8,13.6c5.3,10.8,18.3,15.2,29.1,9.9C619.9,110.5,620.5,110.2,621,109.8z"/>
		<path class="st1" d="M686.9,465c0.1,69.6-22.2,137.4-63.6,193.4h-86.7c54.5-49.5,85.6-119.7,85.5-193.4
		c0-144.3-116.9-261.2-261.2-261.2S99.8,320.8,99.8,465c-0.1,73.6,31,143.9,85.6,193.4H98.6C57.2,602.4,34.9,534.6,35,465
		c0-180,145.9-325.9,326-325.9S686.9,285,686.9,465z"/>
		<path class="st0"
			  d="M550.2,307.4L369.9,498.9c-10.5,10.5-27.6,10.5-38.1,0s-10.5-27.6,0-38.1l7.6-5.4L550.2,307.4z"/>
		<path class="st0" d="M339.4,455.4l-7.6,5.4C334,458.5,336.6,456.7,339.4,455.4z"/>
		<rect x="346.6" y="219.9" class="st0" width="28.8" height="48.3"/>

		<rect x="549.9" y="413" transform="matrix(0.9976 -6.982627e-02 6.982627e-02 0.9976 -28.2516 41.1292)"
			  class="st0" width="48.5" height="23.3"/>

		<rect x="130.7" y="398.3" transform="matrix(0.1082 -0.9941 0.9941 0.1082 -293.0676 518.2621)" class="st0"
			  width="23.2" height="48.3"/>

		<rect x="148.7" y="566.8" transform="matrix(0.7426 -0.6698 0.6698 0.7426 -342.8791 264.6308)" class="st0"
			  width="48.3" height="23.2"/>

		<rect x="542.1" y="549.9" transform="matrix(0.6698 -0.7426 0.7426 0.6698 -243.4395 600.7343)" class="st0"
			  width="23.2" height="48.3"/>

		<rect x="205.9" y="272.3" transform="matrix(0.6698 -0.7426 0.7426 0.6698 -148.3434 259.4057)" class="st0"
			  width="23.2" height="48.3"/>

		<rect x="474.1" y="284.8" transform="matrix(0.7426 -0.6698 0.6698 0.7426 -70.2721 410.0222)" class="st0"
			  width="48.3" height="23.2"/>
</g>
	<g class="st2">
	<path class="st3" d="M811.9,493.5c-6.3,0-11.3-5-11-11l0,0v-94c-0.3-6.1,4.3-11.3,10.4-11.7c6.1-0.3,11.3,4.3,11.7,10.4v95.2
		C822.9,488.1,817.9,493.2,811.9,493.5z"/>
		<path class="st3" d="M860.4,446.2h-93.9c-6.1,0.2-11.2-4.6-11.3-10.7c-0.2-6.1,4.6-11.2,10.7-11.3h94.5c6.1-0.1,11.1,4.7,11.4,10.7
		C872.1,440.9,866.8,446.2,860.4,446.2L860.4,446.2z"/>
</g>
	<g>
	<path class="st4" d="M1553.2,578.5V314.9h117.6c12.2,0,23,2.7,33.8,8.1s18.9,12.2,27,20.3c8.1,8.1,13.5,17.6,17.6,28.4
		c4.1,10.8,6.8,21.6,6.8,32.4s-1.4,21.6-5.4,32.4c-4.1,10.8-9.5,18.9-16.2,27s-16.2,13.5-25.7,17.6l60.8,100h-56.8l-54.1-89.2h-51.4
		v89.2h-54.1V578.5z M1604.5,444.7h64.9c6.8,0,12.2-1.4,17.6-5.4c5.4-4.1,9.5-9.5,12.2-14.9c2.7-6.8,4.1-13.5,4.1-21.6
		s-1.4-14.9-5.4-21.6c-4.1-6.8-8.1-12.2-13.5-14.9c-5.4-4.1-10.8-6.8-17.6-6.8h-62.2V444.7z"/>
		<path class="st4" d="M1778.9,521.8c0-12.2,4.1-23,10.8-32.4c6.8-9.5,16.2-16.2,29.7-21.6c12.2-5.4,27-8.1,43.3-8.1
		c8.1,0,16.2,0,24.3,1.4c8.1,1.4,16.2,2.7,21.6,5.4v-10.8c0-12.2-4.1-21.6-10.8-28.4c-6.8-6.8-17.6-9.5-32.4-9.5
		c-10.8,0-21.6,1.4-31.1,5.4c-9.5,4.1-20.3,9.5-31.1,16.2l-16.2-32.4c12.2-8.1,25.7-14.9,39.2-18.9c13.5-4.1,28.4-6.8,43.3-6.8
		c28.4,0,50,6.8,64.9,20.3c14.9,13.5,23,33.8,23,59.5v60.8c0,5.4,1.4,9.5,2.7,10.8c1.4,2.7,5.4,4.1,9.5,4.1v40.6
		c-4.1,1.4-8.1,1.4-12.2,1.4s-6.8,0-9.5,0c-9.5,0-17.6-2.7-23-6.8c-5.4-4.1-8.1-9.5-9.5-16.2l2.7-6.8c-8.1,10.8-18.9,18.9-32.4,25.7
		c-12.2,5.4-25.7,9.5-39.2,9.5s-24.3-2.7-35.1-8.1c-10.8-5.4-18.9-12.2-24.3-21.6C1781.6,543.4,1778.9,533.9,1778.9,521.8z
		 M1900.5,531.2c2.7-2.7,5.4-5.4,6.8-8.1s2.7-5.4,2.7-8.1v-18.9c-5.4-2.7-12.2-4.1-18.9-5.4s-13.5-1.4-20.3-1.4
		c-13.5,0-23,2.7-32.4,8.1c-8.1,5.4-12.2,12.2-12.2,21.6c0,5.4,1.4,9.5,4.1,13.5c2.7,4.1,6.8,8.1,12.2,10.8
		c5.4,2.7,10.8,4.1,18.9,4.1c8.1,0,14.9-1.4,21.6-4.1C1889.7,539.3,1896.5,535.3,1900.5,531.2z"/>
		<path class="st4" d="M2123.6,582.6c-14.9,0-28.4-4.1-40.6-10.8c-12.2-6.8-20.3-16.2-27-27v113.5h-50v-273h43.3V419
		c8.1-10.8,16.2-20.3,28.4-27c10.8-6.8,24.3-9.5,39.2-9.5c13.5,0,25.7,2.7,36.5,8.1c10.8,5.4,20.3,12.2,28.4,21.6
		c8.1,9.5,14.9,20.3,18.9,32.4c4.1,12.2,6.8,24.3,6.8,37.8c0,18.9-4.1,35.1-10.8,51.4c-6.8,14.9-17.6,27-29.7,36.5
		C2154.7,578.5,2139.8,582.6,2123.6,582.6z M2106,540.7c8.1,0,14.9-1.4,20.3-5.4c6.8-2.7,12.2-6.8,16.2-12.2
		c4.1-5.4,8.1-12.2,10.8-18.9s4.1-14.9,4.1-21.6c0-8.1-1.4-14.9-4.1-21.6c-2.7-6.8-6.8-13.5-10.8-17.6c-5.4-5.4-10.8-9.5-17.6-12.2
		c-6.8-2.7-13.5-4.1-21.6-4.1c-4.1,0-9.5,1.4-13.5,2.7c-5.4,1.4-9.5,4.1-13.5,6.8c-4.1,2.7-8.1,6.8-12.2,9.5
		c-2.7,4.1-5.4,8.1-8.1,13.5v46c2.7,6.8,6.8,13.5,12.2,18.9c5.4,5.4,10.8,10.8,17.6,13.5C2092.5,539.3,2099.2,540.7,2106,540.7z"/>
		<path class="st4"
			  d="M2242.5,356.8v-48.7h50v48.7H2242.5z M2242.5,578.5V383.9h50v194.6C2292.5,578.5,2242.5,578.5,2242.5,578.5z"
		/>
		<path class="st4" d="M2325,482.6c0-18.9,4.1-35.1,10.8-50c8.1-14.9,17.6-27,31.1-36.5s28.4-13.5,44.6-13.5c13.5,0,27,4.1,39.2,10.8
		c12.2,6.8,20.3,16.2,27,27V306.8h50v216.3c0,5.4,1.4,9.5,2.7,10.8c1.4,2.7,4.1,4.1,9.5,4.1v40.6c-9.5,1.4-16.2,2.7-21.6,2.7
		c-9.5,0-16.2-1.4-21.6-6.8c-5.4-4.1-9.5-10.8-9.5-17.6l-1.4-12.2c-6.8,12.2-17.6,21.6-29.7,28.4c-12.2,6.8-25.7,9.5-39.2,9.5
		s-25.7-2.7-36.5-8.1c-10.8-5.4-21.6-12.2-29.7-21.6s-14.9-20.3-18.9-32.4C2327.7,509.6,2325,496.1,2325,482.6z M2477.7,508.2v-44.6
		c-2.7-6.8-6.8-13.5-12.2-18.9c-5.4-5.4-12.2-9.5-17.6-13.5c-6.8-2.7-13.5-5.4-20.3-5.4c-8.1,0-14.9,1.4-20.3,5.4
		c-6.8,2.7-12.2,6.8-16.2,12.2c-4.1,5.4-8.1,12.2-10.8,18.9c-2.7,6.8-4.1,14.9-4.1,21.6c0,8.1,1.4,14.9,4.1,23
		c2.7,6.8,6.8,13.5,10.8,18.9s10.8,9.5,17.6,12.2c6.8,2.7,13.5,4.1,21.6,4.1c5.4,0,9.5-1.4,14.9-2.7c4.1-1.4,9.5-4.1,13.5-6.8
		s8.1-6.8,12.2-10.8C2473.7,517.7,2476.4,512.3,2477.7,508.2z"/>
		<path class="st5" d="M2581.8,578.5V314.9h51.4v219h135.2v44.6H2581.8z"/>
		<path class="st5" d="M2881.9,582.6c-16.2,0-29.7-2.7-43.3-8.1c-12.2-5.4-23-12.2-32.4-21.6s-16.2-20.3-20.3-32.4
		c-4.1-12.2-6.8-24.3-6.8-37.8c0-13.5,2.7-27,6.8-39.2s10.8-23,20.3-32.4c9.5-9.5,18.9-16.2,32.4-21.6c12.2-5.4,27-8.1,41.9-8.1
		c16.2,0,31.1,2.7,43.3,8.1c12.2,5.4,23,12.2,32.4,21.6s16.2,20.3,20.3,32.4s6.8,24.3,6.8,39.2c0,13.5-2.7,25.7-6.8,37.8
		c-4.1,12.2-12.2,23-20.3,32.4c-9.5,9.5-20.3,16.2-32.4,21.6C2913,579.9,2898.1,582.6,2881.9,582.6z M2831.9,482.6
		c0,10.8,2.7,20.3,6.8,29.7c4.1,8.1,10.8,16.2,18.9,20.3c8.1,5.4,16.2,6.8,25.7,6.8s17.6-2.7,25.7-8.1c8.1-5.4,13.5-12.2,18.9-20.3
		c4.1-8.1,6.8-18.9,6.8-29.7s-2.7-20.3-6.8-29.7c-4.1-8.1-10.8-14.9-18.9-20.3c-8.1-5.4-16.2-8.1-25.7-8.1s-17.6,2.7-25.7,8.1
		c-8.1,5.4-13.5,12.2-17.6,20.3C2833.2,462.3,2831.9,471.7,2831.9,482.6z"/>
		<path class="st5" d="M3004.9,521.8c0-12.2,4.1-23,10.8-32.4c6.8-9.5,16.2-16.2,29.7-21.6c12.2-5.4,27-8.1,43.3-8.1
		c8.1,0,16.2,0,24.3,1.4s16.2,2.7,21.6,5.4v-10.8c0-12.2-4.1-21.6-10.8-28.4c-6.8-6.8-17.6-9.5-32.4-9.5c-10.8,0-21.6,1.4-31.1,5.4
		c-9.5,4.1-20.3,9.5-31.1,16.2l-16.2-32.4c12.2-8.1,25.7-14.9,39.2-18.9c13.5-4.1,28.4-6.8,43.3-6.8c28.4,0,50,6.8,64.9,20.3
		c14.9,13.5,23,33.8,23,59.5v60.8c0,5.4,1.4,9.5,2.7,10.8c1.4,2.7,5.4,4.1,9.5,4.1v40.6c-4.1,1.4-8.1,1.4-12.2,1.4s-6.8,0-9.5,0
		c-9.5,0-17.6-2.7-23-6.8c-5.4-4.1-8.1-9.5-9.5-16.2l-1.4-9.5c-8.1,10.8-18.9,18.9-32.4,25.7c-12.2,5.4-25.7,9.5-39.2,9.5
		c-13.5,0-24.3-2.7-35.1-8.1c-10.8-5.4-18.9-12.2-24.3-21.6C3007.6,543.4,3004.9,533.9,3004.9,521.8z M3125.2,531.2
		c2.7-2.7,5.4-5.4,6.8-8.1s2.7-5.4,2.7-8.1v-18.9c-5.4-2.7-12.2-4.1-18.9-5.4c-6.8-1.4-13.5-1.4-20.3-1.4c-13.5,0-23,2.7-32.4,8.1
		c-8.1,5.4-12.2,12.2-12.2,21.6c0,5.4,1.4,9.5,4.1,13.5c2.7,4.1,6.8,8.1,12.2,10.8c5.4,2.7,10.8,4.1,18.9,4.1
		c8.1,0,14.9-1.4,21.6-4.1C3114.4,540.7,3121.1,535.3,3125.2,531.2z"/>
		<path class="st5" d="M3219.8,482.6c0-18.9,4.1-35.1,10.8-50c8.1-14.9,17.6-27,31.1-36.5c13.5-9.5,28.4-13.5,44.6-13.5
		c13.5,0,27,4.1,39.2,10.8s20.3,16.2,27,27V306.8h50v216.3c0,5.4,1.4,9.5,2.7,10.8c1.4,2.7,4.1,4.1,9.5,4.1v40.6
		c-9.5,1.4-16.2,2.7-21.6,2.7c-9.5,0-16.2-1.4-21.6-6.8c-5.4-4.1-9.5-10.8-9.5-17.6l-1.4-12.2c-6.8,12.2-17.6,21.6-29.7,28.4
		c-12.2,6.8-25.7,9.5-39.2,9.5c-13.5,0-25.7-2.7-36.5-8.1c-10.8-5.4-21.6-12.2-29.7-21.6s-14.9-20.3-18.9-32.4
		C3222.5,509.6,3219.8,496.1,3219.8,482.6z M3372.6,508.2v-44.6c-2.7-6.8-6.8-13.5-12.2-18.9c-5.4-5.4-12.2-9.5-17.6-13.5
		c-6.8-2.7-13.5-5.4-20.3-5.4c-8.1,0-14.9,1.4-20.3,5.4c-6.8,2.7-12.2,6.8-16.2,12.2c-4.1,5.4-8.1,12.2-10.8,18.9
		c-2.7,6.8-4.1,14.9-4.1,21.6c0,8.1,1.4,14.9,4.1,23c2.7,6.8,6.8,13.5,10.8,18.9s10.8,9.5,17.6,12.2s13.5,4.1,21.6,4.1
		c5.4,0,9.5-1.4,14.9-2.7c4.1-1.4,9.5-4.1,13.5-6.8s8.1-6.8,12.2-10.8C3368.5,517.7,3371.2,512.3,3372.6,508.2z"/>
</g>
	<g>
	<path class="st6" d="M1190.9,684c141.9-8.1,251.4-129.8,243.3-271.7c-1.4-23-5.4-44.6-12.2-66.2l-4.1,2.7
		c6.8,21.6,10.8,44.6,10.8,67.6c0,124.4-101.4,224.4-225.7,224.4c-4.1,0-8.1,0-12.2,0V684z"/>
		<path class="st7"
			  d="M965.2,571.8c46,67.6,121.7,109.5,202.8,112.2v-46c-63.5-10.8-117.6-39.2-152.7-94.6L965.2,571.8z"/>
		<path class="st8"
			  d="M942.2,310.9c-32.4,78.4-28.4,166.3,10.8,240.6l51.4-29.7c-25.7-55.4-24.3-119,4.1-173L942.2,310.9z"/>
		<path class="st9"
			  d="M1167.9,141.9c-91.9,10.8-173,66.2-216.3,147.3l67.6,39.2c33.8-50,87.9-81.1,147.3-85.2V141.9H1167.9z"/>
		<path class="st10"
			  d="M1423.4,250.1c-55.4-71.6-141.9-113.5-231.1-110.8V242c48.7,2.7,93.3,21.6,128.4,55.4L1423.4,250.1z"/>
		<path class="st11" d="M1180.1,386.6c25.7,0,47.3,20.3,47.3,47.3c0,25.7-20.3,47.3-47.3,47.3c-25.7,0-47.3-20.3-47.3-47.3l0,0
		C1132.8,408.2,1154.4,386.6,1180.1,386.6L1180.1,386.6z"/>
		<polygon class="st11"
				 points="1477.5,263.6 1336.9,359.6 1196.3,454.2 1184.1,432.5 1172,410.9 1324.7,337.9 	"/>
		<path class="st10" d="M1524.8,237.9l-39.2,40.6h-1.4l-1.4-1.4c-1.4-5.4-2.7-10.8-5.4-14.9c-2.7-4.1-5.4-8.1-9.5-12.2
		c-1.4,0-1.4-1.4-1.4-2.7c0,0,0,0,1.4-1.4l55.4-13.5c1.4,0,1.4,0,1.4,1.4C1526.1,236.5,1526.1,237.9,1524.8,237.9z"/>
</g>
</svg>
