<svg xmlns="http://www.w3.org/2000/svg" viewBox="0 0 291.73 244.99">
    <defs>
        <style>
            .cls-1{isolation:isolate;}.cls-2{fill:#f9f7fc;}.cls-3{fill:#dbcaef;}.cls-4{fill:#ceb2ea;}.cls-5,.cls-9{fill:#7b3ea3;}.cls-6{fill:#884ab0;}.cls-7{fill:#9f64c4;}.cls-8{fill:#673387;}.cls-9{opacity:0.24;mix-blend-mode:multiply;}.cls-10{fill:#e05edc;}.cls-11{fill:#e57f7f;}.cls-12{fill:#e23b3b;}.cls-13{fill:#d82b2b;}.cls-14{fill:#214a81;}.cls-15{fill:#fff;}.cls-16{fill:#cee0f0;}.cls-17{fill:#dd5f5f;}.cls-18{fill:#ce3232;}.cls-19{fill:#3464a3;}.cls-20{fill:#c9a6e0;}.cls-21{fill:#d8baeb;}.cls-22{fill:#e7d5f2;}.cls-23{fill:#e87de5;}.cls-24{fill:#c445c1;}
        </style>
    </defs>
    <title>Artboard 3</title>
    <g class="cls-1">
        <g id="OBJECTS">
            <path class="cls-2"
                  d="M292.07.44V244.61a2.05,2.05,0,0,1-.34.38,2.45,2.45,0,0,1-1.68.66h0l-10.11,0-63.44.1-26.12,0-50.82.08-21.19,0L75.29,246,54.1,246l-24.14,0-26,0s0-.06,0-.18c.38-4,7.5-74.54,42.25-78.52,35.77-4.11,39-58.33,38.37-67.2S93,55.1,114.24,43.83c17.53-9.3,70.71,17.91,78.56-8.89C199.31-4.93,284.88,0,292.07.44Z"/>
            <path class="cls-3"
                  d="M292.07,9.6v235a2.05,2.05,0,0,1-.34.38,2.45,2.45,0,0,1-1.68.66h0l-10.12,0-55.52.23-149.09.61c0-.15,0-.33,0-.54L54.1,246l-24.14,0s0-.09,0-.14c1.26-11,25.26-68.82,47.39-78.52,22.72-10,22.79-59,23.44-71.33s9.11-41,42.33-37.4,59.36,11.5,70.14-22.43C223.52,4,286,9,292.07,9.6Z"/>
            <path class="cls-4"
                  d="M292.07,29V244.61a2.05,2.05,0,0,1-.34.38,2.45,2.45,0,0,1-1.68.66h0l-10.12,0-49.45.22-155.15.7a.28.28,0,0,1,0-.09c0-.15,0-.33,0-.54L54.1,246s0-.06,0-.1c.81-4.62,5.14-28.33,11.57-46.45,7.15-20.16,58.53-37.72,54.75-76.52s36.94-52.9,50.6-50.29S219.16,74,228.77,44C237.84,15.78,286.7,27.57,292.07,29Z"/>
            <path class="cls-5"
                  d="M292.07,61.18V244.61a2.05,2.05,0,0,1-.34.38,2.45,2.45,0,0,1-1.68.66h0l-10.12,0-44.05.22-160.55.8v-.1a.28.28,0,0,1,0-.09c0-.15,0-.33,0-.54a.09.09,0,0,1,0-.07c-.12-7.86,3.86-48.84,32.86-54.26,30.2-5.63,31.52-19.94,31.52-59.29s48.58-43.89,62.15-42.45,33.7-15.31,44.9-25.72C257.13,54.52,287.86,60.33,292.07,61.18Z"/>
            <path class="cls-6"
                  d="M292.07,76.84V245.23a2.18,2.18,0,0,1-1.61.69H102.32a59.94,59.94,0,0,1-.6-28.27c.17-.67.35-1.33.55-2a28.6,28.6,0,0,1,2.74-6.32c.33-.54.67-1.06,1-1.56.18-.25.37-.49.56-.73.39-.48.8-.93,1.22-1.36a15.3,15.3,0,0,1,4.45-3.11c.86-.39,1.74-.73,2.63-1a48.11,48.11,0,0,1,11.22-2.14h0l1.55-.13c.93-.08,1.87-.14,2.8-.2l1.45-.1,2.9-.19,1.65-.13c.36,0,.72-.06,1.09-.1h.15l1.73-.19c.46-.05.92-.11,1.37-.18s.84-.11,1.25-.18l1.34-.23c1.22-.23,2.43-.51,3.61-.84l.69-.2q1.36-.4,2.67-.93l.64-.27c.43-.18.85-.38,1.27-.59l.54-.27c.43-.24.85-.48,1.27-.74l.58-.37.58-.4c.18-.12.36-.26.54-.4l.54-.43.56-.48a4,4,0,0,0,.43-.4c.35-.33.68-.67,1-1a17.3,17.3,0,0,0,1.65-2.1c.25-.36.48-.74.71-1.12.11-.19.22-.38.32-.57s.21-.39.31-.59a22.66,22.66,0,0,0,1-2.42c.1-.28.2-.57.29-.86.18-.55.34-1.11.49-1.68s.31-1.36.43-2.06l.09-.56c0-.28.09-.57.12-.86,0,0,0-.08,0-.12.05-.43.1-.87.13-1.3l0-.39c0-.39.05-.79.07-1.18s0-.56,0-.84,0-.55,0-.83c0-.52,0-1,0-1.56s0-1.14-.11-1.71-.09-1.12-.16-1.68c-1-8.69-3.91-17.26-3.32-26a33.16,33.16,0,0,1,8.69-19.6c.4-.45.8-.89,1.22-1.32a43.19,43.19,0,0,1,7-5.84c.51-.34,1-.67,1.55-1,.26-.16.53-.33.8-.48l1.34-.74a43.65,43.65,0,0,1,7.16-3.08c1-.34,2.09-.64,3.15-.91a0,0,0,0,1,0,0,40.18,40.18,0,0,1,11.1-1.19c.48,0,1,0,1.44.07l.91.08c1.27.12,2.53.29,3.78.5l1,.18h0c3,.54,5.91,1.27,8.87,1.93l1.55.34c1,.23,2.07.44,3.11.62l1.57.27c.48.07.95.14,1.41.19a27.33,27.33,0,0,0,7.43,0,10.43,10.43,0,0,0,1.14-.21,14.83,14.83,0,0,0,1.56-.41,16.09,16.09,0,0,0,2.51-1c.09-.06.18-.1.27-.15h0l0,0h0a13,13,0,0,0,1.34-.82,13.8,13.8,0,0,0,1.23-.94c.44-.37.87-.76,1.27-1.17a26.18,26.18,0,0,0,2.31-2.68c.73-1,1.42-2,2.1-3,.17-.27.35-.54.52-.82.68-1.09,1.36-2.23,2.06-3.4s1.42-2.35,2.19-3.55A22.56,22.56,0,0,1,254,91.36c.33-.4.66-.78,1-1.16l.53-.55.54-.55C264.72,80.49,279.72,75.82,292.07,76.84Z"/>
            <path class="cls-6"
                  d="M292.07,76.84V245.23a2.18,2.18,0,0,1-1.61.69H102.32a59.94,59.94,0,0,1-.6-28.27c.17-.67.35-1.33.55-2a28.6,28.6,0,0,1,2.74-6.32c.33-.54.67-1.06,1-1.56.18-.25.37-.49.56-.73.39-.48.8-.93,1.22-1.36a15.3,15.3,0,0,1,4.45-3.11c.86-.39,1.74-.73,2.63-1a48.11,48.11,0,0,1,11.22-2.14h0l1.55-.13c.93-.08,1.87-.14,2.8-.2l1.45-.1,2.9-.19,1.65-.13c.36,0,.72-.06,1.09-.1h.15l1.73-.19c.46-.05.92-.11,1.37-.18s.84-.11,1.25-.18l1.34-.23c1.22-.23,2.43-.51,3.61-.84l.69-.2q1.36-.4,2.67-.93l.64-.27c.43-.18.85-.38,1.27-.59l.54-.27c.43-.24.85-.48,1.27-.74l.58-.37.58-.4c.18-.12.36-.26.54-.4l.54-.43.56-.48a4,4,0,0,0,.43-.4c.35-.33.68-.67,1-1a17.3,17.3,0,0,0,1.65-2.1c.25-.36.48-.74.71-1.12.11-.19.22-.38.32-.57s.21-.39.31-.59a22.66,22.66,0,0,0,1-2.42c.1-.28.2-.57.29-.86.18-.55.34-1.11.49-1.68s.31-1.36.43-2.06l.09-.56c0-.28.09-.57.12-.86,0,0,0-.08,0-.12.05-.43.1-.87.13-1.3l0-.39c0-.39.05-.79.07-1.18s0-.56,0-.84,0-.55,0-.83c0-.52,0-1,0-1.56s0-1.14-.11-1.71-.09-1.12-.16-1.68c-1-8.69-3.91-17.26-3.32-26a33.16,33.16,0,0,1,8.69-19.6c.4-.45.8-.89,1.22-1.32a43.19,43.19,0,0,1,7-5.84c.51-.34,1-.67,1.55-1,.26-.16.53-.33.8-.48l1.34-.74a43.65,43.65,0,0,1,7.16-3.08c1-.34,2.09-.64,3.15-.91a0,0,0,0,1,0,0,40.18,40.18,0,0,1,11.1-1.19c.48,0,1,0,1.44.07l.91.08c1.27.12,2.53.29,3.78.5l1,.18h0c3,.54,5.91,1.27,8.87,1.93l1.55.34c1,.23,2.07.44,3.11.62l1.57.27c.48.07.95.14,1.41.19a27.33,27.33,0,0,0,7.43,0,10.43,10.43,0,0,0,1.14-.21,14.83,14.83,0,0,0,1.56-.41,16.09,16.09,0,0,0,2.51-1c.09-.06.18-.1.27-.15h0l0,0h0a13,13,0,0,0,1.34-.82,13.8,13.8,0,0,0,1.23-.94c.44-.37.87-.76,1.27-1.17a26.18,26.18,0,0,0,2.31-2.68c.73-1,1.42-2,2.1-3,.17-.27.35-.54.52-.82.68-1.09,1.36-2.23,2.06-3.4s1.42-2.35,2.19-3.55A22.56,22.56,0,0,1,254,91.36c.33-.4.66-.78,1-1.16l.53-.55.54-.55C264.72,80.49,279.72,75.82,292.07,76.84Z"/>
            <path class="cls-7"
                  d="M292.07,135.09v1.56l-18.9,16.53-3.31,2.89-2.58-3.7h0l-10.92-15.61L255.11,135l-1.2,1.8L243,153.24l-5.34,8-.53-.9v0l-.41-.71-10.47-17.92-.18-.31-1.44,1.27-1,.87-1.78,1.57-3.8,3.35h0l-8,7-.36.33,0,0-6.78,6h0l-3,2.62-6.66,5.87L190,173.23l-2.72-2.59L179,162.72,177.12,161l-1.89,1.74-7.63,7L164.08,173c0-.52,0-1,0-1.56l3.31-3,7-6.44,2.78-2.57,2.73,2.61L188,169.7l2,1.94,2.45-2.16,8.57-7.56h0l3.3-2.9,5-4.43,0,0,.34-.3h0l3.23-2.84,9.45-8.33,1.1-1,.67-.59,2.2-1.94.73,1.24h0l10,17.21h0l.49.81s0,0,0,0h0l.07.13,4.67-7,10.47-15.77,2.23-3.36,2.32,3.32,10.8,15.45,1.9,2.7,2.42-2.11h0Z"/>
            <ellipse class="cls-7" cx="177.12" cy="160.14" rx="3.39" ry="3.07"/>
            <path class="cls-7" d="M193.74,171.89a3.41,3.41,0,1,1-3.39-3.07A3.24,3.24,0,0,1,193.74,171.89Z"/>
            <path class="cls-7" d="M258.49,133.9a3.41,3.41,0,1,1-3.39-3.07A3.25,3.25,0,0,1,258.49,133.9Z"/>
            <path class="cls-7" d="M273.37,154.22a3.41,3.41,0,1,1-3.39-3.07A3.25,3.25,0,0,1,273.37,154.22Z"/>
            <path class="cls-8"
                  d="M292,171.89V244a1.7,1.7,0,0,1-.29,1,2.15,2.15,0,0,1-1.8.93H101.79c-3.47-11.72-3.75-37.09,9.95-43.33,6.89-3.13,14.88-3.25,22.56-3.8,1.54-.1,3.09-.24,4.63-.43,6.21-.73,12.34-2.27,16.9-6,4.17-3.44,6.34-8.21,7.23-13.3h5.76a2.41,2.41,0,0,1,2.52,2.28v10.06a2.41,2.41,0,0,0,2.53,2.28H175a2.42,2.42,0,0,1,2.53,2.29v4.12a2.41,2.41,0,0,0,2.52,2.29h6.11a2.41,2.41,0,0,0,2.52-2.29V188a2.2,2.2,0,0,1,.74-1.62l5-4.49a2.72,2.72,0,0,1,3.57,0l4.45,4a2.2,2.2,0,0,1,.74,1.62v7.24a2.41,2.41,0,0,0,2.53,2.28,2.61,2.61,0,0,0,1.78-.67,2.15,2.15,0,0,0,.74-1.61v-3.51a2.41,2.41,0,0,1,2.52-2.28h13.83a2.41,2.41,0,0,1,2.53,2.28v8.84a2.41,2.41,0,0,0,2.52,2.29h6.12a2.64,2.64,0,0,0,1.78-.67l1.39-1.26,5.9-5.32a2.72,2.72,0,0,1,3.57,0l6.67,6a2.16,2.16,0,0,1,.74,1.62v2.34a2.41,2.41,0,0,0,2.53,2.28H260a2.41,2.41,0,0,0,2.53-2.28V194.15a2.16,2.16,0,0,1,.74-1.62l4-3.62a2.72,2.72,0,0,1,3.57,0l4.3,3.89a2.2,2.2,0,0,1,.74,1.62v4.15a2.42,2.42,0,0,0,2.53,2.29h.71a2.42,2.42,0,0,0,2.53-2.29V185.19a2.41,2.41,0,0,1,2.52-2.28h2.09a2.41,2.41,0,0,0,2.53-2.28v-6.46a2.41,2.41,0,0,1,2.52-2.28Z"/>
            <path class="cls-9"
                  d="M292.07,76.84v6.09c-13.49.33-28.73,6.68-35.39,17-5.07,7.91-8.12,15.35-16.14,17.73,0,0,0,0,0,0l-.31.09a21.22,21.22,0,0,1-5.68.7,31.55,31.55,0,0,1-4.27-.31h0l-.93-.13c-.48-.07-1-.15-1.42-.24-1.23-.22-2.45-.46-3.66-.73-1-.22-2.05-.46-3.08-.7h0c-1.48-.34-2.95-.68-4.43-1a65,65,0,0,0-7.35-1.18l-1-.09h0c-21.19-1.39-42,14.86-43.31,34.09-.46,6.75,1.17,13.42,2.4,20.12.08.45.17.91.25,1.36.26,1.5.49,3,.67,4.5a42.86,42.86,0,0,1,.31,4.82c0,7.29-1.89,14.69-7.73,19.51-5.69,4.7-13.84,5.92-21.52,6.47s-15.68.67-22.56,3.8c-10.86,4.94-12.93,21.88-11.6,34.54.09.88.2,1.74.32,2.57h-3.17a59.94,59.94,0,0,1-.6-28.27c.17-.67.35-1.33.55-2a28.6,28.6,0,0,1,2.74-6.32c.33-.54.67-1.06,1-1.56.18-.25.37-.49.56-.73.39-.48.8-.93,1.22-1.36a15.3,15.3,0,0,1,4.45-3.11c.86-.39,1.74-.73,2.63-1a49,49,0,0,1,11.22-2.14h0l1.55-.13c.93-.08,1.87-.14,2.8-.2l1.45-.1,2.9-.19,1.65-.13,1.09-.1h.15l1.73-.19c.46-.05.92-.11,1.37-.18s.84-.11,1.25-.18l1.34-.23c1.22-.23,2.43-.51,3.61-.84l.69-.2q1.36-.4,2.67-.93l.64-.27c.43-.18.85-.38,1.27-.59l.54-.27c.43-.24.85-.48,1.27-.74l.58-.37.58-.4.54-.4.54-.43.56-.48.43-.4c.35-.33.68-.67,1-1a20.57,20.57,0,0,0,1.65-2.1c.25-.36.48-.74.71-1.12.11-.19.22-.38.32-.57s.21-.39.31-.59a22.66,22.66,0,0,0,1-2.42c.1-.28.2-.57.29-.86.18-.55.34-1.11.49-1.68s.31-1.36.43-2.06l.09-.56c0-.28.09-.57.12-.86,0,0,0-.08,0-.12.05-.43.1-.87.13-1.3l0-.39c0-.39.05-.79.07-1.18s0-.56,0-.84,0-.55,0-.83c0-.52,0-1,0-1.56s0-1.14-.11-1.71-.09-1.12-.16-1.68c-1-8.69-3.91-17.26-3.32-26a33.16,33.16,0,0,1,8.69-19.6c.4-.45.8-.89,1.22-1.32a43.19,43.19,0,0,1,7-5.84c.51-.34,1-.67,1.55-1,.26-.16.53-.33.8-.48l1.34-.74a43.65,43.65,0,0,1,7.16-3.08c1-.35,2.09-.65,3.15-.91a0,0,0,0,1,0,0,40.18,40.18,0,0,1,11.1-1.19c.48,0,1,0,1.44.07l.91.07q1.9.18,3.78.51l1,.18h0c3,.54,5.91,1.27,8.87,1.93l1.55.34c1,.22,2.07.43,3.11.62l1.57.26,1.41.2a27.33,27.33,0,0,0,7.43,0,10.43,10.43,0,0,0,1.14-.21,14.83,14.83,0,0,0,1.56-.41,16.09,16.09,0,0,0,2.51-1c.09-.06.18-.1.27-.15h0l0,0c.47-.26.91-.53,1.34-.82s.83-.61,1.23-.94.87-.76,1.27-1.17a26.18,26.18,0,0,0,2.31-2.68c.73-1,1.42-2,2.1-3,.17-.27.35-.54.52-.82.68-1.09,1.36-2.23,2.06-3.4s1.43-2.35,2.2-3.55A27,27,0,0,1,254,91.36c.33-.4.66-.78,1-1.16l.53-.55.54-.55C264.72,80.49,279.72,75.82,292.07,76.84Z"/>
            <path class="cls-10"
                  d="M200.3,174.64A21.79,21.79,0,0,1,212.74,165l-5-17.61S203.31,156,196,173.78c-.39.95,1,1.78,2,1.78h.66A2,2,0,0,0,200.3,174.64Z"/>
            <path class="cls-11"
                  d="M207.79,147.38S203.31,156,196,173.78c-.3.75.48,1.43,1.32,1.68,2.67-8.67,7-16.65,11.47-24.6Z"/>
            <path class="cls-12"
                  d="M197.3,175.46a2.25,2.25,0,0,0,.66.1h.66a2,2,0,0,0,1.68-.92A21.79,21.79,0,0,1,212.74,165l-4-14.13C204.34,158.81,200,166.79,197.3,175.46Z"/>
            <path class="cls-13"
                  d="M247.64,174.64A21.85,21.85,0,0,0,235.19,165l4.95-17.61s4.48,8.63,11.81,26.4c.39.95-1,1.78-2,1.78h-.66A2,2,0,0,1,247.64,174.64Z"/>
            <path class="cls-14"
                  d="M229.61,170.2H217.85a1,1,0,0,1-1-.78l-.65-2.88a1,1,0,0,1,1-1.22h13a1,1,0,0,1,1,1.22l-.65,2.88A1,1,0,0,1,229.61,170.2Z"/>
            <path class="cls-15"
                  d="M206.8,140.61s1.81,16.73,7.38,27.33a25.29,25.29,0,0,1,19.35,0s6.4-8.95,7.71-28.65c.76-11.36-.15-24.33-3.87-35.5h-26C207.9,112.89,205.43,125.11,206.8,140.61Z"/>
            <path class="cls-15"
                  d="M240.41,117.08a76.75,76.75,0,0,0-3.08-13.25h-26c-3.46,9.1-5.92,21.32-4.55,36.82A113.7,113.7,0,0,0,209,153.13C224.49,147.26,235.84,133.14,240.41,117.08Z"/>
            <path class="cls-16"
                  d="M209,153.13A65.57,65.57,0,0,0,214.15,168a25.33,25.33,0,0,1,19.35,0s6.39-8.94,7.7-28.65a106.51,106.51,0,0,0-.79-22.24C235.84,133.14,224.49,147.26,209,153.13Z"/>
            <path class="cls-10"
                  d="M221.9,85.71a60.3,60.3,0,0,0-10.58,18.12h26c-2.38-7.15-5.92-13.56-10.92-18.35A3.12,3.12,0,0,0,221.9,85.71Z"/>
            <path class="cls-17"
                  d="M224.48,84.65a3.09,3.09,0,0,0-2.58,1.06,60.3,60.3,0,0,0-10.58,18.12h15.24a5.84,5.84,0,0,0,.9-2A30.94,30.94,0,0,0,224.48,84.65Z"/>
            <path class="cls-11"
                  d="M220.63,96.38c1.83-2.78,2.52-5.57,1.55-6.22s-3.24,1.09-5.06,3.88-2.52,5.57-1.55,6.22S218.81,99.17,220.63,96.38Z"/>
            <path class="cls-13"
                  d="M226.41,85.48a3,3,0,0,0-1.93-.83,30.94,30.94,0,0,1,3,17.17,5.84,5.84,0,0,1-.9,2h10.77C235,96.68,231.41,90.27,226.41,85.48Z"/>
            <path class="cls-10"
                  d="M225.59,174.09a53.54,53.54,0,0,0-2.06-34.25,57.68,57.68,0,0,0-1.8,34.19,2,2,0,0,0,1.94,1.53h0A2,2,0,0,0,225.59,174.09Z"/>
            <path class="cls-17" d="M223.35,140.29A58,58,0,0,0,221,170.46C224.21,160.81,224.3,150.55,223.35,140.29Z"/>
            <path class="cls-18"
                  d="M223.53,139.84s-.07.16-.18.45c1,10.26.86,20.52-2.39,30.17.21,1.18.47,2.37.77,3.57a2,2,0,0,0,3.86.06A53.54,53.54,0,0,0,223.53,139.84Z"/>
            <ellipse class="cls-13" cx="224.35" cy="122.81" rx="11.21" ry="10.14"/>
            <ellipse class="cls-14" cx="224.35" cy="122.81" rx="7.78" ry="7.04"/>
            <path class="cls-19"
                  d="M224.92,115.8c-2.15,4-4.06,7.94-6.22,11.84a7.94,7.94,0,0,0,3.56,1.94,140,140,0,0,1,6.16-12.76A8.44,8.44,0,0,0,224.92,115.8Z"/>
            <path class="cls-14"
                  d="M228.42,116.82a140,140,0,0,0-6.16,12.76,8.49,8.49,0,0,0,2.09.27c4.3,0,7.79-3.15,7.79-7A6.89,6.89,0,0,0,228.42,116.82Z"/>
            <path class="cls-14"
                  d="M224.35,115.78c-4.3,0-7.78,3.15-7.78,7a6.64,6.64,0,0,0,2.13,4.83c2.16-3.9,4.07-7.89,6.22-11.84Z"/>
            <path class="cls-15"
                  d="M273.34,116l.84,1.85a.4.4,0,0,0,.22.2l2.05.76a.34.34,0,0,1,0,.66l-2.05.76a.4.4,0,0,0-.22.2l-.84,1.85a.41.41,0,0,1-.73,0l-.84-1.85a.4.4,0,0,0-.22-.2l-2.05-.76a.35.35,0,0,1,0-.66l2.05-.76a.4.4,0,0,0,.22-.2l.84-1.85A.41.41,0,0,1,273.34,116Z"/>
            <path class="cls-15"
                  d="M189.61,142.54l.84,1.86a.42.42,0,0,0,.22.19l2.05.76a.34.34,0,0,1,0,.66l-2.05.76a.4.4,0,0,0-.22.2l-.84,1.85a.41.41,0,0,1-.73,0L188,147a.4.4,0,0,0-.22-.2l-2-.76a.34.34,0,0,1,0-.66l2-.76a.42.42,0,0,0,.22-.19l.84-1.86A.41.41,0,0,1,189.61,142.54Z"/>
            <path class="cls-15"
                  d="M246.41,180.51l.84,1.85a.4.4,0,0,0,.22.2l2.05.75a.35.35,0,0,1,0,.67l-2.05.76a.35.35,0,0,0-.22.19l-.84,1.86a.42.42,0,0,1-.74,0l-.83-1.86a.35.35,0,0,0-.22-.19l-2.05-.76a.35.35,0,0,1,0-.67l2.05-.75a.4.4,0,0,0,.22-.2l.83-1.85A.42.42,0,0,1,246.41,180.51Z"/>
            <path class="cls-20"
                  d="M292.07,220.31v24.92a2.18,2.18,0,0,1-1.61.69H103.9a4.16,4.16,0,0,1,.17-.63,6.44,6.44,0,0,1,1.1-1.94,9,9,0,0,1,5.1-3c2.81-.59,4.32-.78,6.81.55A12.24,12.24,0,0,1,119,226.47a15.68,15.68,0,0,1,15.49-3.71,16.47,16.47,0,0,1,9.18,7.26,9.31,9.31,0,0,1,3.93-7.84,12.05,12.05,0,0,1,13,0,7,7,0,0,1,.85.67c-.21-.29-.41-.6-.59-.91-2.2-3.81-1.29-8.86,1.85-12.15,3.4-3.55,9-5.09,14.12-4.53S187,208.8,190.76,212c13-3.81,19.93-13.82,23.58-23.09a61.51,61.51,0,0,0,4.07-18.74l2.39-.66.51-.14,2.08-.58,3.2.88,1.8.5s.44,17.45,10.54,30.22A33.27,33.27,0,0,0,256,212c3.77-3.23,8.73-6.19,13.89-6.74s10.72,1,14.12,4.53,4.18,9.17,1.25,13.06a10.67,10.67,0,0,1,6.73-2.56S292.05,220.3,292.07,220.31Z"/>
            <path class="cls-21"
                  d="M279.93,245.67s0,0,0,0h0a1.74,1.74,0,0,1-.05.22H190.35a.43.43,0,0,1,0-.11c.55-4.21,2.62-8.33,6.73-10.23a12.22,12.22,0,0,1,3-1,14,14,0,0,1,4-.12h0a12.81,12.81,0,0,1,7.91,3.79,12.43,12.43,0,0,1-.36-2.7c-.25-7.95,6.6-15.86,15.41-17,9.81-1.3,20,6,20.7,15,.32-3.95,5-7.13,9.28-6.29s7.11,5.46,5.6,9.18a11.84,11.84,0,0,1,14.43.24A9.25,9.25,0,0,1,279.93,245.67Z"/>
            <path class="cls-22"
                  d="M216.46,245.91H139.55a8.94,8.94,0,0,1,5.1-9.16,10.88,10.88,0,0,1,12.06,2.1,16.14,16.14,0,0,1,2.84-15.53,14.5,14.5,0,0,1,1.1-1.12l.25-.23a15.78,15.78,0,0,1,14.8-3.23c5,1.64,8.43,6.58,7.84,11.25a9.52,9.52,0,0,1,11-5c5,1.5,7.48,7.66,4.68,11.71a11.74,11.74,0,0,1,13.11-.75A9.36,9.36,0,0,1,216.46,245.91Z"/>
            <ellipse class="cls-23" cx="271.3" cy="177.19" rx="10.86" ry="9.82"/>
            <path class="cls-10"
                  d="M281.86,174.88a10.16,10.16,0,0,0-6.34-6.73,9.62,9.62,0,0,1,3,4.78c1.41,5.27-2.17,10.57-8,11.85a11.91,11.91,0,0,1-6.77-.51,11.64,11.64,0,0,0,10.07,2.46C279.69,185.46,283.27,180.15,281.86,174.88Z"/>
            <path class="cls-24"
                  d="M287.4,174.37c-.38-1.42-3.15-1.7-6.36-1.53h0l.23.43.06.15a.83.83,0,0,1,.07.13,1.54,1.54,0,0,0,.08.19l0,.08.09.24.09.24.06.19a10.43,10.43,0,0,1,3.78.29,9.94,9.94,0,0,1-3.37,1.9c-1,.41-2.25.87-3.73,1.33-1.8.56-3.95,1.14-6.45,1.68a62.75,62.75,0,0,1-10.57,1.53,10.51,10.51,0,0,1-4-.3,9.69,9.69,0,0,1,3.2-1.82h0l-.09-.44-.06-.44c0-.3-.05-.59-.06-.88-2.94,1.17-5.26,2.57-4.88,4s3.45,1.72,6.85,1.49h0a77.39,77.39,0,0,0,10-1.51c.56-.12,2.63-.58,5.06-1.28,1.48-.43,3.1-.94,4.59-1.51C285.21,177.33,287.8,175.87,287.4,174.37Z"/>
        </g>
    </g>
</svg>