<?xml version="1.0" encoding="utf-8"?>
<!-- Generator: Adobe Illustrator 25.0.0, SVG Export Plug-In . SVG Version: 6.00 Build 0)  -->
<svg version="1.1" id="Layer_1" xmlns="http://www.w3.org/2000/svg" x="0px" y="0px"
     viewBox="0 0 191.2 43.1" style="enable-background:new 0 0 191.2 43.1;" xml:space="preserve">
<style type="text/css">
	.st0{fill:#7F54B3;}
	.st1{fill:#565A63;}
	.st2{fill-rule:evenodd;clip-rule:evenodd;fill:#B59CD3;}
	.st3{fill-rule:evenodd;clip-rule:evenodd;fill:#A080C6;}
	.st4{fill-rule:evenodd;clip-rule:evenodd;fill:#9572C0;}
	.st5{fill-rule:evenodd;clip-rule:evenodd;fill:#8B64B9;}
	.st6{fill-rule:evenodd;clip-rule:evenodd;fill:#7F54B3;}
	.st7{fill-rule:evenodd;clip-rule:evenodd;fill:#51555F;}
</style>
    <g>
	<path class="st0" d="M48.7,33.9V14.4h8.7c0.9,0,1.7,0.2,2.5,0.6c0.8,0.4,1.4,0.9,2,1.5c0.6,0.6,1,1.3,1.3,2.1
		c0.3,0.8,0.5,1.6,0.5,2.4s-0.1,1.6-0.4,2.4c-0.3,0.8-0.7,1.4-1.2,2s-1.2,1-1.9,1.3l4.5,7.4h-4.2l-4-6.6h-3.8v6.6h-4V33.9z M52.5,24
		h4.8c0.5,0,0.9-0.1,1.3-0.4c0.4-0.3,0.7-0.7,0.9-1.1c0.2-0.5,0.3-1,0.3-1.6s-0.1-1.1-0.4-1.6c-0.3-0.5-0.6-0.9-1-1.1
		c-0.4-0.3-0.8-0.5-1.3-0.5h-4.6V24z"/>
        <path class="st0" d="M65.4,29.7c0-0.9,0.3-1.7,0.8-2.4c0.5-0.7,1.2-1.2,2.2-1.6c0.9-0.4,2-0.6,3.2-0.6c0.6,0,1.2,0,1.8,0.1
		c0.6,0.1,1.2,0.2,1.6,0.4v-0.8c0-0.9-0.3-1.6-0.8-2.1S72.9,22,71.8,22c-0.8,0-1.6,0.1-2.3,0.4c-0.7,0.3-1.5,0.7-2.3,1.2L66,21.2
		c0.9-0.6,1.9-1.1,2.9-1.4s2.1-0.5,3.2-0.5c2.1,0,3.7,0.5,4.8,1.5c1.1,1,1.7,2.5,1.7,4.4v4.5c0,0.4,0.1,0.7,0.2,0.8
		c0.1,0.2,0.4,0.3,0.7,0.3v3c-0.3,0.1-0.6,0.1-0.9,0.1s-0.5,0-0.7,0c-0.7,0-1.3-0.2-1.7-0.5c-0.4-0.3-0.6-0.7-0.7-1.2l0.2-0.5
		c-0.6,0.8-1.4,1.4-2.4,1.9c-0.9,0.4-1.9,0.7-2.9,0.7s-1.8-0.2-2.6-0.6c-0.8-0.4-1.4-0.9-1.8-1.6C65.6,31.3,65.4,30.6,65.4,29.7z
		 M74.4,30.4c0.2-0.2,0.4-0.4,0.5-0.6s0.2-0.4,0.2-0.6v-1.4c-0.4-0.2-0.9-0.3-1.4-0.4s-1-0.1-1.5-0.1c-1,0-1.7,0.2-2.4,0.6
		c-0.6,0.4-0.9,0.9-0.9,1.6c0,0.4,0.1,0.7,0.3,1c0.2,0.3,0.5,0.6,0.9,0.8c0.4,0.2,0.8,0.3,1.4,0.3s1.1-0.1,1.6-0.3
		C73.6,31,74.1,30.7,74.4,30.4z"/>
        <path class="st0" d="M90.9,34.2c-1.1,0-2.1-0.3-3-0.8s-1.5-1.2-2-2v8.4h-3.7V19.6h3.2v2.5c0.6-0.8,1.2-1.5,2.1-2
		c0.8-0.5,1.8-0.7,2.9-0.7c1,0,1.9,0.2,2.7,0.6c0.8,0.4,1.5,0.9,2.1,1.6s1.1,1.5,1.4,2.4s0.5,1.8,0.5,2.8c0,1.4-0.3,2.6-0.8,3.8
		c-0.5,1.1-1.3,2-2.2,2.7C93.2,33.9,92.1,34.2,90.9,34.2z M89.6,31.1c0.6,0,1.1-0.1,1.5-0.4c0.5-0.2,0.9-0.5,1.2-0.9
		c0.3-0.4,0.6-0.9,0.8-1.4c0.2-0.5,0.3-1.1,0.3-1.6c0-0.6-0.1-1.1-0.3-1.6c-0.2-0.5-0.5-1-0.8-1.3c-0.4-0.4-0.8-0.7-1.3-0.9
		c-0.5-0.2-1-0.3-1.6-0.3c-0.3,0-0.7,0.1-1,0.2c-0.4,0.1-0.7,0.3-1,0.5s-0.6,0.5-0.9,0.7c-0.2,0.3-0.4,0.6-0.6,1v3.4
		c0.2,0.5,0.5,1,0.9,1.4s0.8,0.8,1.3,1C88.6,31,89.1,31.1,89.6,31.1z"/>
        <path class="st0" d="M99.7,17.5v-3.6h3.7v3.6H99.7z M99.7,33.9V19.5h3.7v14.4C103.4,33.9,99.7,33.9,99.7,33.9z"/>
        <path class="st0" d="M105.8,26.8c0-1.4,0.3-2.6,0.8-3.7c0.6-1.1,1.3-2,2.3-2.7s2.1-1,3.3-1c1,0,2,0.3,2.9,0.8s1.5,1.2,2,2v-8.4h3.7
		v16c0,0.4,0.1,0.7,0.2,0.8c0.1,0.2,0.3,0.3,0.7,0.3v3c-0.7,0.1-1.2,0.2-1.6,0.2c-0.7,0-1.2-0.1-1.6-0.5c-0.4-0.3-0.7-0.8-0.7-1.3
		l-0.1-0.9c-0.5,0.9-1.3,1.6-2.2,2.1c-0.9,0.5-1.9,0.7-2.9,0.7s-1.9-0.2-2.7-0.6c-0.8-0.4-1.6-0.9-2.2-1.6c-0.6-0.7-1.1-1.5-1.4-2.4
		C106,28.8,105.8,27.8,105.8,26.8z M117.1,28.7v-3.3c-0.2-0.5-0.5-1-0.9-1.4s-0.9-0.7-1.3-1c-0.5-0.2-1-0.4-1.5-0.4
		c-0.6,0-1.1,0.1-1.5,0.4c-0.5,0.2-0.9,0.5-1.2,0.9c-0.3,0.4-0.6,0.9-0.8,1.4c-0.2,0.5-0.3,1.1-0.3,1.6c0,0.6,0.1,1.1,0.3,1.7
		c0.2,0.5,0.5,1,0.8,1.4s0.8,0.7,1.3,0.9c0.5,0.2,1,0.3,1.6,0.3c0.4,0,0.7-0.1,1.1-0.2c0.3-0.1,0.7-0.3,1-0.5s0.6-0.5,0.9-0.8
		C116.8,29.4,117,29,117.1,28.7z"/>
        <path class="st1" d="M124.8,33.9V14.4h3.8v16.2h10v3.3H124.8z"/>
        <path class="st1" d="M147,34.2c-1.2,0-2.2-0.2-3.2-0.6c-0.9-0.4-1.7-0.9-2.4-1.6c-0.7-0.7-1.2-1.5-1.5-2.4s-0.5-1.8-0.5-2.8
		s0.2-2,0.5-2.9s0.8-1.7,1.5-2.4c0.7-0.7,1.4-1.2,2.4-1.6c0.9-0.4,2-0.6,3.1-0.6c1.2,0,2.3,0.2,3.2,0.6s1.7,0.9,2.4,1.6
		s1.2,1.5,1.5,2.4s0.5,1.8,0.5,2.9c0,1-0.2,1.9-0.5,2.8s-0.9,1.7-1.5,2.4c-0.7,0.7-1.5,1.2-2.4,1.6C149.3,34,148.2,34.2,147,34.2z
		 M143.3,26.8c0,0.8,0.2,1.5,0.5,2.2c0.3,0.6,0.8,1.2,1.4,1.5c0.6,0.4,1.2,0.5,1.9,0.5s1.3-0.2,1.9-0.6c0.6-0.4,1-0.9,1.4-1.5
		c0.3-0.6,0.5-1.4,0.5-2.2c0-0.8-0.2-1.5-0.5-2.2c-0.3-0.6-0.8-1.1-1.4-1.5c-0.6-0.4-1.2-0.6-1.9-0.6s-1.3,0.2-1.9,0.6
		c-0.6,0.4-1,0.9-1.3,1.5C143.4,25.3,143.3,26,143.3,26.8z"/>
        <path class="st1" d="M156.1,29.7c0-0.9,0.3-1.7,0.8-2.4s1.2-1.2,2.2-1.6c0.9-0.4,2-0.6,3.2-0.6c0.6,0,1.2,0,1.8,0.1
		s1.2,0.2,1.6,0.4v-0.8c0-0.9-0.3-1.6-0.8-2.1s-1.3-0.7-2.4-0.7c-0.8,0-1.6,0.1-2.3,0.4s-1.5,0.7-2.3,1.2l-1.2-2.4
		c0.9-0.6,1.9-1.1,2.9-1.4s2.1-0.5,3.2-0.5c2.1,0,3.7,0.5,4.8,1.5s1.7,2.5,1.7,4.4v4.5c0,0.4,0.1,0.7,0.2,0.8
		c0.1,0.2,0.4,0.3,0.7,0.3v3c-0.3,0.1-0.6,0.1-0.9,0.1c-0.3,0-0.5,0-0.7,0c-0.7,0-1.3-0.2-1.7-0.5s-0.6-0.7-0.7-1.2l-0.1-0.7
		c-0.6,0.8-1.4,1.4-2.4,1.9c-0.9,0.4-1.9,0.7-2.9,0.7s-1.8-0.2-2.6-0.6c-0.8-0.4-1.4-0.9-1.8-1.6C156.3,31.3,156.1,30.6,156.1,29.7z
		 M165,30.4c0.2-0.2,0.4-0.4,0.5-0.6s0.2-0.4,0.2-0.6v-1.4c-0.4-0.2-0.9-0.3-1.4-0.4s-1-0.1-1.5-0.1c-1,0-1.7,0.2-2.4,0.6
		c-0.6,0.4-0.9,0.9-0.9,1.6c0,0.4,0.1,0.7,0.3,1s0.5,0.6,0.9,0.8c0.4,0.2,0.8,0.3,1.4,0.3c0.6,0,1.1-0.1,1.6-0.3
		S164.7,30.7,165,30.4z"/>
        <path class="st1" d="M172,26.8c0-1.4,0.3-2.6,0.8-3.7c0.6-1.1,1.3-2,2.3-2.7s2.1-1,3.3-1c1,0,2,0.3,2.9,0.8s1.5,1.2,2,2v-8.4h3.7
		v16c0,0.4,0.1,0.7,0.2,0.8c0.1,0.2,0.3,0.3,0.7,0.3v3c-0.7,0.1-1.2,0.2-1.6,0.2c-0.7,0-1.2-0.1-1.6-0.5c-0.4-0.3-0.7-0.8-0.7-1.3
		l-0.1-0.9c-0.5,0.9-1.3,1.6-2.2,2.1s-1.9,0.7-2.9,0.7s-1.9-0.2-2.7-0.6c-0.8-0.4-1.6-0.9-2.2-1.6c-0.6-0.7-1.1-1.5-1.4-2.4
		C172.2,28.8,172,27.8,172,26.8z M183.3,28.7v-3.3c-0.2-0.5-0.5-1-0.9-1.4s-0.9-0.7-1.3-1c-0.5-0.2-1-0.4-1.5-0.4
		c-0.6,0-1.1,0.1-1.5,0.4c-0.5,0.2-0.9,0.5-1.2,0.9s-0.6,0.9-0.8,1.4s-0.3,1.1-0.3,1.6c0,0.6,0.1,1.1,0.3,1.7c0.2,0.5,0.5,1,0.8,1.4
		s0.8,0.7,1.3,0.9c0.5,0.2,1,0.3,1.6,0.3c0.4,0,0.7-0.1,1.1-0.2c0.3-0.1,0.7-0.3,1-0.5s0.6-0.5,0.9-0.8
		C183,29.4,183.2,29,183.3,28.7z"/>
</g>
    <g>
	<path class="st2" d="M21.9,41.7c10.5-0.6,18.6-9.6,18-20.1c-0.1-1.7-0.4-3.3-0.9-4.9l-0.3,0.2c0.5,1.6,0.8,3.3,0.8,5
		c0,9.2-7.5,16.6-16.7,16.6c-0.3,0-0.6,0-0.9,0V41.7z"/>
        <path class="st3" d="M5.2,33.4c3.4,5,9,8.1,15,8.3v-3.4c-4.7-0.8-8.7-2.9-11.3-7L5.2,33.4z"/>
        <path class="st4" d="M3.5,14.1c-2.4,5.8-2.1,12.3,0.8,17.8l3.8-2.2c-1.9-4.1-1.8-8.8,0.3-12.8L3.5,14.1z"/>
        <path class="st5" d="M20.2,1.6c-6.8,0.8-12.8,4.9-16,10.9l5,2.9c2.5-3.7,6.5-6,10.9-6.3V1.6H20.2z"/>
        <path class="st6" d="M39.1,9.6C35,4.3,28.6,1.2,22,1.4V9c3.6,0.2,6.9,1.6,9.5,4.1L39.1,9.6z"/>
        <path class="st7" d="M21.1,19.7c1.9,0,3.5,1.5,3.5,3.5c0,1.9-1.5,3.5-3.5,3.5c-1.9,0-3.5-1.5-3.5-3.5l0,0
		C17.6,21.3,19.2,19.7,21.1,19.7L21.1,19.7z"/>
        <polygon class="st7" points="43.1,10.6 32.7,17.7 22.3,24.7 21.4,23.1 20.5,21.5 31.8,16.1 	"/>
        <path class="st6" d="M46.6,8.7l-2.9,3h-0.1l-0.1-0.1c-0.1-0.4-0.2-0.8-0.4-1.1s-0.4-0.6-0.7-0.9c-0.1,0-0.1-0.1-0.1-0.2
		c0,0,0,0,0.1-0.1l4.1-1c0.1,0,0.1,0,0.1,0.1C46.7,8.6,46.7,8.7,46.6,8.7z"/>
</g>
</svg>
