<svg id="Layer_1" data-name="Layer 1" xmlns="http://www.w3.org/2000/svg" viewBox="0 0 60 60"><defs><style>.cls-1{fill:#b59cd3;}.cls-1,.cls-2,.cls-3,.cls-4,.cls-5,.cls-6{fill-rule:evenodd;}.cls-2{fill:#a080c6;}.cls-3{fill:#9572c0;}.cls-4{fill:#8b64b9;}.cls-5{fill:#7f54b3;}.cls-6{fill:#51555f;}</style></defs><title>1</title><path class="cls-1" d="M29.24,59.29A27.84,27.84,0,0,0,54.18,22.9l-.48.32a24.49,24.49,0,0,1,1.11,7.26,24.22,24.22,0,0,1-24.3,24.15c-.42,0-.85,0-1.27,0Z"/><path class="cls-2" d="M4.84,47.24A27.79,27.79,0,0,0,26.73,59.31v-5c-6.82-1.1-12.66-4.2-16.48-10.23Z"/><path class="cls-3" d="M2.39,19.11a30.27,30.27,0,0,0,1.14,26l5.52-3.17a21.29,21.29,0,0,1,.43-18.7Z"/><path class="cls-4" d="M26.71.89A30.25,30.25,0,0,0,3.48,16.81L10.78,21a21.12,21.12,0,0,1,15.93-9.16Z"/><path class="cls-5" d="M54.15,12.55A30.18,30.18,0,0,0,29.26.7V11.78a21.09,21.09,0,0,1,13.79,6Z"/><path class="cls-6" d="M28,27.36a5.07,5.07,0,1,1-5.05,5.08v0a5,5,0,0,1,5.05-5Z"/><polygon class="cls-6" points="60 14.06 44.91 24.33 29.83 34.59 28.48 32.25 27.14 29.93 43.56 21.98 60 14.06"/></svg>