<svg width="16" height="16" viewBox="0 0 16 16" fill="none" xmlns="http://www.w3.org/2000/svg">
<g clip-path="url(#clip0_61_2)">
<path fill-rule="evenodd" clip-rule="evenodd" d="M7.79736 15.8107C8.93224 15.7478 10.0375 15.4251 11.028 14.8676C12.0185 14.3101 12.8677 13.5326 13.5103 12.595C14.1529 11.6575 14.5716 10.5849 14.7342 9.45995C14.8967 8.33502 14.7988 7.18778 14.448 6.10666L14.32 6.19199C14.5155 6.81878 14.6152 7.47145 14.616 8.12799C14.6136 8.97638 14.444 9.81598 14.117 10.5988C13.79 11.3817 13.312 12.0924 12.7102 12.6904C12.1084 13.2885 11.3947 13.7621 10.6099 14.0843C9.82505 14.4064 8.98442 14.5708 8.13603 14.568C8.02403 14.568 7.90936 14.568 7.79736 14.568V15.8107Z" fill="white"/>
<path fill-rule="evenodd" clip-rule="evenodd" d="M1.29065 12.5973C1.94465 13.5525 2.8133 14.3411 3.82699 14.9C4.84068 15.459 5.97122 15.7727 7.12798 15.816V14.4827C5.30932 14.1893 3.75198 13.3627 2.73332 11.7547L1.29065 12.5973Z" fill="white"/>
<path fill-rule="evenodd" clip-rule="evenodd" d="M0.637316 5.09601C0.169192 6.20155 -0.0464281 7.3976 0.00616168 8.59701C0.0587515 9.79643 0.378227 10.969 0.941316 12.0293L2.41332 11.184C2.05153 10.3989 1.8738 9.54161 1.89368 8.67741C1.91355 7.81321 2.1305 6.96496 2.52798 6.19734L0.637316 5.09601Z" fill="white"/>
<path fill-rule="evenodd" clip-rule="evenodd" d="M7.12264 0.237335C5.82323 0.389572 4.58035 0.855578 3.50116 1.59517C2.42197 2.33476 1.53886 3.32574 0.927979 4.48267L2.87464 5.6C3.35297 4.89914 3.98348 4.31543 4.71906 3.89245C5.45465 3.46948 6.2763 3.21818 7.12264 3.15733V0.237335Z" fill="white"/>
<path fill-rule="evenodd" clip-rule="evenodd" d="M14.4399 3.34665C13.6641 2.33065 12.6574 1.51407 11.5032 0.964554C10.3489 0.415033 9.0804 0.148373 7.80261 0.186654V3.14132C9.18336 3.20465 10.4924 3.77422 11.4799 4.74132L14.4399 3.34665Z" fill="white"/>
<path fill-rule="evenodd" clip-rule="evenodd" d="M7.46666 7.296C7.73417 7.29495 7.99598 7.37327 8.21896 7.52107C8.44194 7.66887 8.61606 7.8795 8.71928 8.12629C8.82251 8.37309 8.8502 8.64496 8.79885 8.9075C8.74751 9.17004 8.61943 9.41144 8.43083 9.60116C8.24223 9.79088 8.00159 9.92039 7.73936 9.97329C7.47712 10.0262 7.20509 10.0001 6.95769 9.89835C6.71029 9.79659 6.49864 9.62372 6.34952 9.40162C6.2004 9.17952 6.12052 8.91818 6.12 8.65067C6.11999 8.47444 6.15491 8.29997 6.22275 8.13732C6.29059 7.97468 6.38999 7.8271 6.51522 7.70311C6.64045 7.57913 6.78901 7.48119 6.95232 7.41497C7.11563 7.34876 7.29045 7.31557 7.46666 7.31733V7.296Z" fill="white"/>
<path fill-rule="evenodd" clip-rule="evenodd" d="M16 3.74933L11.976 6.48799L7.95464 9.22399L7.59464 8.59999L7.2373 7.98133L11.616 5.86133L16 3.74933Z" fill="white"/>
</g>
<defs>
<clipPath id="clip0_61_2">
<rect width="16" height="16" fill="white"/>
</clipPath>
</defs>
</svg>
