<svg width="10" height="10" viewBox="0 0 10 10" fill="none" xmlns="http://www.w3.org/2000/svg">
<path d="M5 0C2.23875 0 0 2.23875 0 5C0 7.76125 2.23875 10 5 10C7.76125 10 10 7.76125 10 5C10 2.23875 7.76125 0 5 0ZM7.79458 4.04458L4.64458 7.19458C4.56625 7.27292 4.46042 7.31667 4.35 7.31667C4.23958 7.31667 4.13333 7.27292 4.05542 7.19458L2.61667 5.75583C2.45375 5.59292 2.45375 5.32958 2.61667 5.16667C2.77958 5.00375 3.04292 5.00375 3.20583 5.16667L4.35 6.31083L7.20542 3.45542C7.36833 3.2925 7.63167 3.2925 7.79458 3.45542C7.9575 3.61833 7.9575 3.88167 7.79458 4.04458Z" fill="#09B42F"/>
</svg>
