<svg width="39" height="39" viewBox="0 0 39 39" fill="none" xmlns="http://www.w3.org/2000/svg">
<rect width="39" height="39" rx="10" fill="#09B42F"/>
<path fill-rule="evenodd" clip-rule="evenodd" d="M15.5421 23.0675V19.1577H17.106V23.8494C17.106 24.2813 16.7559 24.6314 16.324 24.6314H14.3691V23.0675H15.5421Z" fill="white"/>
<path fill-rule="evenodd" clip-rule="evenodd" d="M12.7487 23.0119V24.1808H13.9177V23.0119H12.7487ZM11.6318 23.0044C11.6318 22.3917 12.1285 21.895 12.7412 21.895H13.9251C14.5378 21.895 15.0345 22.3917 15.0345 23.0044V24.1883C15.0345 24.801 14.5378 25.2977 13.9251 25.2977H12.7412C12.1285 25.2977 11.6318 24.801 11.6318 24.1883V23.0044Z" fill="white"/>
<path fill-rule="evenodd" clip-rule="evenodd" d="M21.8945 23.8494V19.1577H23.4584V23.0675H24.6314V24.6314H22.6765C22.2446 24.6314 21.8945 24.2813 21.8945 23.8494Z" fill="white"/>
<path fill-rule="evenodd" clip-rule="evenodd" d="M25.487 23.0119V24.1808H26.6559V23.0119H25.487ZM24.3701 22.8704C24.3701 22.3317 24.8068 21.895 25.3455 21.895H26.7974C27.3361 21.895 27.7728 22.3317 27.7728 22.8704V24.3223C27.7728 24.861 27.3361 25.2977 26.7974 25.2977H25.3455C24.8068 25.2977 24.3701 24.861 24.3701 24.3223V22.8704Z" fill="white"/>
<path fill-rule="evenodd" clip-rule="evenodd" d="M18.4736 27.3684V18.4736H20.5263V27.3684H18.4736Z" fill="white"/>
<path fill-rule="evenodd" clip-rule="evenodd" d="M18.9119 27.3846V28.5599H20.0872V27.3846H18.9119ZM17.7891 27.19C17.7891 26.6773 18.2047 26.2617 18.7173 26.2617H20.2819C20.7945 26.2617 21.2101 26.6773 21.2101 27.19V28.7545C21.2101 29.2672 20.7945 29.6828 20.2819 29.6828H18.7173C18.2047 29.6828 17.7891 29.2672 17.7891 28.7545V27.19Z" fill="white"/>
<path fill-rule="evenodd" clip-rule="evenodd" d="M15.1292 10.7119C15.8541 9.60241 17.2167 8.89453 19.4961 8.89453C21.7754 8.89453 23.138 9.60241 23.863 10.7119C24.3279 11.4234 24.4651 12.2169 24.5054 12.8447C25.0821 12.9393 25.7459 13.1456 26.3466 13.5317C27.289 14.1374 28.046 15.1741 28.0505 16.7594C28.0774 17.5928 27.8312 18.4121 27.3493 19.0918C26.8646 19.7755 26.1687 20.2796 25.3694 20.5261L24.9014 18.9984C25.3656 18.8553 25.7697 18.5625 26.0511 18.1655C26.3326 17.7685 26.4756 17.2894 26.4581 16.8025C26.4577 16.7929 26.4575 16.7833 26.4575 16.7736C26.4575 15.7779 26.0215 15.2208 25.4872 14.8774C24.9083 14.5053 24.1867 14.3763 23.7255 14.3763C23.2856 14.3763 22.929 14.0186 22.929 13.5772C22.929 12.9016 22.911 12.17 22.5307 11.5881C22.1983 11.0794 21.4462 10.4927 19.4961 10.4927C17.546 10.4927 16.7938 11.0794 16.4614 11.5881C16.0812 12.17 16.0631 12.9016 16.0631 13.5772C16.0631 14.0186 15.7065 14.3763 15.2666 14.3763C14.7953 14.3763 14.0767 14.5128 13.5026 14.8887C12.9708 15.2369 12.5426 15.7958 12.5426 16.7736C12.5426 16.784 12.5424 16.7944 12.542 16.8048C12.523 17.2907 12.6647 17.7692 12.9449 18.166C13.2251 18.5627 13.6281 18.8554 14.0913 18.9986L13.6222 20.5259C12.8234 20.279 12.1284 19.7742 11.6451 19.0899C11.1649 18.41 10.9206 17.5908 10.9496 16.7583C10.9544 15.1956 11.6992 14.1611 12.6319 13.5503C13.2328 13.1569 13.9008 12.9434 14.4867 12.8457C14.5269 12.2178 14.664 11.4238 15.1292 10.7119Z" fill="white"/>
</svg>
