<svg id="Layer_1" data-name="Layer 1" xmlns="http://www.w3.org/2000/svg" viewBox="0 0 256 256">
    <defs>
        <style>
            .cls-1{fill:#b59cd3;}.cls-1,.cls-2,.cls-3,.cls-4,.cls-5,.cls-6{fill-rule:evenodd;}.cls-2{fill:#a080c6;}.cls-3{fill:#9572c0;}.cls-4{fill:#8b64b9;}.cls-5{fill:#7f54b3;}.cls-6{fill:#51555f;}
        </style>
    </defs>
    <title>v1</title>
    <path class="cls-1"
          d="M122.39,217.26a79.58,79.58,0,0,0,71.34-104.13l-1.35.91a70,70,0,0,1,3.16,20.78A69.31,69.31,0,0,1,126,203.92c-1.21,0-2.42,0-3.63-.11Z"/>
    <path class="cls-2" d="M52.58,182.76a79.54,79.54,0,0,0,62.61,34.54V203C95.68,199.92,79,191,68.06,173.8Z"/>
    <path class="cls-3" d="M45.56,102.27a86.64,86.64,0,0,0,3.26,74.33l15.8-9A60.92,60.92,0,0,1,65.84,114Z"/>
    <path class="cls-4" d="M115.14,50.16A86.41,86.41,0,0,0,48.69,95.7l20.87,12a60.46,60.46,0,0,1,45.58-26.22Z"/>
    <path class="cls-5" d="M193.64,83.53a86.27,86.27,0,0,0-71.21-33.91V81.31a60.4,60.4,0,0,1,39.48,17.2Z"/>
    <path class="cls-6" d="M118.76,125.9a14.49,14.49,0,1,1-14.44,14.53v-.09a14.44,14.44,0,0,1,14.44-14.44Z"/>
    <polygon class="cls-6"
             points="210.39 87.83 167.21 117.21 124.06 146.59 120.21 139.89 116.37 133.23 163.36 110.51 210.39 87.83"/>
    <path class="cls-5"
          d="M225.11,79.9,212.93,92.58a.5.5,0,0,1-.55,0,.56.56,0,0,1-.36-.41,12,12,0,0,0-1.63-4.52,13.07,13.07,0,0,0-3-3.67.5.5,0,0,1,0-.91L224.61,79a.59.59,0,0,1,.59.22A.56.56,0,0,1,225.11,79.9Z"/>
</svg>