<svg width="39" height="39" viewBox="0 0 39 39" fill="none" xmlns="http://www.w3.org/2000/svg">
<rect width="39" height="39" rx="10" fill="#FF7D00"/>
<path d="M21.4436 19.1113L17.6438 21.8183L19.1836 22.8225L17.5547 25.3336L21.3545 22.6651L19.8167 21.6644L21.4436 19.1113Z" fill="white"/>
<path fill-rule="evenodd" clip-rule="evenodd" d="M26.889 11.3334H12.1111C10.8224 11.3334 9.77769 12.378 9.77769 13.6667V25.3335C9.77769 26.6222 10.8224 27.6669 12.1111 27.6669H26.889C28.1777 27.6669 29.2223 26.6222 29.2223 25.3335V13.6667C29.2223 12.378 28.1777 11.3334 26.889 11.3334ZM12.1111 9C9.5337 9 7.44434 11.0894 7.44434 13.6667V25.3335C7.44434 27.9109 9.5337 30.0002 12.1111 30.0002H26.889C29.4663 30.0002 31.5557 27.9109 31.5557 25.3335V13.6667C31.5557 11.0894 29.4663 9 26.889 9H12.1111Z" fill="white"/>
<path d="M12.1104 13.6665C12.1104 13.237 12.4587 12.8888 12.8882 12.8888C13.3178 12.8888 13.666 13.237 13.666 13.6665C13.666 14.0961 13.3178 14.4443 12.8882 14.4443C12.4587 14.4443 12.1104 14.0961 12.1104 13.6665Z" fill="white"/>
<path d="M14.4444 13.6665C14.4444 13.237 14.7927 12.8888 15.2222 12.8888C15.6518 12.8888 16 13.237 16 13.6665C16 14.0961 15.6518 14.4443 15.2222 14.4443C14.7927 14.4443 14.4444 14.0961 14.4444 13.6665Z" fill="white"/>
<path d="M16.7774 13.6665C16.7774 13.237 17.1257 12.8888 17.5552 12.8888C17.9848 12.8888 18.333 13.237 18.333 13.6665C18.333 14.0961 17.9848 14.4443 17.5552 14.4443C17.1257 14.4443 16.7774 14.0961 16.7774 13.6665Z" fill="white"/>
<path fill-rule="evenodd" clip-rule="evenodd" d="M30.3891 17.1669H9V15.6113H30.3891V17.1669Z" fill="white"/>
</svg>
