<svg width="39" height="39" viewBox="0 0 39 39" fill="none" xmlns="http://www.w3.org/2000/svg">
<rect width="39" height="39" rx="10" fill="#6F2DBD"/>
<path d="M22.2865 19.8977L16.8428 23.3604L19.0487 24.6448L16.7151 27.8569L22.1588 24.4435L19.9558 23.1634L22.2865 19.8977Z" fill="white"/>
<path d="M14.4834 22.5284C13.6029 22.1008 12.841 21.4549 12.2667 20.6495C11.6924 19.844 11.324 18.9045 11.195 17.9164C11.066 16.9283 11.1805 15.9228 11.528 14.9915C11.8756 14.0601 12.4452 13.2324 13.1851 12.5834C13.9249 11.9345 14.8116 11.485 15.7646 11.2758C16.7175 11.0666 17.7064 11.1043 18.6415 11.3854C19.5766 11.6666 20.4281 12.1823 21.1187 12.8857C21.8094 13.5892 22.3172 14.458 22.596 15.4132H24.0916C25.0536 15.4115 25.9797 15.7871 26.6792 16.4626C27.3788 17.1382 27.7985 18.0623 27.852 19.0448C27.9055 20.0274 27.5888 20.9935 26.967 21.7444C26.3452 22.4952 25.4656 22.9737 24.5093 23.0814" stroke="white" stroke-width="2" stroke-linecap="round" stroke-linejoin="round"/>
</svg>
