<svg id="Layer_2" data-name="Layer 2" xmlns="http://www.w3.org/2000/svg" viewBox="0 0 400 300"><ellipse cx="196.5" cy="225.11" rx="140.11" ry="54.12" fill="#80d2d0"/><path d="M125.53,201.25s-11.24-14.78-21.2-10.39-8.48,14.69-8.48,14.69a14.11,14.11,0,0,0-15.28,6.59c-5.91,9.22,0,16.35,0,16.35h53.71" fill="#efeeec"/><path d="M250.87,164.33a16.71,16.71,0,0,0-3.7,1.22c-1.2.59-6.62.61-7.11.54s-2.37-.88-2.88-.48a4.86,4.86,0,0,0-.86,2s-2.85.19-3.46,1.92c0,0-.39,1.77,3.1,4.69a1.07,1.07,0,0,0,0,.19,18.52,18.52,0,0,0,1.53,1.52,6.06,6.06,0,0,0,3.55-.44c1.46-.59,5.37-1.23,7-2.39a16.53,16.53,0,0,0,4.46-5.54,2.32,2.32,0,0,0-.43-2.42A2,2,0,0,0,250.87,164.33Z" fill="#cc9272"/><path d="M236.46,167.15s-3,.53-3.6,2.34,2.65,4.29,2.65,4.29a4.5,4.5,0,0,0,4.65.24c2.86-1.26,3.48-.13,6.74-2.2s5.1-5.65,4.72-6.92-2.62-.14-2.84-.11-3.91,1.23-5.17,1.15-3.46-.2-4.43-.4-1.67-.57-2.2.16A2.73,2.73,0,0,0,236.46,167.15Z" fill="#42210b"/><path d="M245.27,165.65v0a8.86,8.86,0,0,0-1.09,1l-.49-.79h-.54a.22.22,0,0,0,0,0,6,6,0,0,0-.78.77l-.23-.61A.24.24,0,0,0,242,166a.2.2,0,0,0-.23,0,.27.27,0,0,0-.11.08c-.33.27-.66.54-1,.83q-.12-.36-.21-.73c-.08-.32-.55-.15-.48.17a8.48,8.48,0,0,0,.28.94,7.09,7.09,0,0,0-1.35,1.8c-.15.29.31.51.46.21a6.32,6.32,0,0,1,1.09-1.51,8.65,8.65,0,0,0,.65,1.21c0,.29.42.36.51.06a5.32,5.32,0,0,1,.57-1.29l.3.68a3.25,3.25,0,0,0,.15.34.36.36,0,0,1,0,.09h0a.25.25,0,0,0,.47.18,8.35,8.35,0,0,1,.91-1.49q.33.56.64,1.13a.26.26,0,0,0,.46-.1,17.92,17.92,0,0,1,.5-2.61l.06,0a.25.25,0,0,0,0-.37Zm-3.9,2.69a8,8,0,0,1-.47-1c.28-.27.58-.52.89-.77l.22.56A6,6,0,0,0,241.37,168.33Zm1.67-.11c-.1-.18-.2-.36-.26-.5l-.21-.5a5.46,5.46,0,0,1,.83-.85l.43.7A8.8,8.8,0,0,0,243,168.23Zm1.76-.49-.36-.62a8.09,8.09,0,0,1,.6-.62C245,166.91,244.87,167.32,244.81,167.74Z" fill="#e05e00"/><path d="M189.14,150.46s1.43,6.48,6.26,9c4.58,2.39,18.07-2.22,19.78-2.13s17,13.76,17,13.76c4.36-1.06,6.23-6.08,6.23-6.08s-13.27-18.68-18.34-20.23-27-3.84-28.26-4.26" fill="#1c5028"/><path d="M142.7,187.66s-30.55,15.66-38.37,54.11c0,0,29.39,6.74,69.44-25.26" fill="#eb773a"/><path d="M142.25,192.58S129.13,204,125.36,212.1s-8.73,20-8.73,20,22.71,2.3,44.31-10.46S162.58,184.12,142.25,192.58Z" fill="#ffae46"/><path d="M155.15,188.73c-.81,1.3-14.24,8.58-16.91,19.35l4.39-3.21s-7.55,10.22-10.78,16.11c0,0,18.13-6.87,17.55-6.45l-5.15,3.77s13.69-.06,23.12-8.23-3.1-22.89-3.1-22.89Z" fill="#fad374"/><path d="M195.31,189.3s-2.61,15.21-7.7,18.92S166,224,166,224l-2.65-3.63s11.6-19.88,13.73-28.71S195.31,189.3,195.31,189.3Z" fill="#7f54b3"/><path d="M195.31,189.3s-2.61,15.21-7.7,18.92S166,224,166,224l-2.65-3.63s11.6-19.88,13.73-28.71S195.31,189.3,195.31,189.3Z" fill="#363636" opacity="0.61"/><path d="M179.41,167.57s-15.29-2.12-20.37,1.61S137.42,185,137.42,185l2.65,3.63s22.46-5,31.52-4.4S179.41,167.57,179.41,167.57Z" fill="#7f54b3"/><path d="M179.41,167.57s-15.29-2.12-20.37,1.61S137.42,185,137.42,185l2.65,3.63s22.46-5,31.52-4.4S179.41,167.57,179.41,167.57Z" fill="#363636" opacity="0.61"/><path d="M253.39,143.18a93.23,93.23,0,0,0,10.08-20.07s-8.9,0-22.27,3.69C242.14,133.62,247.47,139.12,253.39,143.18Z" fill="#7f54b3"/><ellipse cx="210.8" cy="161.28" rx="9.6" ry="10.91" transform="translate(-54.56 155.59) rotate(-36.19)" fill="#7f54b3"/><path d="M294.94,99.73s-84.14,19.43-127.75,80.41c0,0-10.22,10.5-5.45,16.51s20.9,1.56,20.9,1.56S235.81,184.08,294.94,99.73Z" fill="#7f54b3"/><path d="M167.19,180.14s-10.53-1.46-14,1.11-14.9,10.9-14.9,10.9l1.83,2.5s15.48-3.47,21.72-3S167.19,180.14,167.19,180.14Z" fill="#7f54b3"/><path d="M179.64,197.14s-1.8,10.48-5.31,13-14.9,10.9-14.9,10.9l-1.83-2.5s8-13.7,9.46-19.78S179.64,197.14,179.64,197.14Z" fill="#7f54b3"/><path d="M167.19,180.14s-10.53-1.46-14,1.11-14.9,10.9-14.9,10.9l1.83,2.5s15.48-3.47,21.72-3S167.19,180.14,167.19,180.14Z" fill="#363636" opacity="0.29"/><path d="M179.64,197.14s-1.8,10.48-5.31,13-14.9,10.9-14.9,10.9l-1.83-2.5s8-13.7,9.46-19.78S179.64,197.14,179.64,197.14Z" fill="#363636" opacity="0.29"/><path d="M254,114.08s-.53,14.16,14.38,19.66l-8.86,9.74s-18.66-10.9-15.51-24.77Z" fill="#7f54b3"/><path d="M199.63,146s-.24,24,22,31.2L204.85,188.3s-23.89-8.73-19-30Z" fill="#7f54b3"/><circle cx="238.14" cy="140.5" r="3.38" transform="translate(-37.02 167.72) rotate(-36.19)" fill="#7f54b3"/><circle cx="222.13" cy="152.22" r="8.82" transform="translate(-47.02 160.53) rotate(-36.19)" fill="#7f54b3"/><path d="M254,114.08s-.53,14.16,14.38,19.66l-8.86,9.74s-18.66-10.9-15.51-24.77Z" fill="#606060" opacity="0.61"/><path d="M199.63,146s-.24,24,22,31.2L204.85,188.3s-23.89-8.73-19-30Z" fill="#606060" opacity="0.61"/><circle cx="238.14" cy="140.5" r="3.38" transform="translate(-37.02 167.72) rotate(-36.19)" fill="#606060" opacity="0.61"/><circle cx="222.13" cy="152.22" r="8.82" transform="translate(-47.02 160.53) rotate(-36.19)" fill="#606060" opacity="0.61"/><path d="M199.15,116.75s17.73,17.24,17.13,17.63-7.66,6.13-7.66,6.13l-12.48-11.88" fill="#1c5028"/><path d="M241.15,181.16a17.18,17.18,0,0,0-4,.4c-1.34.33-6.78-.86-7.25-1s-2.18-1.41-2.78-1.13-1.3,1.78-1.3,1.78-2.9-.44-3.9,1.16c0,0-.78,1.69,2.07,5.39a1.1,1.1,0,0,0-.05.19,19,19,0,0,0,1.19,1.87,6.23,6.23,0,0,0,3.66.35c1.59-.27,5.66,0,7.59-.84a17,17,0,0,0,5.71-4.57,2.39,2.39,0,0,0,.1-2.52A2.09,2.09,0,0,0,241.15,181.16Z" fill="#cc9272"/><path d="M226.06,180.79s-3.11-.13-4.13,1.55,1.71,4.9,1.71,4.9a4.62,4.62,0,0,0,4.61,1.27c3.15-.63,3.52.64,7.26-.71s6.38-4.54,6.27-5.9-2.6-.72-2.82-.74-4.2.37-5.44,0-3.43-1-4.36-1.39-1.55-.94-2.24-.32A2.8,2.8,0,0,0,226.06,180.79Z" fill="#42210b"/><path d="M235.24,181.24h0a9.11,9.11,0,0,0-1.32.77l-.32-.9a5.33,5.33,0,0,1-.54-.11v0a6.17,6.17,0,0,0-1,.59c0-.22-.07-.44-.1-.66a.25.25,0,0,0-.08-.15.21.21,0,0,0-.23-.06.27.27,0,0,0-.13.06c-.39.2-.78.4-1.16.61q0-.38,0-.78c0-.34-.52-.27-.52.06a8.71,8.71,0,0,0,.08,1,7.28,7.28,0,0,0-1.76,1.51c-.21.26.2.58.41.32a6.5,6.5,0,0,1,1.43-1.27,8.89,8.89,0,0,0,.38,1.36c-.11.28.34.45.49.17a5.47,5.47,0,0,1,.86-1.17q.07.38.15.75a3.34,3.34,0,0,0,.08.37.37.37,0,0,1,0,.1h0a.26.26,0,0,0,.43.29,8.58,8.58,0,0,1,1.25-1.29q.21.63.4,1.27a.26.26,0,0,0,.48,0,18.42,18.42,0,0,1,1.08-2.51l.07,0a.26.26,0,0,0,.13-.36Zm-4.51,1.83a8.24,8.24,0,0,1-.26-1.08c.34-.2.7-.39,1.06-.58q0,.31.09.61A6.11,6.11,0,0,0,230.73,183.07Zm1.7.26c-.06-.2-.12-.4-.15-.56s-.07-.37-.1-.55a5.61,5.61,0,0,1,1-.67l.28.79A9,9,0,0,0,232.43,183.33Zm1.88-.09-.22-.7a8.32,8.32,0,0,1,.74-.49C234.64,182.44,234.47,182.83,234.31,183.24Z" fill="#e05e00"/><path d="M181.57,152.46s0,7,4.38,10.67c4.16,3.5,19.08,1.83,20.81,2.31s14.38,18,14.38,18c4.72-.09,7.78-4.83,7.78-4.83s-9.38-22.21-14.24-25-26.89-10.1-28.06-10.8" fill="#666"/><path d="M192,151.85a43,43,0,0,0,5.75-1.73c.43-.17,2.89-1,3-1.42,0-.29,0-4.65.06-5,.52-5.56,0-11.1.19-16.66.08-2.89.7-8.21-1.84-10.32-1.86-1.54-6.2-.81-7.93-.08a14.9,14.9,0,0,0-2.84,1.64c-3.12,2.23-4.65,6.43-5.55,10-1.45,5.76-.8,18.2-1.25,24.12,0,.39,2.73.46,3,.45A43.92,43.92,0,0,0,192,151.85Z" fill="#1c5028"/><path d="M184.23,168.18a5,5,0,0,0-4.63-4c-4-.25-1.92,5.79-1.92,5.79l-2-.11s-3.16-6.05,3.19-7.67,7.78,5.9,7.78,5.9Z" fill="#ce4823"/><path d="M176.43,160.94l0-.24a.58.58,0,0,1-.09-.22l-1-5.63a.43.43,0,0,1,.17-.45,5,5,0,0,1-.16-1,1.39,1.39,0,0,1,1.46-.78c.17-.37.72-.61,1-.14s.56,1.11.83,1.66h0v-.2a.5.5,0,0,1,.12-.37c0-.47-.06-1-.1-1.42-.06-.7,1-.76,1.1-.06,0,.24,0,.47.05.71.33-.23.88-.12.85.39a18.2,18.2,0,0,0,.46,5.27c.59.94,1.14,1.89,1.65,2.87.31.6.74,1.43,0,1.92a.55.55,0,0,1-.76-.15q-.58-1-1.08-2,0,.43,0,.86a14.68,14.68,0,0,1,0,1.8c0,.33-.14.65-.5.76a.67.67,0,0,1-.62-.07.66.66,0,0,1-.66.61c-.51,0-.78-.43-.94-.94C176.58,164,176.58,162.13,176.43,160.94Z" fill="#ffb92c"/><path d="M169.27,170.2c5.06-1,18.69-4,23.86-5.17a2.08,2.08,0,0,1,2.47,1.58l3.33,15a2.08,2.08,0,0,1-1.66,2.5l-25.35,4.64a2.08,2.08,0,0,1-2.44-1.78l-1.86-14.42A2.08,2.08,0,0,1,169.27,170.2Z" fill="#ce4823"/><path d="M191.22,116.67s-10.15.56-13.06,7.06-9.16,13-7.89,21.2a47.86,47.86,0,0,0,3.93,13.39L182,155.8s-3.5-12.78-2.66-14.5S186,131,186,131" fill="#1c5028"/><path d="M182.54,119.35s3.17,4.52,8.69,4.35,6-3.65,5.46-5.1a7.59,7.59,0,0,0-2.14-2.65S187.38,115.93,182.54,119.35Z" fill="#fff"/><path d="M188.86,108.13l-.65.09a.39.39,0,0,0,.11.78l.65-.09A.39.39,0,0,0,188.86,108.13Z" fill="#1c5028"/><path d="M194.87,110.68a6,6,0,0,1-5.91,2.06c-.5-.1-.59.68-.1.78a6.79,6.79,0,0,0,6.64-2.37C195.82,110.77,195.19,110.3,194.87,110.68Z" fill="#1c5028"/><path d="M196.95,105.28s.63,9.68-1.73,10.48a6.62,6.62,0,0,1-6.21-1.17c-1-1.1-3.64-6.89-2.93-8.12S195.35,103.72,196.95,105.28Z" fill="#ffb92c"/><path d="M188.27,113.3l.3,4.78s1.62,1,5.65-1l.22-2.82" fill="#ffb92c"/><path d="M198.05,101.68a3.94,3.94,0,0,0-1.73,0,3.82,3.82,0,0,0-1.6-1.91,4,4,0,0,0-4.17.24,3,3,0,0,0-.57.54,3.57,3.57,0,0,0-2.87-.54,3,3,0,0,0-2.26,2.33,2.53,2.53,0,0,0,0,.94,2.87,2.87,0,0,0-2.27,2.35,2.85,2.85,0,0,0,.7,2.42,2.51,2.51,0,0,0-.19,2.7,2.79,2.79,0,0,0,2.46,1.44,2.66,2.66,0,0,0,.12,1.43c.66,1.07,2.1,1.35,3.41,1.47,0-.61-.05-1.22-.1-1.83a.65.65,0,0,1,0-.17,5.38,5.38,0,0,1-1.26-1.18c-.5-.6-.92-1.5-.33-2.19a1.41,1.41,0,0,1,2.2.18,7.36,7.36,0,0,1,.35-1h0c.4-1.62,2-2,3.47-2.23,2.45.89,5.9,1.29,6.43-1.74A2.74,2.74,0,0,0,198.05,101.68Z"/><path d="M190,108.91s0,2.87.7,3.31a5.91,5.91,0,0,0,3.51.17c1.16-.25,2.3-.28,2.69-.38,0,0-.41,3.05-1.25,4s-3.52.43-4.18.12-2-2.87-2-2.87L189,109.1Z"/><path d="M188.39,115.36l-1.21,1.38a12.54,12.54,0,0,1-1.24,1s3.41,4,5.54,4.32l.94-2.65,2.51,1.54a6.12,6.12,0,0,0-.68-4.37s-.1.91-2,1.2S188.39,115.36,188.39,115.36Z" fill="#ccc"/><path d="M218.38,227.17c0,.05,0,.11,0,.17h79.2a10,10,0,0,0-.35-1.95,10.25,10.25,0,0,0-8.91-7.32c-.09-5.1-1.41-10.1-5.49-12.48a10.53,10.53,0,0,0-10.53.36l-.11.08a35.69,35.69,0,0,0-2.72-7.58c-1.4-2.85-5.49-3.65-8.08-2.12a15.79,15.79,0,0,0-6.79,8.35c-1.68-4.77-4.95-9.59-10.27-10-6.94-.54-10.72,5.72-11.49,11.78a27.74,27.74,0,0,0,.18,8.11,12.6,12.6,0,0,0-7.88-.24,9.83,9.83,0,0,0-7,12.25C218.21,226.78,218.31,227,218.38,227.17Z" fill="#efeeec"/><path d="M142.3,256.57c0,.05,0,.11,0,.17h79.2a10,10,0,0,0-.35-1.95,10.25,10.25,0,0,0-8.91-7.32c-.09-5.1-1.41-10.1-5.49-12.48a10.53,10.53,0,0,0-10.53.36l-.11.08a35.69,35.69,0,0,0-2.72-7.58c-1.4-2.85-5.49-3.65-8.08-2.12a15.79,15.79,0,0,0-6.79,8.35c-1.68-4.77-4.95-9.59-10.27-10-6.94-.54-10.72,5.72-11.49,11.78a27.74,27.74,0,0,0,.18,8.11,12.6,12.6,0,0,0-7.88-.24,9.83,9.83,0,0,0-7,12.25C142.13,256.18,142.23,256.37,142.3,256.57Z" fill="#efeeec"/><path d="M133.85,175.35a5.26,5.26,0,0,0-4.91-4.24c0-.24,0-.47,0-.71a4,4,0,0,0-2.46-3.66,4.13,4.13,0,0,0-4.37.83,7.15,7.15,0,0,0-2.08,2.72,5.54,5.54,0,0,0-6.13,2.44,4,4,0,0,0,1.43,5.47c.49.27,1,.53,1.49.78-1.06,3.28-.67,7,3,8,4.17,1.2,6.21-2.07,7.57-5.56a8.62,8.62,0,0,0,2.25-.43C132.19,180.19,134.23,178.16,133.85,175.35Z" fill="#efeeec"/><path d="M128.25,243c-.35-.13-.71-.22-1.07-.32a10.66,10.66,0,0,0,.09-4.23c-.23-1.38-1.93-2.45-3.33-2.6a4.27,4.27,0,0,0-4,1.74l0,.06a6.29,6.29,0,0,0-6.13-.23A4.44,4.44,0,0,0,112,244l-.09,0a3.6,3.6,0,0,0-1.91,3.62,3.79,3.79,0,0,0,2.87,3,11.24,11.24,0,0,0,2.28.38c.64,2.51,2.21,4.67,5.17,4.68,3.3,0,4.46-2.19,4.72-4.77a6.37,6.37,0,0,0,5-1.94C132.12,246.85,131.12,244,128.25,243Z" fill="#efeeec"/></svg>