<svg id="Layer_1" data-name="Layer 1" xmlns="http://www.w3.org/2000/svg" viewBox="0 0 400 300">
    <rect x="48.36" y="79.23" width="119.94" height="101.53" fill="#24285b"/>
    <rect x="83.41" y="138.33" width="38.53" height="4.31" fill="#009688"/>
    <rect x="94.46" y="126.33" width="34.44" height="4.31" fill="#ffd200"/>
    <rect x="109.14" y="159.71" width="17.97" height="4.31" fill="#ffd200"/>
    <rect x="94.46" y="148.75" width="45.91" height="4.31" fill="#009688"/>
    <rect x="69.11" y="148.75" width="17.27" height="4.31" fill="#fff"/>
    <rect x="86.31" y="160.08" width="17.27" height="4.31" fill="#fff"/>
    <rect x="58.06" y="138.33" width="17.27" height="4.31" fill="#fff"/>
    <circle cx="56.21" cy="86.5" r="2.03" fill="#fff"/>
    <circle cx="62.25" cy="86.5" r="2.03" fill="#009688"/>
    <circle cx="67.95" cy="86.5" r="2.03" fill="#ffd200"/>
    <rect x="58.06" y="105.54" width="17.27" height="4.31" fill="#fff"/>
    <rect x="69.11" y="116.33" width="17.27" height="4.31" fill="#fff"/>
    <rect x="94.46" y="116.33" width="34.44" height="4.31" fill="#ffd200"/>
    <rect x="69.11" y="126.33" width="17.27" height="4.31" fill="#fff"/>
    <rect x="82.23" y="105.54" width="35.57" height="4.31" fill="#009688"/>
    <rect x="125.24" y="105.54" width="25.25" height="4.31" fill="#009688"/>
    <path d="M211.29,155.92s-20.27,7.54-23,21-18.13,34.88-39.83-6.87l-7.14,2.75s19.78,67,54.66,34.33S211.29,155.92,211.29,155.92Z"
          fill="#009688"/>
    <path d="M211.29,155.92s-20.27,7.54-23,21-18.13,34.88-39.83-6.87l-7.14,2.75s19.78,67,54.66,34.33S211.29,155.92,211.29,155.92Z"
          fill="#fff" opacity="0.46"/>
    <ellipse cx="233.77" cy="243.53" rx="106.67" ry="10.07" fill="#e6e6e6" opacity="0.45"/>
    <path d="M247.06,153s-21.88-8.51-42.08,7,6,70.1,6,70.1l37.81,1.26S298.37,185.89,247.06,153Z" fill="#009688"/>
    <path d="M237.38,159.12s-13.77,21.74.34,35.1c20,18.95-3.36,20.56-26.74,21.24L235.38,234l30.51-16.77-3.45-21.9Z"
          opacity="0.08"/>
    <path d="M216.6,228.09c14.52.48,18.26-.6,31.67-6.17,8.14-3.39,17.8-5.78,25.2-2.72,15.65,6.47,3.16,31.91-37,25.76l-37.08-1.67s-14.23,0-16.75-5.11c-3.07-6.23,3.36-12.7,33-10.12Z"
          fill="#24285b"/>
    <path d="M216.42,133.18a32.42,32.42,0,0,0,.76,8.7,2.64,2.64,0,0,0,3.3,1.78,5.82,5.82,0,0,0,4.39-4.56l1.4-4.66a4.72,4.72,0,0,0-2.28-5C220.94,127.46,216.41,130,216.42,133.18Z"
          fill="#f4a28c"/>
    <polygon points="226.01 135.29 229.38 152.2 219.92 153.39 221.27 140.61 226.01 135.29" fill="#f4a28c"/>
    <path d="M217.73,133.35a21.2,21.2,0,0,0,4.83-.56,4.39,4.39,0,0,0,.19,4.81,3.58,3.58,0,0,0,4.37,1.26l-.35-6.76a5.35,5.35,0,0,0-2.9-4.67,18.38,18.38,0,0,0-2.3-1c-2-.71-4.77.7-6.56-.55a1.27,1.27,0,0,0-2,.91c-.23,2.07.26,5.29,3.09,6.31A5.12,5.12,0,0,0,217.73,133.35Z"
          fill="#24285b"/>
    <path d="M222.18,137.46s0-2,1.49-1.93,1.6,3-.46,3.38Z" fill="#f4a28c"/>
    <path d="M216.43,136.5,215,138.58a.85.85,0,0,0,.58,1.3l2,.3Z" fill="#f4a28c"/>
    <path d="M233.39,218.74s-11.51-1.72-11.15,5.33l10.6.91Z" fill="#f4a28c"/>
    <path d="M220.86,143.39a6.24,6.24,0,0,0,3-1.95s0,3.16-3.36,6.4Z" fill="#ce8172" opacity="0.31"/>
    <polygon points="199.63 227.56 190.66 200.54 222.88 200.54 227.12 224.59 239.37 225.42 239.37 228.55 199.63 227.56"
             fill="#ffd200"/>
    <circle cx="208.97" cy="213.17" r="3.66" fill="#fff"/>
    <path d="M148.45,170.05s-2.48-7.75-6.77-10a.77.77,0,0,0-1.11.84l.74,3.78s-5.59,3.66,0,8.15Z" fill="#f4a28c"/>
    <path d="M243.84,240.05s-13.81,1.87-10.48,5.06,11.5.8,11.5.8Z" fill="#009688"/>
    <path d="M220.23,244.14l2.84-4.28s8.74,5.95,7.91,8.61C229.3,253.78,220.23,244.14,220.23,244.14Z" fill="#009688"/>
    <path d="M236.35,163.51a10,10,0,0,1,13.42-9.37c7,2.51,15.89,7.49,21.73,17.28,11,18.41,30.32,67.49-38.66,53.56l.64-7.19s26.87,2.84,29.43-9.27C265.1,198.1,236.35,186.22,236.35,163.51Z"
          fill="#009688"/>
    <path d="M236.35,163.51a10,10,0,0,1,13.42-9.37c7,2.51,15.89,7.49,21.73,17.28,11,18.41,30.32,67.49-38.66,53.56l.64-7.19s26.87,2.84,29.43-9.27C265.1,198.1,236.35,186.22,236.35,163.51Z"
          fill="#fff" opacity="0.46"/>
    <rect x="244.63" y="68.79" width="93.38" height="57.29" fill="#e6e6e6"/>
    <path d="M305.19,233.31s-6.94-1.9-8.45-8.35c0,0,10.76-2.18,11.06,8.92Z" fill="#009688" opacity="0.58"/>
    <path d="M306,232.62s-4.85-7.66-.58-14.83c0,0,8.18,5.19,4.54,14.85Z" fill="#009688" opacity="0.73"/>
    <path d="M307.29,232.63s2.56-8.1,10.31-9.63c0,0,1.45,5.25-5,9.65Z" fill="#009688"/>
    <polygon points="302.26 232.44 303.67 242.07 312.53 242.11 313.83 232.49 302.26 232.44" fill="#24285b"/>
    <path d="M275,98.34l-8.07,3,8.07,2.93v3l-11.54-4.39V99.72L275,95.33Z" fill="#a5a5a5"/>
    <path d="M276,107.6l2.18-2.62a3.9,3.9,0,0,0,3.15,1.86c1.57,0,2.4-.94,2.4-2.81V96h-6V92.81h9.86v11c0,4.19-2.11,6.25-6.11,6.25A6.84,6.84,0,0,1,276,107.6Z"
          fill="#a5a5a5"/>
    <path d="M290.22,108.1l1.33-2.95a10,10,0,0,0,5.6,1.77c2.32,0,3.27-.78,3.27-1.82,0-3.17-9.86-1-9.86-7.29,0-2.89,2.32-5.29,7.14-5.29A11.29,11.29,0,0,1,303.59,94l-1.21,3a9.55,9.55,0,0,0-4.7-1.34c-2.33,0-3.22.88-3.22,1.94,0,3.13,9.86,1,9.86,7.2,0,2.83-2.35,5.26-7.2,5.26A12,12,0,0,1,290.22,108.1Z"
          fill="#a5a5a5"/>
    <path d="M318,99.72v3.15l-11.54,4.39v-3l8.07-2.93-8.07-3v-3Z" fill="#a5a5a5"/>
    <circle cx="252.2" cy="77.43" r="2.03" fill="#24285b"/>
    <circle cx="258.24" cy="77.43" r="2.03" fill="#009688"/>
    <circle cx="263.94" cy="77.43" r="2.03" fill="#ffd200"/>
    <rect x="272.66" y="74.36" width="45.96" height="6.38" fill="#a5a5a5" opacity="0.2"/>
</svg>