<?xml version="1.0" encoding="utf-8"?>
<!-- Generator: Adobe Illustrator 24.0.0, SVG Export Plug-In . SVG Version: 6.00 Build 0)  -->
<svg version="1.1" id="Layer_1" xmlns="http://www.w3.org/2000/svg" xmlns:xlink="http://www.w3.org/1999/xlink" x="0px" y="0px"
	 viewBox="0 0 400 300" style="enable-background:new 0 0 400 300;" xml:space="preserve">
<style type="text/css">
	.st0{fill:#32234F;}
	.st1{fill:#009688;}
	.st2{fill:#FFD200;}
	.st3{fill:#FFFFFF;}
	.st4{opacity:0.46;fill:#FFFFFF;enable-background:new    ;}
	.st5{opacity:0.45;fill:#E6E6E6;enable-background:new    ;}
	.st6{opacity:8.000000e-02;enable-background:new    ;}
	.st7{fill:#F4A28C;}
	.st8{fill:#24285B;}
	.st9{opacity:0.31;fill:#CE8172;enable-background:new    ;}
	.st10{fill:#E6E6E6;}
	.st11{opacity:0.58;fill:#009688;enable-background:new    ;}
	.st12{opacity:0.73;fill:#009688;enable-background:new    ;}
	.st13{opacity:0.2;fill:#A5A5A5;enable-background:new    ;}
	.st14{enable-background:new    ;}
	.st15{fill:#A5A5A5;}
</style>
<rect x="48.4" y="79.2" class="st0" width="119.9" height="101.5"/>
<rect x="83.4" y="138.3" class="st1" width="38.5" height="4.3"/>
<rect x="94.5" y="126.3" class="st2" width="34.4" height="4.3"/>
<rect x="109.1" y="159.7" class="st2" width="18" height="4.3"/>
<rect x="94.5" y="148.8" class="st1" width="45.9" height="4.3"/>
<rect x="69.1" y="148.8" class="st3" width="17.3" height="4.3"/>
<rect x="86.3" y="160.1" class="st3" width="17.3" height="4.3"/>
<rect x="58.1" y="138.3" class="st3" width="17.3" height="4.3"/>
<circle class="st3" cx="56.2" cy="86.5" r="2"/>
<circle class="st1" cx="62.2" cy="86.5" r="2"/>
<circle class="st2" cx="67.9" cy="86.5" r="2"/>
<rect x="58.1" y="105.5" class="st3" width="17.3" height="4.3"/>
<rect x="69.1" y="116.3" class="st3" width="17.3" height="4.3"/>
<rect x="94.5" y="116.3" class="st2" width="34.4" height="4.3"/>
<rect x="69.1" y="126.3" class="st3" width="17.3" height="4.3"/>
<rect x="82.2" y="105.5" class="st1" width="35.6" height="4.3"/>
<rect x="125.2" y="105.5" class="st1" width="25.2" height="4.3"/>
<path class="st1" d="M211.3,155.9c0,0-20.3,7.5-23,21s-18.1,34.9-39.8-6.9l-7.1,2.8c0,0,19.8,67,54.7,34.3S211.3,155.9,211.3,155.9z
	"/>
<path class="st4" d="M211.3,155.9c0,0-20.3,7.5-23,21s-18.1,34.9-39.8-6.9l-7.1,2.8c0,0,19.8,67,54.7,34.3S211.3,155.9,211.3,155.9z
	"/>
<ellipse class="st5" cx="233.8" cy="243.5" rx="106.7" ry="10.1"/>
<path class="st1" d="M247.1,153c0,0-21.9-8.5-42.1,7s6,70.1,6,70.1l37.8,1.3C248.8,231.4,298.4,185.9,247.1,153z"/>
<path class="st6" d="M237.4,159.1c0,0-13.8,21.7,0.3,35.1c20,18.9-3.4,20.6-26.7,21.2l24.4,18.5l30.5-16.8l-3.5-21.9L237.4,159.1z"
	/>
<path class="st0" d="M216.6,228.1c14.5,0.5,18.3-0.6,31.7-6.2c8.1-3.4,17.8-5.8,25.2-2.7c15.6,6.5,3.2,31.9-37,25.8l-37.1-1.7
	c0,0-14.2,0-16.8-5.1c-3.1-6.2,3.4-12.7,33-10.1H216.6z"/>
<path class="st7" d="M216.4,133.2c-0.1,2.9,0.1,5.8,0.8,8.7c0.4,1.4,1.9,2.2,3.3,1.8l0,0c2.2-0.5,4-2.3,4.4-4.6l1.4-4.7
	c0.4-2-0.5-4-2.3-5C220.9,127.5,216.4,130,216.4,133.2z"/>
<polygon class="st7" points="226,135.3 229.4,152.2 219.9,153.4 221.3,140.6 "/>
<path class="st8" d="M217.7,133.4c1.6,0,3.2-0.2,4.8-0.6c-0.9,1.5-0.8,3.4,0.2,4.8c1,1.4,2.8,1.9,4.4,1.3l-0.4-6.8
	c0-2-1.1-3.8-2.9-4.7c-0.7-0.4-1.5-0.7-2.3-1c-2-0.7-4.8,0.7-6.6-0.6c-0.6-0.4-1.4-0.3-1.8,0.3c-0.1,0.2-0.2,0.4-0.2,0.6
	c-0.2,2.1,0.3,5.3,3.1,6.3C216.6,133.3,217.2,133.4,217.7,133.4z"/>
<path class="st7" d="M222.2,137.5c0,0,0-2,1.5-1.9s1.6,3-0.5,3.4L222.2,137.5z"/>
<path class="st7" d="M216.4,136.5l-1.4,2.1c-0.3,0.4-0.1,0.9,0.3,1.2c0.1,0.1,0.2,0.1,0.3,0.1l2,0.3L216.4,136.5z"/>
<path class="st7" d="M233.4,218.7c0,0-11.5-1.7-11.1,5.3l10.6,0.9L233.4,218.7z"/>
<path class="st9" d="M220.9,143.4c1.2-0.3,2.2-1,3-1.9c0,0,0,3.2-3.4,6.4L220.9,143.4z"/>
<polygon class="st2" points="199.6,227.6 190.7,200.5 222.9,200.5 227.1,224.6 239.4,225.4 239.4,228.6 "/>
<circle class="st3" cx="209" cy="213.2" r="3.7"/>
<path class="st7" d="M148.4,170.1c0,0-2.5-7.8-6.8-10c-0.4-0.2-0.8-0.1-1,0.3c-0.1,0.2-0.1,0.3-0.1,0.5l0.7,3.8c0,0-5.6,3.7,0,8.1
	L148.4,170.1z"/>
<path class="st1" d="M243.8,240.1c0,0-13.8,1.9-10.5,5.1s11.5,0.8,11.5,0.8L243.8,240.1z"/>
<path class="st1" d="M220.2,244.1l2.8-4.3c0,0,8.7,5.9,7.9,8.6C229.3,253.8,220.2,244.1,220.2,244.1z"/>
<path class="st1" d="M236.4,163.5c0-5.5,4.5-10,10-10c1.2,0,2.3,0.2,3.4,0.6c7,2.5,15.9,7.5,21.7,17.3c11,18.4,30.3,67.5-38.7,53.6
	l0.6-7.2c0,0,26.9,2.8,29.4-9.3C265.1,198.1,236.4,186.2,236.4,163.5z"/>
<path class="st4" d="M236.4,163.5c0-5.5,4.5-10,10-10c1.2,0,2.3,0.2,3.4,0.6c7,2.5,15.9,7.5,21.7,17.3c11,18.4,30.3,67.5-38.7,53.6
	l0.6-7.2c0,0,26.9,2.8,29.4-9.3C265.1,198.1,236.4,186.2,236.4,163.5z"/>
<rect x="244.6" y="68.8" class="st10" width="93.4" height="57.3"/>
<path class="st11" d="M305.2,233.3c0,0-6.9-1.9-8.5-8.4c0,0,10.8-2.2,11.1,8.9L305.2,233.3z"/>
<path class="st12" d="M306,232.6c0,0-4.9-7.7-0.6-14.8c0,0,8.2,5.2,4.5,14.9L306,232.6z"/>
<path class="st1" d="M307.3,232.6c0,0,2.6-8.1,10.3-9.6c0,0,1.5,5.2-5,9.6H307.3z"/>
<polygon class="st0" points="302.3,232.4 303.7,242.1 312.5,242.1 313.8,232.5 "/>
<circle class="st0" cx="252.2" cy="77.4" r="2"/>
<circle class="st1" cx="258.2" cy="77.4" r="2"/>
<circle class="st2" cx="263.9" cy="77.4" r="2"/>
<rect x="272.7" y="74.4" class="st13" width="46" height="6.4"/>
<g class="st14">
	<path class="st15" d="M258.1,102.6V100l11.4-4.4v3l-4.4,1.4l-3.4,1.2v0.1l3.4,1.2l4.4,1.4v3L258.1,102.6z"/>
	<path class="st15" d="M271.5,101.5c0-5.4,3.5-8.5,7.6-8.5c2.1,0,3.8,1,4.9,2.1l-1.9,2.3c-0.8-0.7-1.7-1.3-2.9-1.3c-2.2,0-4,2-4,5.2
		c0,3.3,1.5,5.3,3.9,5.3c1.3,0,2.4-0.7,3.2-1.5l1.9,2.3c-1.3,1.6-3.1,2.4-5.2,2.4C274.9,109.8,271.5,107,271.5,101.5z"/>
	<path class="st15" d="M285,107.5l2.1-2.5c1.2,1,2.7,1.7,4,1.7c1.5,0,2.3-0.6,2.3-1.6c0-1-0.9-1.3-2.3-1.9l-2.1-0.9
		c-1.7-0.7-3.3-2.1-3.3-4.4c0-2.7,2.4-4.8,5.8-4.8c1.9,0,3.8,0.7,5.2,2.1l-1.9,2.3c-1.1-0.8-2.1-1.3-3.4-1.3c-1.3,0-2.1,0.5-2.1,1.5
		c0,1,1.1,1.3,2.5,1.9l2.1,0.8c2,0.8,3.2,2.1,3.2,4.4c0,2.7-2.2,5-6.1,5C288.8,109.8,286.6,109,285,107.5z"/>
	<path class="st15" d="M298.3,107.5l2.1-2.5c1.2,1,2.7,1.7,4,1.7c1.5,0,2.3-0.6,2.3-1.6c0-1-0.9-1.3-2.3-1.9l-2.1-0.9
		c-1.7-0.7-3.3-2.1-3.3-4.4c0-2.7,2.4-4.8,5.8-4.8c1.9,0,3.8,0.7,5.2,2.1l-1.9,2.3c-1.1-0.8-2.1-1.3-3.4-1.3c-1.3,0-2.1,0.5-2.1,1.5
		c0,1,1.1,1.3,2.5,1.9l2.1,0.8c2,0.8,3.2,2.1,3.2,4.4c0,2.7-2.2,5-6.1,5C302.2,109.8,300,109,298.3,107.5z"/>
	<path class="st15" d="M312.1,104l4.4-1.4l3.4-1.2v-0.1l-3.4-1.2l-4.4-1.4v-3l11.4,4.4v2.5l-11.4,4.4V104z"/>
</g>
</svg>
