<svg id="Layer_1" data-name="Layer 1" xmlns="http://www.w3.org/2000/svg" viewBox="0 0 400 300">
    <path d="M99.78,58.52a98.92,98.92,0,0,0-65.65,79.69c-4.28,31.19,6,65.66,66.23,75.48,117.29,19.11,227.14,24.56,255.18-27S375,46.82,315.44,41.1C268.11,36.56,167.69,35,99.78,58.52Z"
          fill="#e6e6e6" opacity="0.3"/>
    <path d="M228.33,96.35s0-10.25,9-10.69,41.87-2.63,47,14.2,1.9,61.25-19.55,69.42-44.54-5.1-44.54-5.1S237,130.91,228.33,96.35Z"
          fill="#ffd200"/>
    <path d="M235.09,94.28s-13.15,1.13-20.47,7.94S209,141.37,168,139.5V146s50.21,3.74,58.21-25Z" fill="#009688"/>
    <path d="M235.09,94.28s-13.15,1.13-20.47,7.94S209,141.37,168,139.5V146s50.21,3.74,58.21-25Z" fill="#fff"
          opacity="0.46"/>
    <path d="M241.59,74.22a30.77,30.77,0,0,0-.57,8.16,2.48,2.48,0,0,0,2.79,2.13,5.47,5.47,0,0,0,4.73-3.58l2-4.1a4.43,4.43,0,0,0-1.38-4.92C246.61,69.59,242.05,71.25,241.59,74.22Z"
          fill="#f4a28c"/>
    <polygon points="250.15 77.57 250.79 93.7 241.88 93.42 244.99 81.8 250.15 77.57" fill="#f4a28c"/>
    <path d="M247.34,68.72c.79,0,1.37.83,2,1.27a5,5,0,0,1,2,4.75L250.65,81a3.33,3.33,0,0,1-3.85-1.8,4.11,4.11,0,0,1,.53-4.48,20.08,20.08,0,0,1-4.55-.18,4.64,4.64,0,0,1-1.46-.48S239.22,68.58,247.34,68.72Z"
          fill="#24285b"/>
    <path d="M246.29,79s.26-1.88,1.66-1.56,1,3-.92,3.05Z" fill="#f4a28c"/>
    <path d="M241.11,77.29,239.53,79a.79.79,0,0,0,.34,1.29l1.83.57Z" fill="#f4a28c"/>
    <path d="M244.2,84.31A5.89,5.89,0,0,0,247.27,83s-.48,2.91-4,5.43Z" fill="#ce8172" opacity="0.31"/>
    <path d="M250.79,93.7l-8.91-.28S218,93.8,216.5,111.21s8.71,31,5.31,44.59l32.42,4.14S307.37,106.54,250.79,93.7Z"
          fill="#009688"/>
    <path d="M246.22,112.14a43.07,43.07,0,0,0,.74,13A29.36,29.36,0,0,1,240.72,151l-5.63,6.52,19.14,2.45S268.82,144,271.5,136.39s-3.27-16.19-3.27-16.19Z"
          opacity="0.08"/>
    <polygon points="114.19 262.6 292.92 262.6 277.94 226.65 227.11 215.34 202.7 188.69 141.42 193.37 114.19 262.6"
             fill="#e6e6e6"/>
    <path d="M243.23,158.53h0l-21.42-2.73h-.57a28,28,0,0,0-25.64,17.32l-5.15,12.47,4.08,1.79,7.5-9.49a22.2,22.2,0,0,1,19.07-8.37l8.92.67a15.69,15.69,0,0,1,14.22,12.22c3.2,14.68,3,32.58,3,32.58h6l1-55.05Z"
          fill="#24285b"/>
    <polygon points="77.25 262.6 107.13 222.6 156.78 238.42 210.69 243.49 219.84 262.6 77.25 262.6" fill="#c9c9c9"/>
    <path d="M250.78,106.78a13,13,0,0,1,18.81-4.66c10.94,7.38,26.94,22.1,22.36,43-6.81,31-42.56,17.7-42.56,17.7v-7.15s27.92,5.79,26.22-14C274.19,125.23,243.56,121.22,250.78,106.78Z"
          fill="#009688"/>
    <path d="M250.78,106.78a13,13,0,0,1,18.81-4.66c10.94,7.38,26.94,22.1,22.36,43-6.81,31-42.56,17.7-42.56,17.7v-7.15s27.92,5.79,26.22-14C274.19,125.23,243.56,121.22,250.78,106.78Z"
          fill="#fff" opacity="0.46"/>
    <path d="M249.39,157.54s-8.09-2.39-7.51,2.89,7.51,2.36,7.51,2.36Z" fill="#f4a28c"/>
    <path d="M267,98a10.93,10.93,0,0,0-9.3-2.2c-4.23.89-10.25,3.08-11.9,8.43-2.63,8.51,9.52,34.42,28.09,32,0,0-6.21-8.81-12-13.74s-12.76-24.16,6.73-20.93C268.67,101.55,269.47,100.09,267,98Z"
          fill="#ffd200"/>
    <path d="M267,98a10.93,10.93,0,0,0-9.3-2.2c-4.23.89-10.25,3.08-11.9,8.43-2.63,8.51,9.52,34.42,28.09,32,0,0-6.21-8.81-12-13.74s-12.76-24.16,6.73-20.93C268.67,101.55,269.47,100.09,267,98Z"
          opacity="0.08"/>
    <path d="M168,139.5s-8.43-1.88-8.17,3.23S168,146,168,146Z" fill="#24285b"/>
    <rect x="162.66" y="74.29" width="2.85" height="117.72" fill="#24285b"/>
    <path d="M162.66,77.29s-10.51-4.93-18.68,0S123,87,111.55,79,83,79,83,79v52.78s17.1-10.32,28.85-3.12,24,.31,32.93-4,17.92.77,17.92.77Z"
          fill="#009688"/>
    <polygon points="192.66 177.28 199.86 180.63 194.49 189.32 180.23 190.73 188.23 186.65 192.66 177.28"
             fill="#009688"/>
    <polygon points="246.34 206.39 253.39 206.39 253.39 218.31 258.63 222.35 247.27 219.83 246.34 206.39"
             fill="#009688"/>
    <path d="M240.91,74.31s6.69,2,10.46,1.78c0,0,2.1-4.42.32-7.75C250.13,65.41,240.11,62.11,240.91,74.31Z"
          fill="#009688"/>
    <path d="M241,71.21s7,2.3,11.2,2.41a10.35,10.35,0,0,1-.79,2.47s-3.52.35-10.46-1.78A15.84,15.84,0,0,1,241,71.21Z"
          fill="#fff" opacity="0.68"/>
    <path d="M235.77,94.14s-10.47-.81-16.09,2.12-15.69,28.25.84,41.12C220.52,137.38,207.19,100.83,235.77,94.14Z"
          fill="#ffd200"/>
    <path d="M235.77,94.14s-10.47-.81-16.09,2.12-15.69,28.25.84,41.12C220.52,137.38,207.19,100.83,235.77,94.14Z"
          opacity="0.08"/>
    <path d="M238.51,93.7s-1.34-3.65,4.49-4.46,13.73-.52,12,5.55A59.22,59.22,0,0,1,238.51,93.7Z" fill="#009688"/>
    <path d="M238.51,93.7s-1.34-3.65,4.49-4.46,13.73-.52,12,5.55A59.22,59.22,0,0,1,238.51,93.7Z" fill="#fff"
          opacity="0.68"/>
    <circle cx="81.98" cy="180.9" r="4.72" fill="#e6e6e6"/>
    <circle cx="328.11" cy="86.81" r="4.72" fill="#e6e6e6"/>
    <circle cx="193.04" cy="86.79" r="4.72" fill="#e6e6e6"/>
    <circle cx="289.77" cy="190.73" r="3.07" fill="#e6e6e6"/>
    <circle cx="51.81" cy="126.68" r="3.07" fill="#e6e6e6"/>
    <circle cx="121" cy="62.54" r="3.07" fill="#e6e6e6"/>
    <circle cx="251.37" cy="47.24" r="3.07" fill="#e6e6e6"/>
    <circle cx="341.98" cy="153.62" r="3.07" fill="#e6e6e6"/>
</svg>