<svg id="Layer_1" data-name="Layer 1" xmlns="http://www.w3.org/2000/svg" viewBox="0 0 400 300">
    <path d="M97.37,53.76C62.6,65.63,36.81,95.71,31.72,132.09c-4.28,30.66,6,64.55,66.23,74.2,117.29,18.78,227.14,24.14,255.18-26.54S372.54,42.26,313,36.65C265.7,32.18,165.28,30.6,97.37,53.76Z"
          fill="#e6e6e6" opacity="0.3"/>
    <path d="M128.72,87.31a29.84,29.84,0,0,1,1.9,7.79,2.43,2.43,0,0,1-2.34,2.51,5.36,5.36,0,0,1-5.16-2.67l-2.57-3.63a4.33,4.33,0,0,1,.51-5C123.11,83.68,127.79,84.52,128.72,87.31Z"
          fill="#f4a28c"/>
    <ellipse cx="203.48" cy="257.55" rx="148.03" ry="11.56" fill="#e6e6e6" opacity="0.45"/>
    <path d="M99.33,251.28s-1.29,3.57-4.51,3.84-4.07,3.43-1.17,4.25S104,256.46,104,256.46l-.21-4.65Z" fill="#009688"/>
    <path d="M143.61,251.28s1.29,3.57,4.51,3.84,4.07,3.43,1.17,4.25-10.38-2.91-10.38-2.91l.21-4.65Z" fill="#009688"/>
    <path d="M147.74,108.56s23,4.64,21.09,26.06,19,33.2,6.19,45.58-29.86,5.42-29.86,5.42Z" fill="#009688"/>
    <path d="M147.74,108.56s23,4.64,21.09,26.06,19,33.2,6.19,45.58-29.86,5.42-29.86,5.42Z" fill="#fff" opacity="0.39"/>
    <polygon points="121.71 92.22 121.91 108.03 130.61 107.29 126.97 96.09 121.71 92.22" fill="#f4a28c"/>
    <path d="M129.69,90.2l1.81,1.4a.77.77,0,0,1-.12,1.3l-1.67.85Z" fill="#f4a28c"/>
    <path d="M127.43,97.59a7.48,7.48,0,0,1-3.51-1.13s.54,3.11,4.61,4.41Z" fill="#ce8172" opacity="0.31"/>
    <path d="M138.34,106.49a111.64,111.64,0,0,0-41.71,8.92,16.09,16.09,0,0,0-8.13,22l22.7,45.27,42.08-2.49s7.66-25.44,6.12-54.23A20.68,20.68,0,0,0,138.34,106.49Z"
          fill="#009688"/>
    <path d="M111.2,182.69,98.63,251.93h6.28l15.77-37.59a65.22,65.22,0,0,1,28-31.52l4.62-2.62Z" fill="#24285b"/>
    <path d="M107.73,121.43s9.92,7.34,8,20.45-3.88,23.29,8.19,20.24S142.54,131,142.54,131l14.11.35-2.44,31.35-8.18.57a8.84,8.84,0,0,0-8.07,7.08l-2.2,10.93-24.56,1.45-3.47-5.16L92.41,160.9l-1.92-26.46Z"
          opacity="0.08"/>
    <rect x="125.63" y="121.82" width="27.33" height="37.43" transform="translate(268.74 290.2) rotate(-176.11)"
          fill="#ffd200"/>
    <path d="M153.28,180.2l-6.49,71.73h-8.36s1.95-54-13.12-65.46Z" fill="#24285b"/>
    <path d="M108.67,125.49a10.26,10.26,0,0,0-18.35-6c-4.83,6.16-9.27,16.44-8.9,33.32.78,36,21.93,45.7,54.57,6.27l-6.42-5S116.71,165,104.94,165.18C96.18,165.3,109.26,142.68,108.67,125.49Z"
          fill="#009688"/>
    <path d="M108.67,125.49a10.26,10.26,0,0,0-18.35-6c-4.83,6.16-9.27,16.44-8.9,33.32.78,36,21.93,45.7,54.57,6.27l-6.42-5S116.71,165,104.94,165.18C96.18,165.3,109.26,142.68,108.67,125.49Z"
          fill="#fff" opacity="0.39"/>
    <path d="M153,139.85s-9.36,17.27-28.24,12.39l-.41,6,27.27,1.85Z" opacity="0.08"/>
    <path d="M130.75,155s3.84-6.78,8.54-5-3.3,9.05-3.3,9.05Z" fill="#f4a28c"/>
    <path d="M123.48,92.05a1.74,1.74,0,0,0,2,1.09,7,7,0,0,1,5.23.61c2.78,1.82.32,5.92-2.89,5.14s-7.87-6-7.87-6-3.17-4.39-2.46-7.24,7.77-7.11,11-2.31c2.06,3.07-1,4.69-3.45,5.45a2.53,2.53,0,0,0-1.6,3.3Z"
          fill="#24285b"/>
    <path d="M125,91.4s-.57-1.77-1.86-1.24-.5,3.1,1.38,2.8Z" fill="#f4a28c"/>
    <rect x="215.24" y="187.91" width="81.07" height="69.53" fill="#e6e6e6"/>
    <polygon points="263.78 102.57 304.67 69.32 281.91 116.62 263.78 102.57" fill="#009688"/>
    <polygon points="263.78 102.57 304.67 69.32 281.91 116.62 263.78 102.57" fill="#fff" opacity="0.39"/>
    <rect x="207.24" y="171.59" width="96.01" height="16.32" fill="#a5a5a5"/>
    <path d="M253.27,142.91c25.78,17.53,59.06,13.53,74.33-8.92.71-1,1.34-2.11,1.95-3.18L236.49,67.52c-.78,1-1.54,1.94-2.24,3C219,93,227.49,125.37,253.27,142.91Z"
          fill="#24285b"/>
    <path d="M236.4,171.59l18.3-37.91a7.49,7.49,0,0,1,14.22,2.69l2.68,35.22Z" fill="#009688"/>
    <circle cx="260.36" cy="140.93" r="4.58" opacity="0.08"/>
    <circle cx="305.82" cy="69.77" r="7.2" fill="#009688"/>
    <rect x="42.74" y="44.16" width="48.37" height="42.73" fill="#ffd200"/>
    <path d="M77.64,62.9a2.06,2.06,0,0,1-1.43-.59,13.15,13.15,0,0,0-18.59,0,2,2,0,0,1-2.87-2.86,17.2,17.2,0,0,1,24.33,0,2,2,0,0,1,0,2.86A2.06,2.06,0,0,1,77.64,62.9Z"
          fill="#fff"/>
    <path d="M72.64,67.91a2,2,0,0,1-1.43-.59,6.07,6.07,0,0,0-8.59,0,2,2,0,0,1-2.86-2.87,10.13,10.13,0,0,1,14.31,0,2,2,0,0,1-1.43,3.46Z"
          fill="#fff"/>
    <path d="M66.91,76.67a3,3,0,1,1,3-3A3,3,0,0,1,66.91,76.67Z" fill="#fff"/>
</svg>