<svg xmlns="http://www.w3.org/2000/svg" xmlns:xlink="http://www.w3.org/1999/xlink" viewBox="0 0 400 300"><defs><linearGradient id="linear-gradient" x1="251.54" y1="194.43" x2="238.22" y2="210.6" gradientUnits="userSpaceOnUse"><stop offset="0" stop-color="#d46a00"/><stop offset="1" stop-color="#fff"/></linearGradient><linearGradient id="linear-gradient-2" x1="206.16" y1="178.02" x2="187.84" y2="199.43" xlink:href="#linear-gradient"/></defs><title>HA</title><g style="isolation:isolate"><g id="Layer_2" data-name="Layer 2"><path d="M201.24,290.18,346.1,204.56c4.61-2.59,8.57-6.84,4.07-9.63L204.79,111.15c-2.18-1.35-5.49-2.24-7.71-.95L45,198.45c-4.61,2.68-5.44,10.16-.82,12.84l138,78.75A19.26,19.26,0,0,0,201.24,290.18Z" fill="#225870"/><path d="M238.12,122.59a7.22,7.22,0,0,1-1.52.93.25.25,0,0,1-.22.32c-.27,0-.54,0-.81,0a6.05,6.05,0,0,1-5-1,15.08,15.08,0,0,1-3.34-2c-2.48-2-5-4.88-7.82-6.93,0,.57.08,1.15.14,1.69l.61,5.5,1.08,9.75c0,.17,0,.69.09.83,4.7,6.08,17.64,3.93,17.64,3.93S246.62,115.86,238.12,122.59Z" fill="#f47a63"/><polyline points="239.4 195.87 224.19 207.39 241.98 219.39 259.77 204.68" fill="url(#linear-gradient)" style="mix-blend-mode:multiply"/><path d="M250.18,184.29s-1.36,7.56.85,8.45,11.19,7.9,9.85,10.71c-3.08,6.45-21.48-7.58-21.48-7.58l2.28-16" fill="#ef9841"/><path d="M238.57,155.37c0,1.45-1.29,26.62-1.29,26.62s10.22,9.43,17.85,8.84l3.77-24.42" fill="#fff7e1"/><path d="M220.58,175.77s13.58,1.56,21.58-6.7c4.65-4.81,13.43-13,13.43-13l-32.39-2.37" fill="#fff7e1"/><path d="M155.67,12.67c-14.58,8.64-50.67,30-61.46,36.27a6,6,0,0,0-3,5.26V202.36c-.22,3,3.2,5.82,6,4.23l60.67-34.54c2.44-1.4,4-3.37,4-6.18V16.2A4.1,4.1,0,0,0,155.67,12.67Z" fill="#7f54b3"/><path d="M138.39,75.45a7.78,7.78,0,0,1-1.37-.12c-3-.54-5.48-2.78-7-6.32a21.05,21.05,0,0,1-1-11.65c1.61-9,7.62-15.19,13.7-14.11,3,.54,5.48,2.78,7,6.32a21.05,21.05,0,0,1,1,11.65h0a21.05,21.05,0,0,1-5,10.58A10.19,10.19,0,0,1,138.39,75.45Zm3-29.55c-4.14,0-8.41,5.19-9.62,11.94a18.26,18.26,0,0,0,.83,10.09c1.1,2.64,2.84,4.3,4.89,4.66s4.25-.59,6.2-2.68A18.26,18.26,0,0,0,148,60.74h0a18.26,18.26,0,0,0-.83-10.09C146,48,144.3,46.35,142.25,46A4.84,4.84,0,0,0,141.4,45.91Z" fill="#f2f2f2"/><polygon points="103.26 64.84 103.26 189.21 116.65 180.69 116.65 57.11 103.26 64.84" fill="#fff" opacity="0.6"/><path d="M161.47,14.43,142.16,25.58V29.7a2,2,0,0,1-1,1.71L126.4,39.95a1.3,1.3,0,0,1-2-1.13v-3L96.71,52.06a1.76,1.76,0,0,0-.87,1.52V201.65a1.2,1.2,0,0,0,1.8,1l64.23-37.23a6.37,6.37,0,0,1-2.83,5.91c-3.33,2.12-61.84,35.23-61.84,35.23s-4.63,2.09-6-3.43V54.2a6.09,6.09,0,0,1,2.51-4.94c2.68-1.95,61.95-36.59,61.95-36.59A4.19,4.19,0,0,1,161.47,14.43Z" fill="#124577"/><path d="M244,13.79c13.91,8.71,48.9,29,60.83,36.27,2.7,1.66,3.11,4.13,3.16,7.3l0,148.07a4.72,4.72,0,0,1-6.08.93L243.2,173.19c-2.92-1.72-5.22-3.49-5.22-6.88l.51-149.83C238.49,13.23,241.27,12.07,244,13.79Z" fill="#7f54b3"/><path d="M238.6,15.42l19.09,11v4.12a2,2,0,0,0,1,1.71l14.77,8.53a1.3,1.3,0,0,0,2-1.13v-3l27.73,16.26a1.76,1.76,0,0,1,.87,1.52V202.51a1.2,1.2,0,0,1-1.8,1L238,166.31a6.37,6.37,0,0,0,2.83,5.91c3.33,2.12,61.84,35.23,61.84,35.23s4.63,2.09,6-3.43v-149a6.09,6.09,0,0,0-2.51-4.94c-2.68-1.95-62.36-36.64-62.36-36.64S239.56,11.53,238.6,15.42Z" fill="#124577"/><ellipse cx="166.16" cy="238.81" rx="21.89" ry="12.82" fill="#ff912e"/><polygon points="144.28 238.81 144.28 235.11 146.66 238.07 144.28 238.81" fill="#e0944f"/><polygon points="188.05 235.11 188.05 238.81 185.28 238.81 187.31 235.84 188.05 235.11" fill="#e0944f"/><ellipse cx="166.16" cy="235.11" rx="21.89" ry="12.82" fill="#ffb92c"/><path d="M177.27,233.39a1.71,1.71,0,0,1,.17,1l-.09.34-4,0a1.82,1.82,0,0,0,.07-.34,1.49,1.49,0,0,0-.24-.73,2.19,2.19,0,0,0-1-.89,4.37,4.37,0,0,0-1.88-.49,4,4,0,0,0-1.78.27q-.84.36-.65.94a3.46,3.46,0,0,0,.85,1.25,15.22,15.22,0,0,1,1.21,1.39,1.46,1.46,0,0,1,.22,1.54,3.44,3.44,0,0,1-1.94,1.51,11.5,11.5,0,0,1-4.23.88,13.54,13.54,0,0,1-4.63-.65l-2.3,1-2.69-1.31,2.23-1a5,5,0,0,1-1.07-1,2.84,2.84,0,0,1-.53-.89,2.93,2.93,0,0,1-.14-.72,1.56,1.56,0,0,1,0-.5l.08-.19h4a3.19,3.19,0,0,0-.1.4,1.7,1.7,0,0,0,.32.91,3,3,0,0,0,1.32,1.13,5.68,5.68,0,0,0,2.32.6,4.83,4.83,0,0,0,2.14-.34q.83-.36.62-.94a3.45,3.45,0,0,0-.88-1.25,12.79,12.79,0,0,1-1.22-1.39,1.43,1.43,0,0,1-.17-1.55,3.73,3.73,0,0,1,2-1.54,11,11,0,0,1,4.06-.8,11.73,11.73,0,0,1,4.33.67l2.29-1,2.51,1.37-2.3,1A3.27,3.27,0,0,1,177.27,233.39Z" fill="#ea8b24"/><ellipse cx="166.2" cy="235.26" rx="18.37" ry="10.76" fill="none" stroke="#f7931e" stroke-miterlimit="10" stroke-width="6"/><ellipse cx="166.16" cy="229.57" rx="21.89" ry="12.82" fill="#ff912e"/><polygon points="144.28 229.57 144.28 225.86 146.66 228.82 144.28 229.57" fill="#e0944f"/><polygon points="188.05 225.86 188.05 229.57 185.28 229.57 187.31 226.59 188.05 225.86" fill="#e0944f"/><ellipse cx="166.16" cy="225.86" rx="21.89" ry="12.82" fill="#ffb92c"/><path d="M177.27,224.15a1.71,1.71,0,0,1,.17,1l-.09.34-4,0a1.82,1.82,0,0,0,.07-.34,1.49,1.49,0,0,0-.24-.73,2.19,2.19,0,0,0-1-.89,4.37,4.37,0,0,0-1.88-.49,4,4,0,0,0-1.78.27q-.84.36-.65.94a3.46,3.46,0,0,0,.85,1.25,15.22,15.22,0,0,1,1.21,1.39,1.46,1.46,0,0,1,.22,1.54,3.44,3.44,0,0,1-1.94,1.51,11.5,11.5,0,0,1-4.23.88,13.54,13.54,0,0,1-4.63-.65l-2.3,1-2.69-1.31,2.23-1a5,5,0,0,1-1.07-1,2.84,2.84,0,0,1-.53-.89,2.93,2.93,0,0,1-.14-.72,1.56,1.56,0,0,1,0-.5l.08-.19h4a3.19,3.19,0,0,0-.1.4,1.7,1.7,0,0,0,.32.91,3,3,0,0,0,1.32,1.13,5.68,5.68,0,0,0,2.32.6,4.83,4.83,0,0,0,2.14-.34q.83-.36.62-.94a3.45,3.45,0,0,0-.88-1.25,12.79,12.79,0,0,1-1.22-1.39,1.43,1.43,0,0,1-.17-1.55,3.73,3.73,0,0,1,2-1.54,11,11,0,0,1,4.06-.8,11.73,11.73,0,0,1,4.33.67l2.29-1,2.51,1.37-2.3,1A3.27,3.27,0,0,1,177.27,224.15Z" fill="#ea8b24"/><ellipse cx="166.2" cy="226.02" rx="18.37" ry="10.76" fill="none" stroke="#f7931e" stroke-miterlimit="10" stroke-width="2"/><ellipse cx="166.13" cy="224.14" rx="21.89" ry="12.82" fill="#ff912e"/><polygon points="144.24 224.14 144.24 220.43 146.62 223.39 144.24 224.14" fill="#e0944f"/><polygon points="188.01 220.43 188.01 224.14 185.24 224.14 187.27 221.16 188.01 220.43" fill="#e0944f"/><ellipse cx="166.13" cy="220.43" rx="21.89" ry="12.82" fill="#ffb92c"/><path d="M177.23,218.72a1.71,1.71,0,0,1,.17,1l-.09.34-4,0a1.82,1.82,0,0,0,.07-.34,1.49,1.49,0,0,0-.24-.73,2.19,2.19,0,0,0-1-.89,4.37,4.37,0,0,0-1.88-.49,4,4,0,0,0-1.78.27q-.84.36-.65.94a3.46,3.46,0,0,0,.85,1.25,15.22,15.22,0,0,1,1.21,1.39,1.46,1.46,0,0,1,.22,1.54,3.44,3.44,0,0,1-1.94,1.51,11.5,11.5,0,0,1-4.23.88,13.54,13.54,0,0,1-4.63-.65l-2.3,1-2.69-1.31,2.23-1a5,5,0,0,1-1.07-1,2.84,2.84,0,0,1-.53-.89,2.93,2.93,0,0,1-.14-.72,1.56,1.56,0,0,1,0-.5l.08-.19h4a3.19,3.19,0,0,0-.1.4,1.7,1.7,0,0,0,.32.91,3,3,0,0,0,1.32,1.13,5.68,5.68,0,0,0,2.32.6,4.83,4.83,0,0,0,2.14-.34q.83-.36.62-.94a3.45,3.45,0,0,0-.88-1.25,12.79,12.79,0,0,1-1.22-1.39,1.43,1.43,0,0,1-.17-1.55,3.73,3.73,0,0,1,2-1.54,11,11,0,0,1,4.06-.8,11.73,11.73,0,0,1,4.33.67l2.29-1,2.51,1.37-2.3,1A3.27,3.27,0,0,1,177.23,218.72Z" fill="#ea8b24"/><ellipse cx="166.16" cy="220.59" rx="18.37" ry="10.76" fill="none" stroke="#f7931e" stroke-miterlimit="10" stroke-width="6"/><ellipse cx="166.13" cy="214.06" rx="21.89" ry="12.82" fill="#ff912e"/><polygon points="144.24 214.06 144.24 210.36 146.62 213.32 144.24 214.06" fill="#e0944f"/><polygon points="188.01 210.36 188.01 214.06 185.24 214.06 187.27 211.09 188.01 210.36" fill="#e0944f"/><ellipse cx="166.13" cy="210.36" rx="21.89" ry="12.82" fill="#ffb92c"/><path d="M177.23,208.65a1.71,1.71,0,0,1,.17,1l-.09.34-4,0a1.82,1.82,0,0,0,.07-.34,1.49,1.49,0,0,0-.24-.73,2.19,2.19,0,0,0-1-.89,4.37,4.37,0,0,0-1.88-.49,4,4,0,0,0-1.78.27q-.84.36-.65.94a3.46,3.46,0,0,0,.85,1.25,15.22,15.22,0,0,1,1.21,1.39,1.46,1.46,0,0,1,.22,1.54,3.44,3.44,0,0,1-1.94,1.51,11.5,11.5,0,0,1-4.23.88,13.54,13.54,0,0,1-4.63-.65l-2.3,1-2.69-1.31,2.23-1a5,5,0,0,1-1.07-1,2.84,2.84,0,0,1-.53-.89,2.93,2.93,0,0,1-.14-.72,1.56,1.56,0,0,1,0-.5l.08-.19h4a3.19,3.19,0,0,0-.1.4,1.7,1.7,0,0,0,.32.91,3,3,0,0,0,1.32,1.13,5.68,5.68,0,0,0,2.32.6,4.83,4.83,0,0,0,2.14-.34q.83-.36.62-.94a3.45,3.45,0,0,0-.88-1.25,12.79,12.79,0,0,1-1.22-1.39,1.43,1.43,0,0,1-.17-1.55,3.73,3.73,0,0,1,2-1.54,11,11,0,0,1,4.06-.8,11.73,11.73,0,0,1,4.33.67l2.29-1,2.51,1.37-2.3,1A3.27,3.27,0,0,1,177.23,208.65Z" fill="#ea8b24"/><ellipse cx="166.16" cy="210.52" rx="18.37" ry="10.76" fill="none" stroke="#f7931e" stroke-miterlimit="10" stroke-width="2"/><ellipse cx="157.57" cy="203.09" rx="21.89" ry="12.82" fill="#ff912e"/><polygon points="135.68 203.09 135.68 199.39 138.06 202.35 135.68 203.09" fill="#e0944f"/><polygon points="179.46 199.39 179.46 203.09 176.68 203.09 178.72 200.12 179.46 199.39" fill="#e0944f"/><ellipse cx="157.57" cy="199.39" rx="21.89" ry="12.82" fill="#ffb92c"/><path d="M168.67,197.68a1.71,1.71,0,0,1,.17,1l-.09.34-4,0a1.82,1.82,0,0,0,.07-.34,1.49,1.49,0,0,0-.24-.73,2.19,2.19,0,0,0-1-.89,4.37,4.37,0,0,0-1.88-.49,4,4,0,0,0-1.78.27q-.84.36-.65.94a3.46,3.46,0,0,0,.85,1.25,15.22,15.22,0,0,1,1.21,1.39,1.46,1.46,0,0,1,.22,1.54,3.44,3.44,0,0,1-1.94,1.51,11.5,11.5,0,0,1-4.23.88,13.54,13.54,0,0,1-4.63-.65l-2.3,1-2.69-1.31,2.23-1a5,5,0,0,1-1.07-1,2.84,2.84,0,0,1-.53-.89,2.93,2.93,0,0,1-.14-.72,1.56,1.56,0,0,1,0-.5l.08-.19h4a3.19,3.19,0,0,0-.1.4,1.7,1.7,0,0,0,.32.91,3,3,0,0,0,1.32,1.13,5.68,5.68,0,0,0,2.32.6,4.83,4.83,0,0,0,2.14-.34q.83-.36.62-.94a3.45,3.45,0,0,0-.88-1.25,12.79,12.79,0,0,1-1.22-1.39,1.43,1.43,0,0,1-.17-1.55,3.73,3.73,0,0,1,2-1.54,11,11,0,0,1,4.06-.8,11.73,11.73,0,0,1,4.33.67l2.29-1,2.51,1.37-2.3,1A3.27,3.27,0,0,1,168.67,197.68Z" fill="#ea8b24"/><ellipse cx="157.61" cy="199.54" rx="18.37" ry="10.76" fill="none" stroke="#f7931e" stroke-miterlimit="10" stroke-width="2"/><path d="M132.09,123.16a16.78,16.78,0,0,1,.36-2" fill="none" stroke="#2e3192" stroke-linecap="round" stroke-miterlimit="10" stroke-width="2"/><path d="M134.87,112.8c5.76-16.72,21.78-47.74,59.88-47.73,40.27,0,51.71,31.61,54.79,45.38" fill="none" stroke="#2e3192" stroke-linecap="round" stroke-miterlimit="10" stroke-width="2" stroke-dasharray="3.89 8.74"/><path d="M250.35,114.75c.19,1.26.25,2,.25,2" fill="none" stroke="#2e3192" stroke-linecap="round" stroke-miterlimit="10" stroke-width="2"/><path d="M248.9,117.26V117a3.32,3.32,0,0,1,5-2.87L285,132.32a3.32,3.32,0,0,1,1.65,2.87h0a3.32,3.32,0,0,1-5,2.88l-31.12-17.93A3.32,3.32,0,0,1,248.9,117.26Z" fill="#124577"/><path d="M266.77,116.21a19.64,19.64,0,0,0-7,1.5c-3.52,1.51,6.86,4.57,6.86,4.57" fill="#f2ae16"/><path d="M267.69,129.95c3,1.69,5.89,3.67,8.87,5.43A12.21,12.21,0,0,0,278,124.64c-2-6.24-8.28-9.8-14-8a10.56,10.56,0,0,0-6.83,7.37C260.72,126,264.2,128,267.69,129.95Z" fill="#ea8b24"/><path d="M267.69,129.95c2.28,1.28,4.48,2.72,6.71,4.11a12.43,12.43,0,0,0,.36-8.78c-2-6.24-8.28-9.8-14-8a10.31,10.31,0,0,0-6.07,5.37C259.08,125,263.37,127.52,267.69,129.95Z" fill="#ffd008"/><path d="M268,129.59c1.87,1,3.68,2.21,5.51,3.36a10.9,10.9,0,0,0,.28-7.61c-1.77-5.47-7.25-8.59-12.24-7a9,9,0,0,0-5.28,4.64C260.23,125.16,264.12,127.39,268,129.59Z" fill="none" stroke="#f7931e" stroke-miterlimit="10"/><path d="M267.69,129.95l.59.34a2.7,2.7,0,0,0-.51-1.64,3.12,3.12,0,0,0-1.33-1q-.79-.32-1.57-.56a5.66,5.66,0,0,1-1.32-.58,1,1,0,0,1-.53-.89,1,1,0,0,1,.42-.82,1.61,1.61,0,0,1,1.08-.32,2.41,2.41,0,0,1,1.07.28,3.12,3.12,0,0,1,.68.43l.25.27,1.42-1.45-.25-.27a3.73,3.73,0,0,0-.85-.62,4.76,4.76,0,0,0-1.36-.52l0-1.51-2,0,0,1.49a3.54,3.54,0,0,0-2.12,1.07,2.9,2.9,0,0,0-.82,2,3.66,3.66,0,0,0,0,.37Z" fill="#ea8b24"/><path d="M197,45.55a34,34,0,0,0-12,2.87C179,51.17,197,56,197,56" fill="#f2ae16"/><ellipse cx="199.03" cy="65.86" rx="18.74" ry="20.53" transform="translate(-10.59 69.22) rotate(-19.23)" fill="#ea8b24"/><ellipse cx="193.43" cy="67.1" rx="18.74" ry="20.53" transform="translate(-11.31 67.45) rotate(-19.23)" fill="#ffd008"/><ellipse cx="193.43" cy="67.1" rx="16.43" ry="17.99" transform="translate(-11.31 67.45) rotate(-19.23)" fill="none" stroke="#f7931e" stroke-miterlimit="10"/><path d="M197.36,57.43a6.45,6.45,0,0,1,1.5,1l.43.46-2.41,2.56q-.16-.18-.44-.45a5.39,5.39,0,0,0-1.19-.71,4.17,4.17,0,0,0-1.86-.44,2.79,2.79,0,0,0-1.85.6,1.81,1.81,0,0,0-.7,1.43,1.71,1.71,0,0,0,1,1.51,9.78,9.78,0,0,0,2.31,1q1.36.39,2.73.91A5.4,5.4,0,0,1,199.17,67a4.76,4.76,0,0,1,1,3.05,5.45,5.45,0,0,1-1.33,3.7,6.43,6.43,0,0,1-3.75,2v2.61h-3.5V75.91a9.67,9.67,0,0,1-2-.52,8.92,8.92,0,0,1-1.6-.76,11.94,11.94,0,0,1-1.12-.79,6.28,6.28,0,0,1-.7-.63l-.22-.27,2.42-2.42q.18.21.52.54a6.32,6.32,0,0,0,1.49.89,5.43,5.43,0,0,0,2.42.56,3.46,3.46,0,0,0,2.27-.69,2.16,2.16,0,0,0,.81-1.73,1.73,1.73,0,0,0-1-1.52,9.39,9.39,0,0,0-2.32-1q-1.37-.38-2.73-.9A5.41,5.41,0,0,1,187.51,65a4.76,4.76,0,0,1-1-3.05,5,5,0,0,1,1.33-3.44,6.12,6.12,0,0,1,3.62-1.93V54H195v2.61A8.22,8.22,0,0,1,197.36,57.43Z" fill="#ea8b24"/><path d="M153.41,111.17v-.24a3.32,3.32,0,0,0-5-2.87L117.3,126.23a3.32,3.32,0,0,0-1.65,2.87h0a3.32,3.32,0,0,0,5,2.88L151.75,114A3.32,3.32,0,0,0,153.41,111.17Z" fill="#124577"/><path d="M135.54,110.11a19.64,19.64,0,0,1,7,1.5c3.52,1.51-6.86,4.57-6.86,4.57" fill="#f2ae16"/><path d="M134.62,123.85c-3,1.69-5.89,3.67-8.87,5.43a12.21,12.21,0,0,1-1.45-10.74c2-6.24,8.28-9.8,14-8A10.56,10.56,0,0,1,145.1,118C141.59,119.89,138.12,121.89,134.62,123.85Z" fill="#ea8b24"/><path d="M134.62,123.85c-2.28,1.28-4.48,2.72-6.71,4.11a12.43,12.43,0,0,1-.36-8.78c2-6.24,8.28-9.8,14-8a10.31,10.31,0,0,1,6.07,5.37C143.23,119,138.94,121.43,134.62,123.85Z" fill="#ffd008"/><path d="M134.28,123.49c-1.87,1-3.68,2.21-5.51,3.36a10.9,10.9,0,0,1-.28-7.61c1.77-5.47,7.25-8.59,12.24-7a9,9,0,0,1,5.28,4.64C142.08,119.06,138.19,121.3,134.28,123.49Z" fill="none" stroke="#f7931e" stroke-miterlimit="10"/><path d="M134.62,123.85l-.59.34a2.7,2.7,0,0,1,.51-1.64,3.12,3.12,0,0,1,1.33-1q.79-.32,1.57-.56a5.66,5.66,0,0,0,1.32-.58,1,1,0,0,0,.53-.89,1,1,0,0,0-.42-.82,1.61,1.61,0,0,0-1.08-.32,2.41,2.41,0,0,0-1.07.28,3.12,3.12,0,0,0-.68.43l-.25.27-1.42-1.45.25-.27a3.73,3.73,0,0,1,.85-.62,4.76,4.76,0,0,1,1.36-.52l0-1.51,2,0,0,1.49a3.54,3.54,0,0,1,2.12,1.07,2.9,2.9,0,0,1,.82,2,3.66,3.66,0,0,1,0,.37Z" fill="#ea8b24"/><polyline points="185.26 176.44 158.29 193.6 195.46 215.19 226.63 194.47" fill="url(#linear-gradient-2)" style="mix-blend-mode:multiply"/><path d="M188.75,162.66s-4.14-3-5.69-2.57-2.15,17.72-1.08,18.77,4.7,5,6.77,4.16,3.27-4.16,3.27-4.16" fill="#ef9841"/><path d="M226.78,152.08l-24.65,1.51,4.65,17.33-15.89-12c-3.09,3.3-2.58,6.82-2.74,11.16a25.51,25.51,0,0,0,.83,8.41c.09.29.19.58.29.87,1.48,1.36,3.21,2.56,4.39,3.49,2.86,2.26,5.62,4.61,8.43,6.93,4,3.26,7.74,6.39,12.75,7.89s13.81-2.25,14.83-8.11C231.5,179.08,228.25,162.54,226.78,152.08Z" fill="#fff7e1"/><path d="M204.58,110.21c-.94-1.65-3.89-3.82-5.6-1.92a2,2,0,0,0,.29,2.81c.89.84,2.33,1.07,3.45,1.41a.91.91,0,0,0,1.17-.89A1,1,0,0,0,204.58,110.21Z" fill="#fbb5ad"/><path d="M225.62,141.53l-25.27-6.22s.79,11,1.77,18.28c4.52,2,10,2,14.83,1.29a31.66,31.66,0,0,0,9.83-2.8,22.15,22.15,0,0,0,2.89-1.79C229.27,147.64,225.93,144.2,225.62,141.53Z" fill="#f47a63"/><path d="M231.41,146.85c0,2-.53,6.87-.64,8.85-10.64-2.84-33.7-10.54-35.24-26.4a14.43,14.43,0,0,1,.75-6.38c1.34-2.16,3.53-3.92,5.31-5.58,2.71-2.53,6.08-5.07,9.82-5.74,4.6-.82,8.23,2.16,11.53,5.28,1.24,2.87-2.34,5.69-1.87,8.62l6.43,19.32,3.92,2" fill="#f47a63"/><path d="M211.51,104.84s2.8,13-1.49,14.62-8.64-1.34-9.39-3.79a18.45,18.45,0,0,1-.3-6.19S203.52,104.89,211.51,104.84Z" fill="#fbb5ad"/><path d="M212,102.53c.14-3.15-4.27-5.15-6.3-2.48A4.57,4.57,0,0,0,201.94,99c-1.87.32-2.52,1.64-2.36,3.4a3.42,3.42,0,0,0-2.78,1.36,3.07,3.07,0,0,0,0,3.53,3.14,3.14,0,0,0-1.93,3.41,3.82,3.82,0,0,0,.67,1.83,2.93,2.93,0,0,0-.18.62,3,3,0,0,0,1.4,3,3.47,3.47,0,0,0,2,.59,2.67,2.67,0,0,0,2.46,1.44,2.58,2.58,0,0,0,2.47-2.38,2.51,2.51,0,0,0-.14-1,6.08,6.08,0,0,0,.31-4.16,2.23,2.23,0,0,0,.54-.26,2.54,2.54,0,0,0,1-1.5,3.59,3.59,0,0,0,1.85.16,1.71,1.71,0,0,0,1.27-1.14,4.2,4.2,0,0,0,4.45-1.56A3,3,0,0,0,212,102.53Z" fill="#d86212"/><path d="M204.63,113.75a3.1,3.1,0,0,0-1.35-2,1.63,1.63,0,0,0-2.33.22,1.87,1.87,0,0,0,.11,2.17c.57.75,1.51.75,2.32,1.09.48.2.78-.29.67-.7A.63.63,0,0,0,204.63,113.75Z" fill="#fbb5ad"/><path d="M210.62,110.5c-.06-.3-.52-.17-.46.13l.4,2a5.48,5.48,0,0,1,.18.94c0,.56-.28.67-.7.92a.24.24,0,0,0,.24.41c.55-.33,1-.5,1-1.19A26.61,26.61,0,0,0,210.62,110.5Z" fill="#56403d"/><path d="M211.73,109.94a.24.24,0,0,0,0,.48A.24.24,0,0,0,211.73,109.94Z" fill="#56403d"/><path d="M207.12,111.5a.24.24,0,0,0,0,.48A.24.24,0,0,0,207.12,111.5Z" fill="#56403d"/><path d="M209.56,115.85a1.64,1.64,0,0,1-2.06-.67.24.24,0,0,0-.41.24,2.13,2.13,0,0,0,2.71.85C210.08,116.14,209.84,115.73,209.56,115.85Z" fill="#56403d"/><path d="M238.91,144a2.94,2.94,0,0,0-2.67,1.72c-.38.66-.64,1.37-1.07,2-.71,1-1.28.62-2.3.14s-2.08,1.13-1,1.65a6.64,6.64,0,0,0,2.85,1,2.35,2.35,0,0,0,1.52-1.09.88.88,0,0,0,1.52.36c.84-1,2.05-2.18,2.39-3.48A1.69,1.69,0,0,0,238.91,144Z" fill="#fbb5ad"/><path d="M244.68,151.69q-6.61-2.23-13.24-4.41c-.27,2.24-.41,4.49-.59,6.73a32.36,32.36,0,0,0,6.51,6,1.07,1.07,0,0,0,1.59-.91,3.49,3.49,0,0,0-.35-1.2,14.44,14.44,0,0,0,2.88,1.48,1.07,1.07,0,0,0,1-1.77l-.88-.72a8.9,8.9,0,0,0,2.25.1c1.12-.1,1.53-1.8.28-2.08-.5-.11-1-.26-1.47-.41a5.13,5.13,0,0,0,2.45-1C245.81,152.93,245.36,151.92,244.68,151.69Z" fill="#fbb5ad"/><path d="M239.92,116.22a6,6,0,0,0-3.47,8.12.76.76,0,0,0,.8.49,5.75,5.75,0,0,1,2.12-4.21l.06,0c.94-.79,2.14-1.51,2.49-2.46C242.44,116.68,241.29,115.75,239.92,116.22Z" fill="#fbb5ad"/><path d="M228.75,158.84c-.14-.75-1.28-.43-1.14.32a156.08,156.08,0,0,1,2.27,16.93c.06.76,1.25.76,1.19,0A159,159,0,0,0,228.75,158.84Z" fill="#18696d"/><path d="M211.62,187.53a126.3,126.3,0,0,1-4.17-15.77c-.15-.75-1.29-.43-1.14.32a126.3,126.3,0,0,0,4.17,15.77C210.72,188.56,211.87,188.25,211.62,187.53Z" fill="#18696d"/><path d="M222.56,153.46a49.88,49.88,0,0,1-22.21-13.79c-.39-.42-1,.21-.63.63a50.78,50.78,0,0,0,22.6,14A.44.44,0,0,0,222.56,153.46Z" fill="#af3e2f"/><path d="M231.9,146.33A75.85,75.85,0,0,1,215.32,137c-.46-.34-.9.43-.45.77a76.71,76.71,0,0,0,16.79,9.37C232.2,147.4,232.43,146.54,231.9,146.33Z" fill="#af3e2f"/><path d="M226.36,138.45,222.25,126c-.18-.54-1-.31-.86.24l4.11,12.48C225.69,139.23,226.54,139,226.36,138.45Z" fill="#af3e2f"/><path d="M283.39,76.91c1.4,11.15-3.75,20.87-11.5,21.71s-15.16-7.53-16.56-18.68,3.75-20.87,11.5-21.71S282,65.76,283.39,76.91Z" fill="#124577"/><polygon points="259.63 79.67 261.91 76.08 265.99 82.31 275.06 68.3 278.65 71.24 266.34 89.91 259.63 79.67" fill="#fff"/></g></g></svg>