<svg width="49" height="49" viewBox="0 0 49 49" fill="none" xmlns="http://www.w3.org/2000/svg"><rect width="49" height="49" rx="15" fill="#DA2CB4"/>
<g clip-path="url(#clip0_1709_72)">
<path d="M27 10L22.1146 13.4804L24.0943 14.7715L22 18L26.8854 14.5691L24.9083 13.2825L27 10Z" fill="white"/>
</g>
<g clip-path="url(#clip1_1709_72)">
<path d="M36 27.3203L36 19.9999L13 19.9999L13 27.3203L36 27.3203ZM19.4484 23.0125L33.6258 23.0125L33.6258 24.3062L19.4484 24.3062L19.4484 23.0125ZM16.6065 22.7538C16.7855 22.7535 16.9607 22.8064 17.1098 22.906C17.2588 23.0056 17.3751 23.1472 17.4437 23.313C17.5124 23.4789 17.5305 23.6614 17.4956 23.8375C17.4607 24.0136 17.3745 24.1754 17.2479 24.3024C17.1212 24.4294 16.9599 24.5158 16.7842 24.5508C16.6085 24.5857 16.4265 24.5676 16.2611 24.4987C16.0957 24.4299 15.9544 24.3133 15.8551 24.1639C15.7557 24.0145 15.7029 23.8389 15.7033 23.6593C15.7033 23.4192 15.7984 23.1888 15.9678 23.019C16.1372 22.8492 16.3669 22.7538 16.6065 22.7538Z" fill="white"/>
<path d="M36 37.0001L36 29.6781L13 29.6781L13 37.0001L36 37.0001ZM19.4484 32.6988L33.6258 32.6988L33.6258 33.9924L19.4484 33.9924L19.4484 32.6988ZM16.6065 32.44C16.7851 32.44 16.9597 32.4931 17.1083 32.5926C17.2568 32.6921 17.3726 32.8336 17.4409 32.999C17.5093 33.1645 17.5272 33.3466 17.4923 33.5222C17.4575 33.6979 17.3715 33.8592 17.2452 33.9859C17.1188 34.1125 16.9579 34.1988 16.7827 34.2337C16.6075 34.2687 16.4258 34.2508 16.2608 34.1822C16.0958 34.1137 15.9547 33.9976 15.8554 33.8487C15.7562 33.6997 15.7033 33.5247 15.7033 33.3456C15.7022 33.2261 15.7247 33.1075 15.7697 32.9968C15.8146 32.8861 15.881 32.7854 15.965 32.7006C16.049 32.6158 16.149 32.5485 16.2591 32.5027C16.3692 32.4568 16.4872 32.4334 16.6065 32.4336L16.6065 32.44Z" fill="white"/>
</g>
<defs>
<clipPath id="clip0_1709_72">
<rect width="5" height="8" fill="white" transform="translate(22 10)"/>
</clipPath>
<clipPath id="clip1_1709_72">
<rect width="23" height="17" fill="white" transform="translate(36 37) rotate(-180)"/>
</clipPath>
</defs>
</svg>
<svg width="49" height="49" viewBox="0 0 49 49" fill="none" xmlns="http://www.w3.org/2000/svg"><rect width="49" height="49" rx="15" fill="#DA2CB4"/><g clip-path="url(#clip0_1709_72)"><path d="M27 10L22.1146 13.4804L24.0943 14.7715L22 18L26.8854 14.5691L24.9083 13.2825L27 10Z" fill="white"/></g><g clip-path="url(#clip1_1709_72)"><path d="M36 27.3203L36 19.9999L13 19.9999L13 27.3203L36 27.3203ZM19.4484 23.0125L33.6258 23.0125L33.6258 24.3062L19.4484 24.3062L19.4484 23.0125ZM16.6065 22.7538C16.7855 22.7535 16.9607 22.8064 17.1098 22.906C17.2588 23.0056 17.3751 23.1472 17.4437 23.313C17.5124 23.4789 17.5305 23.6614 17.4956 23.8375C17.4607 24.0136 17.3745 24.1754 17.2479 24.3024C17.1212 24.4294 16.9599 24.5158 16.7842 24.5508C16.6085 24.5857 16.4265 24.5676 16.2611 24.4987C16.0957 24.4299 15.9544 24.3133 15.8551 24.1639C15.7557 24.0145 15.7029 23.8389 15.7033 23.6593C15.7033 23.4192 15.7984 23.1888 15.9678 23.019C16.1372 22.8492 16.3669 22.7538 16.6065 22.7538Z" fill="white"/><path d="M36 37.0001L36 29.6781L13 29.6781L13 37.0001L36 37.0001ZM19.4484 32.6988L33.6258 32.6988L33.6258 33.9924L19.4484 33.9924L19.4484 32.6988ZM16.6065 32.44C16.7851 32.44 16.9597 32.4931 17.1083 32.5926C17.2568 32.6921 17.3726 32.8336 17.4409 32.999C17.5093 33.1645 17.5272 33.3466 17.4923 33.5222C17.4575 33.6979 17.3715 33.8592 17.2452 33.9859C17.1188 34.1125 16.9579 34.1988 16.7827 34.2337C16.6075 34.2687 16.4258 34.2508 16.2608 34.1822C16.0958 34.1137 15.9547 33.9976 15.8554 33.8487C15.7562 33.6997 15.7033 33.5247 15.7033 33.3456C15.7022 33.2261 15.7247 33.1075 15.7697 32.9968C15.8146 32.8861 15.881 32.7854 15.965 32.7006C16.049 32.6158 16.149 32.5485 16.2591 32.5027C16.3692 32.4568 16.4872 32.4334 16.6065 32.4336L16.6065 32.44Z" fill="white"/></g><defs><clipPath id="clip0_1709_72"><rect width="5" height="8" fill="white" transform="translate(22 10)"/></clipPath><clipPath id="clip1_1709_72"><rect width="23" height="17" fill="white" transform="translate(36 37) rotate(-180)"/></clipPath></defs></svg>