<svg width="11" height="11" viewBox="0 0 11 11" fill="none" xmlns="http://www.w3.org/2000/svg">
<path d="M1.62735 4.62744H9.87846V4.75608C9.87846 6.39879 9.87659 8.0415 9.87287 9.68421C9.87287 10.178 9.54768 10.5 9.05151 10.5H2.44392C1.94375 10.5 1.62176 10.1804 1.62256 9.67303C1.62256 8.03458 1.62416 6.39559 1.62735 4.75608V4.62744ZM5.77648 5.9969C5.58055 5.89186 5.37859 5.79848 5.17165 5.71726C4.53246 5.50872 3.82616 5.88185 3.65358 6.50425C3.52175 6.98364 3.62641 7.42309 3.8725 7.83536C4.29197 8.53847 4.91757 9.02345 5.61029 9.42774C5.65418 9.44828 5.70205 9.45893 5.75051 9.45893C5.79897 9.45893 5.84684 9.44828 5.89073 9.42774C6.50835 9.07139 7.06284 8.63754 7.48151 8.05109C7.76754 7.65159 7.92814 7.21296 7.881 6.7064C7.82507 6.06242 7.13475 5.55187 6.51234 5.66772C6.24664 5.72405 5.99586 5.83597 5.77648 5.9961V5.9969Z" fill="#ECECED"/>
<path d="M10.1254 2.29043H8.90372C8.90372 2.29043 9.17697 2.27046 9.30321 1.81663C9.30812 1.79021 9.31159 1.76354 9.3136 1.73673C9.34635 1.25734 8.94766 0.730814 8.45469 0.573415C7.93934 0.408824 7.46954 0.541455 7.02531 0.81311C6.55311 1.09915 6.18717 1.49944 5.8524 1.93169C5.82683 1.96524 5.79967 1.9964 5.76771 2.03555L5.67982 1.91091C5.39733 1.52734 5.05814 1.18896 4.6739 0.907389C4.25523 0.616559 3.8038 0.436788 3.27967 0.520681C2.69641 0.613363 2.19146 1.17984 2.22741 1.73594C2.23117 1.78991 2.24 1.84341 2.25378 1.89573C2.37203 2.20813 2.53262 2.28644 2.53262 2.28644H1.81353H1.37889C1.12321 2.28644 0.969011 2.43904 0.964217 2.69472C0.959423 2.95039 0.958622 3.1821 0.96022 3.42659C0.96022 3.69744 1.11443 3.85005 1.38368 3.85005H10.1238C10.3946 3.85005 10.5488 3.69984 10.5536 3.43058C10.5536 3.19088 10.5584 2.95119 10.5536 2.71149C10.5536 2.43584 10.409 2.29203 10.1254 2.29043ZM3.69914 2.27845C3.567 2.26165 3.44131 2.21156 3.33384 2.13288C3.22636 2.0542 3.14064 1.9495 3.08472 1.82862C2.98964 1.63446 3.12467 1.35802 3.3332 1.2949C3.49929 1.24281 3.67886 1.25478 3.83656 1.32845C3.99981 1.40224 4.15599 1.49076 4.30317 1.59292C4.56589 1.79172 4.79959 2.02622 4.99749 2.28963C4.54286 2.28963 4.11701 2.32079 3.69914 2.27845ZM8.4443 1.85898C8.25414 2.10427 8.02564 2.29363 7.68847 2.29123C7.48472 2.29123 7.28018 2.29123 7.07644 2.29123H6.53713L6.70252 2.11066C7.0309 1.74472 7.37127 1.39157 7.88901 1.27972C8.09755 1.23417 8.29569 1.27252 8.42912 1.46907C8.521 1.59771 8.53938 1.73514 8.4443 1.85898Z" fill="#ECECED"/>
</svg>
