<svg width="49" height="49" viewBox="0 0 49 49" fill="none" xmlns="http://www.w3.org/2000/svg">
<rect width="49" height="49" rx="15" fill="#7F54B3"/>
<path d="M16.4048 24.8452V23.5028C17.0298 23.5028 17.4631 23.3821 17.7045 23.1406C17.946 22.8956 18.0668 22.5121 18.0668 21.9901V21.1591C18.0668 20.392 18.1857 19.799 18.4237 19.38C18.6651 18.9574 18.9883 18.6555 19.3931 18.4744C19.8015 18.2933 20.2631 18.185 20.7781 18.1495C21.293 18.1104 21.8239 18.0909 22.3707 18.0909V20.2216C21.9446 20.2216 21.6286 20.2695 21.4226 20.3654C21.2166 20.4613 21.0817 20.6069 21.0178 20.8022C20.9538 20.9975 20.9219 21.2443 20.9219 21.5426V22.7145C20.9219 22.9808 20.8615 23.2418 20.7408 23.4975C20.6236 23.7496 20.4052 23.9769 20.0856 24.1793C19.766 24.3817 19.3097 24.5433 18.7166 24.6641C18.1236 24.7848 17.353 24.8452 16.4048 24.8452ZM22.3707 31.4716C21.8239 31.4716 21.293 31.4521 20.7781 31.413C20.2631 31.3775 19.8015 31.2692 19.3931 31.0881C18.9883 30.907 18.6651 30.6051 18.4237 30.1825C18.1857 29.7635 18.0668 29.1705 18.0668 28.4034V27.5724C18.0668 27.0504 17.946 26.6687 17.7045 26.4272C17.4631 26.1822 17.0298 26.0597 16.4048 26.0597V24.7173C17.353 24.7173 18.1236 24.7777 18.7166 24.8984C19.3097 25.0192 19.766 25.1808 20.0856 25.3832C20.4052 25.5856 20.6236 25.8146 20.7408 26.0703C20.8615 26.3224 20.9219 26.5817 20.9219 26.848V28.0199C20.9219 28.3146 20.9538 28.5614 21.0178 28.7603C21.0817 28.9556 21.2166 29.1012 21.4226 29.1971C21.6286 29.293 21.9446 29.3409 22.3707 29.3409V31.4716ZM16.4048 26.0597V23.5028H18.7486V26.0597H16.4048ZM31.795 24.7173V26.0597C31.1736 26.0597 30.7403 26.1822 30.4953 26.4272C30.2538 26.6687 30.1331 27.0504 30.1331 27.5724V28.4034C30.1331 29.1705 30.0123 29.7635 29.7709 30.1825C29.5329 30.6051 29.2098 30.907 28.8014 31.0881C28.3966 31.2692 27.9367 31.3775 27.4218 31.413C26.9104 31.4521 26.3795 31.4716 25.8291 31.4716V29.3409C26.2552 29.3409 26.5713 29.293 26.7773 29.1971C26.9832 29.1012 27.1182 28.9556 27.1821 28.7603C27.246 28.5614 27.278 28.3146 27.278 28.0199V26.848C27.278 26.5817 27.3366 26.3224 27.4537 26.0703C27.5745 25.8146 27.7947 25.5856 28.1143 25.3832C28.4339 25.1808 28.8902 25.0192 29.4832 24.8984C30.0763 24.7777 30.8469 24.7173 31.795 24.7173ZM25.8291 18.0909C26.3795 18.0909 26.9104 18.1104 27.4218 18.1495C27.9367 18.185 28.3966 18.2933 28.8014 18.4744C29.2098 18.6555 29.5329 18.9574 29.7709 19.38C30.0123 19.799 30.1331 20.392 30.1331 21.1591V21.9901C30.1331 22.5121 30.2538 22.8956 30.4953 23.1406C30.7403 23.3821 31.1736 23.5028 31.795 23.5028V24.8452C30.8469 24.8452 30.0763 24.7848 29.4832 24.6641C28.8902 24.5433 28.4339 24.3817 28.1143 24.1793C27.7947 23.9769 27.5745 23.7496 27.4537 23.4975C27.3366 23.2418 27.278 22.9808 27.278 22.7145V21.5426C27.278 21.2443 27.246 20.9975 27.1821 20.8022C27.1182 20.6069 26.9832 20.4613 26.7773 20.3654C26.5713 20.2695 26.2552 20.2216 25.8291 20.2216V18.0909ZM31.795 23.5028V26.0597H29.4513V23.5028H31.795Z" fill="white"/>
</svg>
