<?xml version="1.0" encoding="UTF-8"?> <svg xmlns="http://www.w3.org/2000/svg" width="157" height="31" viewBox="0 0 157 31" fill="none"><path fill-rule="evenodd" clip-rule="evenodd" d="M14.9639 29.5395C22.816 29.0998 28.8734 22.5043 28.4247 14.8096C28.3499 13.5638 28.1256 12.3913 27.7516 11.2188L27.5273 11.3653C27.9012 12.5378 28.1256 13.7837 28.1256 15.0295C28.1256 21.7715 22.5169 27.1945 15.6369 27.1945C15.4126 27.1945 15.1882 27.1945 14.9639 27.1945V29.5395Z" fill="#B59CD3"></path><path fill-rule="evenodd" clip-rule="evenodd" d="M2.47461 23.4569C5.01721 27.1211 9.20502 29.3928 13.692 29.5394V27.0478C10.1772 26.4615 7.18589 24.9226 5.24155 21.918L2.47461 23.4569Z" fill="#A080C6"></path><path fill-rule="evenodd" clip-rule="evenodd" d="M1.20316 9.31348C-0.591611 13.5639 -0.367264 18.3273 1.80142 22.3579L4.64315 20.7456C3.22229 17.741 3.29707 14.2967 4.8675 11.3654L1.20316 9.31348Z" fill="#9572C0"></path><path fill-rule="evenodd" clip-rule="evenodd" d="M13.6917 0.15332C8.60653 0.739585 4.1196 3.74419 1.72656 8.14117L5.46568 10.2664C7.33524 7.55491 10.3265 5.8694 13.6169 5.64955V0.15332H13.6917Z" fill="#8B64B9"></path><path fill-rule="evenodd" clip-rule="evenodd" d="M27.8259 6.0159C24.7598 2.13189 19.9737 -0.139881 15.0381 0.0066847V5.5762C17.7302 5.72276 20.1981 6.74873 22.1424 8.5808L27.8259 6.0159Z" fill="#7F54B3"></path><path fill-rule="evenodd" clip-rule="evenodd" d="M14.3654 13.418C15.7863 13.418 16.9828 14.5172 16.9828 15.9829C16.9828 17.3753 15.8611 18.5478 14.3654 18.5478C12.9446 18.5478 11.748 17.4485 11.748 15.9829C11.748 14.5905 12.9446 13.418 14.3654 13.418Z" fill="#565A63"></path><path fill-rule="evenodd" clip-rule="evenodd" d="M30.8168 6.74902L23.0395 11.9521L15.2621 17.0819L14.5891 15.9094L13.916 14.7369L22.3664 10.7796L30.8168 6.74902Z" fill="#565A63"></path><path fill-rule="evenodd" clip-rule="evenodd" d="M33.4344 5.35661L31.2657 7.5551H31.1909L31.1161 7.48182C31.0414 7.18868 30.9666 6.89555 30.817 6.6757C30.6674 6.45585 30.5179 6.236 30.2935 6.01616C30.2188 6.01616 30.2188 5.94287 30.2188 5.86959C30.2188 5.86959 30.2188 5.86959 30.2935 5.79631L33.3596 5.06348C33.4344 5.06348 33.4344 5.06348 33.4344 5.13676C33.5092 5.28333 33.5092 5.35661 33.4344 5.35661Z" fill="#7F54B3"></path><path d="M34.2859 25.8555V11.2707L38.9947 11.2499C42.2658 11.2291 44.266 12.8334 44.266 15.6878C44.266 18.0005 42.9742 19.4174 40.7657 19.8966L44.8494 25.8555H41.4116L38.3071 21.23C38.0988 20.9175 37.9321 20.605 37.7446 20.1674H37.2029V25.8555H34.2859ZM37.2029 17.5422H38.828C40.4115 17.5422 41.3074 16.8963 41.3074 15.7087C41.3074 14.5419 40.4115 13.896 38.828 13.896H37.2029V17.5422ZM49.9622 26.1263C46.9828 26.1263 44.6075 23.6053 44.6075 20.48C44.6075 17.3547 46.9828 14.7919 49.9622 14.7919C51.8374 14.7919 52.8167 15.5628 53.4 16.7296V15.0211H56.192V25.8555H53.4625V24.0845C52.8792 25.3138 51.8999 26.1263 49.9622 26.1263ZM47.4203 20.4591C47.4203 22.1051 48.6288 23.5844 50.4206 23.5844C52.2749 23.5844 53.4625 22.1676 53.4625 20.48C53.4625 18.7923 52.2749 17.3338 50.4206 17.3338C48.6288 17.3338 47.4203 18.7715 47.4203 20.4591ZM57.8632 30.0225V15.0211H60.6343V16.7713C61.2177 15.5837 62.1969 14.7919 64.093 14.7919C67.0724 14.7919 69.4476 17.3547 69.4476 20.48C69.4476 23.6053 67.0724 26.1263 64.093 26.1263C62.2386 26.1263 61.2594 25.3763 60.676 24.2511V30.0225H57.8632ZM60.5926 20.48C60.5926 22.1676 61.7802 23.5844 63.6346 23.5844C65.4264 23.5844 66.6349 22.1051 66.6349 20.4591C66.6349 18.7715 65.4264 17.3338 63.6346 17.3338C61.7802 17.3338 60.5926 18.7923 60.5926 20.48ZM70.7022 25.8555V15.0211H73.5149V25.8555H70.7022ZM70.4105 12.4584C70.4105 11.5624 71.1397 10.8124 72.0981 10.8124C73.0774 10.8124 73.7858 11.5624 73.7858 12.4584C73.7858 13.3959 73.0774 14.1252 72.0981 14.1252C71.1397 14.1252 70.4105 13.3751 70.4105 12.4584ZM80.1165 26.1263C77.137 26.1263 74.7618 23.6053 74.7618 20.48C74.7618 17.3547 77.137 14.7919 80.1165 14.7919C81.9708 14.7919 82.9501 15.542 83.5335 16.6879V10.6457H86.3462V25.8555H83.6168V24.0845C83.0334 25.3138 82.0542 26.1263 80.1165 26.1263ZM77.5746 20.4591C77.5746 22.1051 78.783 23.5844 80.5748 23.5844C82.4292 23.5844 83.6168 22.1676 83.6168 20.48C83.6168 18.7923 82.4292 17.3338 80.5748 17.3338C78.783 17.3338 77.5746 18.7715 77.5746 20.4591Z" fill="#7F54B3"></path><path d="M88.2258 25.8555V11.2707H91.1428V23.2302H96.5808V25.8555H88.2258ZM102.65 26.1263C99.2959 26.1263 96.879 23.5844 96.879 20.4591C96.879 17.3338 99.2959 14.7711 102.65 14.7711C106.005 14.7711 108.422 17.3338 108.422 20.4591C108.422 23.5844 106.005 26.1263 102.65 26.1263ZM99.6917 20.4591C99.6917 22.1468 100.859 23.5636 102.65 23.5636C104.442 23.5636 105.609 22.1468 105.609 20.4591C105.609 18.7715 104.442 17.3338 102.65 17.3338C100.859 17.3338 99.6917 18.7715 99.6917 20.4591ZM114.503 26.1263C111.523 26.1263 109.148 23.6053 109.148 20.48C109.148 17.3547 111.523 14.7919 114.503 14.7919C116.378 14.7919 117.357 15.5628 117.941 16.7296V15.0211H120.733V25.8555H118.003V24.0845C117.42 25.3138 116.441 26.1263 114.503 26.1263ZM111.961 20.4591C111.961 22.1051 113.169 23.5844 114.961 23.5844C116.816 23.5844 118.003 22.1676 118.003 20.48C118.003 18.7923 116.816 17.3338 114.961 17.3338C113.169 17.3338 111.961 18.7715 111.961 20.4591ZM127.342 26.1263C124.362 26.1263 121.987 23.6053 121.987 20.48C121.987 17.3547 124.362 14.7919 127.342 14.7919C129.196 14.7919 130.175 15.542 130.759 16.6879V10.6457H133.572V25.8555H130.842V24.0845C130.259 25.3138 129.28 26.1263 127.342 26.1263ZM124.8 20.4591C124.8 22.1051 126.008 23.5844 127.8 23.5844C129.655 23.5844 130.842 22.1676 130.842 20.48C130.842 18.7923 129.655 17.3338 127.8 17.3338C126.008 17.3338 124.8 18.7715 124.8 20.4591Z" fill="#565A63"></path><rect x="136.369" y="12.2119" width="20.3536" height="12.8906" rx="1.58758" fill="#7F54B3"></rect><path d="M142.65 21.6045L144.573 15.3128H146.347L148.269 21.6045H147.046L145.333 16.0556H145.56L143.874 21.6045H142.65ZM143.804 20.2937V19.1839H147.124V20.2937H143.804ZM149.14 21.6045V15.3128H150.328V21.6045H149.14Z" fill="white"></path></svg> 