<svg width="10" height="12" viewBox="0 0 10 12" fill="none" xmlns="http://www.w3.org/2000/svg">
<path d="M7.33922 9.53101H2.7373V11.174H7.33922V9.53101Z" fill="white"/>
<path d="M5.03476 2.5883e-06C4.10821 -0.000674638 3.2066 0.300187 2.46613 0.857142C1.72567 1.4141 1.18655 2.19689 0.930235 3.08728C0.673915 3.97767 0.714311 4.92729 1.04532 5.7927C1.37633 6.6581 1.97997 7.39229 2.76507 7.88435H7.29313C8.07855 7.39249 8.68251 6.65832 9.01374 5.79282C9.34497 4.92731 9.38547 3.97751 9.1291 3.08695C8.87273 2.1964 8.33344 1.4135 7.59273 0.856575C6.85202 0.299654 5.95015 -0.00101774 5.02343 2.5883e-06H5.03476Z" fill="white"/>
</svg>
