<svg id="Layer_1" data-name="Layer 1" xmlns="http://www.w3.org/2000/svg" viewBox="0 0 201.44 43.07">
    <defs>
        <style>
            .cls-1{fill:#642282;}.cls-1,.cls-2,.cls-3,.cls-4,.cls-5,.cls-6{fill-rule:evenodd;}.cls-2{fill:#51555f;}.cls-3{fill:#9c6cac;}.cls-4{fill:#874f9b;}.cls-5{fill:#703089;}.cls-6{fill:#5b2282;}
        </style>
    </defs>
    <title>logo</title>
    <path class="cls-1"
          d="M52.16,26.47V15.74H48.63V26.47c0,4.84,3.16,7.84,8.18,7.84s8.08-3,8.08-7.84V15.74H61.36V26.47c0,3-1.76,4.69-4.55,4.69a4.36,4.36,0,0,1-4.65-4.69ZM77.39,20a5.39,5.39,0,0,0-5.06,2.76V20.08H68.91V34.16h3.42V27.24c0-2.32,1.37-4,3.69-4a2.92,2.92,0,0,1,3.13,3.18v7.79h3.44V25.37c0-3.34-2-5.42-5.2-5.42ZM96,20.08v7c0,2.26-1.31,4-3.52,4a2.84,2.84,0,0,1-3-3.15V20.08H86v8.81c0,3.32,1.94,5.4,5.1,5.4A5.07,5.07,0,0,0,96,31.55v2.61h3.45V20.08Zm16,3.82,1.24-2.48a9.57,9.57,0,0,0-5.16-1.5c-2.84,0-5.31,1.35-5.31,4.24,0,5,7.31,3.58,7.31,6.18,0,.92-.9,1.32-2.08,1.32a7.82,7.82,0,0,1-4.76-1.74l-1.18,2.39a9,9,0,0,0,5.81,2c3,0,5.55-1.4,5.55-4.26,0-5.05-7.45-3.82-7.45-6.19,0-.86.79-1.23,1.9-1.23A8.59,8.59,0,0,1,112,23.9ZM122.24,20a6.83,6.83,0,0,0-7.16,7.18c0,4.23,2.87,7.13,7.23,7.13a7.82,7.82,0,0,0,5.92-2.42L126.39,30a5.25,5.25,0,0,1-3.79,1.58,3.92,3.92,0,0,1-4-3.21H129c.34-5.11-1.79-8.34-6.73-8.34ZM118.5,26a3.69,3.69,0,0,1,3.76-3.4,3.35,3.35,0,0,1,3.61,3.4Zm23.6-11.39V22.4A5.43,5.43,0,0,0,137.28,20c-3.94,0-6.63,2.87-6.63,7.13s2.69,7.23,6.71,7.23a5.33,5.33,0,0,0,4.74-2.42v2.27h3.42V14.64Zm-4,16.81c-2.37,0-4-1.77-4-4.29a4,4,0,0,1,4-4.29,4,4,0,0,1,4,4.29A4,4,0,0,1,138.1,31.45Z"/>
    <path class="cls-2"
          d="M163.38,21.16l2.05-2.58a10.25,10.25,0,0,0-7.1-2.94c-5.5,0-9.74,4-9.74,9.28a9.35,9.35,0,0,0,9.61,9.39,10.52,10.52,0,0,0,7.26-3.15l-2.08-2.32a7.4,7.4,0,0,1-5,2.16,6.12,6.12,0,1,1,0-12.23,6.94,6.94,0,0,1,5,2.39Zm16.54-.58,1.42-3a12.48,12.48,0,0,0-6.65-2c-4.13,0-6.89,2.06-6.89,5.27,0,6.55,9.89,4.36,9.89,8.2,0,1.29-1.19,2-3.16,2a10.36,10.36,0,0,1-6.36-2.71l-1.48,3a12,12,0,0,0,7.79,2.95c4.05,0,7.05-2,7.05-5.45,0-6.6-9.87-4.57-9.87-8.31,0-1.13,1.08-1.74,2.74-1.74a11.81,11.81,0,0,1,5.52,1.79Zm16.52,0,1.42-3a12.48,12.48,0,0,0-6.65-2c-4.13,0-6.89,2.06-6.89,5.27,0,6.55,9.89,4.36,9.89,8.2,0,1.29-1.19,2-3.16,2a10.36,10.36,0,0,1-6.36-2.71l-1.48,3A12,12,0,0,0,191,34.29c4.05,0,7.05-2,7.05-5.45,0-6.6-9.87-4.57-9.87-8.31,0-1.13,1.08-1.74,2.74-1.74A11.81,11.81,0,0,1,196.44,20.58Z"/>
    <path class="cls-3"
          d="M19.9,39.54a17.58,17.58,0,0,0,15.76-23l-.3.2a15.51,15.51,0,0,1,.7,4.59A15.31,15.31,0,0,1,19.9,36.57Z"/>
    <path class="cls-4" d="M4.48,31.92a17.57,17.57,0,0,0,13.83,7.63V36.4c-4.31-.69-8-2.65-10.41-6.46Z"/>
    <path class="cls-5" d="M2.93,14.14a19.14,19.14,0,0,0,.72,16.42l3.49-2a13.45,13.45,0,0,1,.27-11.82Z"/>
    <path class="cls-1" d="M18.3,2.63A19.09,19.09,0,0,0,3.62,12.69l4.61,2.66A13.36,13.36,0,0,1,18.3,9.56Z"/>
    <path class="cls-6" d="M35.64,10A19.06,19.06,0,0,0,19.91,2.51v7a13.35,13.35,0,0,1,8.72,3.8Z"/>
    <path class="cls-2" d="M19.1,19.36a3.2,3.2,0,1,1-3.19,3.19A3.19,3.19,0,0,1,19.1,19.36Z"/>
    <polygon class="cls-2" points="39.34 10.95 29.8 17.44 20.27 23.93 19.42 22.45 18.57 20.98 28.95 15.96 39.34 10.95"/>
    <path class="cls-6"
          d="M42.59,9.2,39.9,12a.11.11,0,0,1-.12,0,.12.12,0,0,1-.08-.09,2.68,2.68,0,0,0-.36-1,2.9,2.9,0,0,0-.67-.81.11.11,0,0,1,0-.2L42.48,9a.13.13,0,0,1,.13.05A.12.12,0,0,1,42.59,9.2Z"/>
</svg>