<svg width="63" height="56" viewBox="0 0 63 56" fill="none" xmlns="http://www.w3.org/2000/svg">
<path fill-rule="evenodd" clip-rule="evenodd" d="M27.9131 55.1031C42.5605 54.2829 53.8599 41.9797 53.0229 27.6259C52.8834 25.302 52.4649 23.1147 51.7674 20.9275L51.3489 21.2009C52.0464 23.3881 52.4649 25.7121 52.4649 28.036C52.4649 40.6126 42.0025 50.7286 29.1686 50.7286C28.7501 50.7286 28.3316 50.7286 27.9131 50.7286V55.1031Z" fill="#B59CD3"/>
<path fill-rule="evenodd" clip-rule="evenodd" d="M4.61523 43.757C9.3582 50.5921 17.1702 54.8299 25.5401 55.1033V50.4554C18.9836 49.3618 13.4037 46.491 9.7767 40.8862L4.61523 43.757Z" fill="#A080C6"/>
<path fill-rule="evenodd" clip-rule="evenodd" d="M2.24439 17.3735C-1.10359 25.3023 -0.685095 34.1879 3.36038 41.7066L8.66134 38.6991C6.01086 33.0943 6.15036 26.6693 9.07984 21.2012L2.24439 17.3735Z" fill="#9572C0"/>
<path fill-rule="evenodd" clip-rule="evenodd" d="M25.5406 0.286133C16.0546 1.37975 7.68467 6.98455 3.2207 15.1867L10.1957 19.1511C13.6831 14.0931 19.2631 10.9489 25.4011 10.5388V0.286133H25.5406Z" fill="#8B64B9"/>
<path fill-rule="evenodd" clip-rule="evenodd" d="M51.9041 11.2221C46.1847 3.97684 37.2567 -0.260935 28.0498 0.0124697V10.4019C33.0718 10.6753 37.6752 12.5891 41.3022 16.0066L51.9041 11.2221Z" fill="#7F54B3"/>
<path fill-rule="evenodd" clip-rule="evenodd" d="M26.7965 25.0291C29.447 25.0291 31.679 27.0796 31.679 29.8136C31.679 32.411 29.5865 34.5982 26.7965 34.5982C24.146 34.5982 21.9141 32.5477 21.9141 29.8136C21.9141 27.2163 24.146 25.0291 26.7965 25.0291Z" fill="#E4E0E8"/>
<path fill-rule="evenodd" clip-rule="evenodd" d="M57.4858 12.5889L42.9779 22.2947L28.47 31.8639L27.2145 29.6767L25.959 27.4894L41.7224 20.1075L57.4858 12.5889Z" fill="#E4E0E8"/>
<path fill-rule="evenodd" clip-rule="evenodd" d="M62.3686 9.99163L58.3231 14.0927H58.1836L58.0441 13.956C57.9046 13.4092 57.7651 12.8624 57.4861 12.4523C57.2071 12.0422 56.9281 11.6321 56.5096 11.222C56.3701 11.222 56.3701 11.0853 56.3701 10.9485C56.3701 10.9485 56.3701 10.9485 56.5096 10.8118L62.2291 9.44482C62.3686 9.44482 62.3686 9.44482 62.3686 9.58153C62.5081 9.85493 62.5081 9.99163 62.3686 9.99163Z" fill="#7F54B3"/>
</svg>
